<svg width="29" height="16" viewBox="0 0 29 16" fill="none" xmlns="http://www.w3.org/2000/svg">
<path d="M22.3842 13.7143V16H8.66992V13.7143C8.66992 13.7143 8.66992 9.14286 15.5271 9.14286C22.3842 9.14286 22.3842 13.7143 22.3842 13.7143ZM18.9556 3.42857C18.9556 2.75047 18.7546 2.08759 18.3778 1.52376C18.0011 0.959935 17.4656 0.520486 16.8391 0.260986C16.2126 0.00148555 15.5233 -0.0664116 14.8582 0.0658806C14.1931 0.198173 13.5822 0.524712 13.1027 1.00421C12.6232 1.4837 12.2967 2.09461 12.1644 2.75969C12.0321 3.42477 12.1 4.11414 12.3595 4.74063C12.619 5.36712 13.0584 5.90259 13.6223 6.27933C14.1861 6.65606 14.849 6.85714 15.5271 6.85714C16.4364 6.85714 17.3084 6.49592 17.9514 5.85294C18.5944 5.20996 18.9556 4.33789 18.9556 3.42857ZM22.6128 9.21143C23.2375 9.78778 23.7412 10.4828 24.0944 11.2559C24.4476 12.029 24.6432 12.8647 24.6699 13.7143V16H28.0985V13.7143C28.0985 13.7143 28.0985 9.77143 22.6128 9.21143ZM21.2413 1.30457e-06C20.896 2.1373e-05 20.5528 0.0540059 20.2242 0.160001C20.8928 1.11882 21.2513 2.25964 21.2513 3.42857C21.2513 4.59751 20.8928 5.73832 20.2242 6.69714C20.5528 6.80314 20.896 6.85712 21.2413 6.85714C22.1507 6.85714 23.0227 6.49592 23.6657 5.85294C24.3087 5.20996 24.6699 4.33789 24.6699 3.42857C24.6699 2.51926 24.3087 1.64719 23.6657 1.00421C23.0227 0.361225 22.1507 1.30457e-06 21.2413 1.30457e-06ZM9.81278 5.71429H6.38421V2.28572H4.09849V5.71429H0.669922V8H4.09849V11.4286H6.38421V8H9.81278V5.71429Z" fill="#1C3C84"/>
</svg>
