<svg width="20" height="20" viewBox="0 0 24 24" fill="rgba(54, 197, 240, 1)" xmlns="http://www.w3.org/2000/svg">
<path fill-rule="evenodd" clip-rule="evenodd" d="M12.8867 22.5469C18.4096 22.5469 22.8867 18.0697 22.8867 12.5469C22.8867 7.02403 18.4096 2.54688 12.8867 2.54688C7.36387 2.54688 2.88672 7.02403 2.88672 12.5469C2.88672 18.0697 7.36387 22.5469 12.8867 22.5469ZM15.7926 14.2245C15.8538 13.6888 15.8867 13.1274 15.8867 12.5469C15.8867 11.9663 15.8538 11.4049 15.7926 10.8693C15.3593 10.5484 14.8894 10.2391 14.3866 9.94879C13.8838 9.6585 13.3811 9.40626 12.8866 9.19149C12.3921 9.40626 11.8894 9.6585 11.3866 9.94879C10.8838 10.2391 10.4141 10.5482 9.98086 10.8691C9.91959 11.4048 9.88669 11.9663 9.88669 12.5469C9.88669 13.1275 9.91959 13.689 9.98086 14.2247C10.4141 14.5455 10.8838 14.8547 11.3866 15.1449C11.8894 15.4352 12.392 15.6875 12.8866 15.9023C13.3811 15.6875 13.8838 15.4352 14.3866 15.1449C14.8894 14.8546 15.3593 14.5454 15.7926 14.2245ZM16.8867 12.5469C16.8867 12.2798 16.8802 12.0158 16.8674 11.7555C17.1517 12.0173 17.4118 12.2822 17.6462 12.5469C17.4118 12.8115 17.1517 13.0765 16.8674 13.3383C16.8802 13.0779 16.8867 12.8139 16.8867 12.5469ZM16.7308 10.3276C17.3114 10.7845 17.8295 11.2639 18.2748 11.7506C18.3058 11.7059 18.3359 11.6614 18.3653 11.6169C19.1916 10.3654 19.2096 9.49871 18.9488 9.04686C18.6879 8.59502 17.9283 8.17729 16.4313 8.26715C16.3782 8.27034 16.3246 8.27417 16.2704 8.27865C16.4692 8.90777 16.6254 9.59618 16.7308 10.3276ZM16.7308 14.7661C17.3114 14.3092 17.8294 13.8299 18.2748 13.3432C18.3058 13.3878 18.3359 13.4324 18.3652 13.4768C19.1916 14.7283 19.2096 15.595 18.9487 16.0469C18.6879 16.4987 17.9283 16.9164 16.4312 16.8266C16.3781 16.8234 16.3245 16.8196 16.2704 16.8151C16.4692 16.186 16.6254 15.4976 16.7308 14.7661ZM19.8148 16.5469C19.2109 17.5927 17.7427 17.9951 15.9105 17.7842C15.177 19.4765 14.0944 20.5469 12.8867 20.5469C11.679 20.5469 10.5963 19.4765 9.86292 17.7842C8.03059 17.9952 6.56223 17.5928 5.95839 16.5469C5.35456 15.501 5.7402 14.0282 6.83905 12.5469C5.74017 11.0656 5.35451 9.59274 5.95835 8.54687C6.5622 7.50097 8.03058 7.09855 9.86293 7.30957C10.5964 5.61727 11.679 4.54688 12.8867 4.54688C14.0944 4.54688 15.177 5.61726 15.9104 7.30954C17.7427 7.09858 19.211 7.50101 19.8148 8.54687C20.4186 9.59274 20.033 11.0656 18.9341 12.5469C20.0329 14.0282 20.4186 15.501 19.8148 16.5469ZM15.5625 15.5984C15.4779 15.9756 15.3785 16.3335 15.2665 16.6688C14.9201 16.5982 14.5604 16.5053 14.1914 16.39C14.4233 16.2709 14.6553 16.1445 14.8866 16.011C15.1179 15.8774 15.3434 15.7397 15.5625 15.5984ZM14.8912 17.6114C14.247 17.469 13.5727 17.2601 12.8866 16.9856C12.2005 17.26 11.5263 17.469 10.8822 17.6114C10.9054 17.6605 10.9289 17.7089 10.9527 17.7565C11.6234 19.0979 12.365 19.5469 12.8867 19.5469C13.4084 19.5469 14.15 19.0979 14.8207 17.7565C14.8445 17.7089 14.868 17.6605 14.8912 17.6114ZM10.8866 16.011C11.1179 16.1445 11.3498 16.2709 11.5817 16.39C11.2128 16.5053 10.8532 16.5982 10.5069 16.6688C10.3949 16.3335 10.2955 15.9757 10.2109 15.5986C10.43 15.7398 10.6553 15.8775 10.8866 16.011ZM9.50294 16.8151C9.30416 16.186 9.14802 15.4977 9.04264 14.7664C8.46187 14.3094 7.94376 13.8299 7.49832 13.3432C7.46737 13.3878 7.43723 13.4324 7.40791 13.4768C6.58157 14.7283 6.56354 15.595 6.82441 16.0469C7.08528 16.4987 7.84486 16.9164 9.34191 16.8266C9.39507 16.8234 9.44876 16.8195 9.50294 16.8151ZM8.90603 13.3385C8.62163 13.0766 8.36137 12.8116 8.12695 12.5469C8.36137 12.2822 8.62163 12.0171 8.90603 11.7552C8.89324 12.0157 8.88669 12.2797 8.88669 12.5469C8.88669 12.814 8.89324 13.0781 8.90603 13.3385ZM9.04264 10.3274C8.46187 10.7844 7.94376 11.2638 7.49831 11.7506C7.46736 11.7059 7.4372 11.6614 7.40787 11.6169C6.58153 10.3654 6.5635 9.49871 6.82437 9.04686C7.08525 8.59502 7.84482 8.17729 9.34187 8.26715C9.39505 8.27034 9.44875 8.27418 9.50295 8.27866C9.30416 8.90772 9.14802 9.59605 9.04264 10.3274ZM10.2109 9.49518C10.2955 9.11804 10.3949 8.76023 10.5069 8.42493C10.8533 8.49558 11.2128 8.58844 11.5817 8.70375C11.3498 8.82287 11.1179 8.94922 10.8866 9.08276C10.6553 9.21629 10.43 9.35395 10.2109 9.49518ZM15.2665 8.42489C14.92 8.49554 14.5604 8.58841 14.1914 8.70376C14.4233 8.82287 14.6552 8.94922 14.8866 9.08276C15.1179 9.21635 15.3434 9.35407 15.5625 9.49537C15.4779 9.11814 15.3785 8.76026 15.2665 8.42489ZM10.8822 7.48238C11.5263 7.62476 12.2005 7.8337 12.8866 8.10812C13.5727 7.83367 14.247 7.62471 14.8912 7.48233C14.868 7.4332 14.8445 7.38483 14.8207 7.33723C14.15 5.99582 13.4084 5.54688 12.8867 5.54688C12.365 5.54688 11.6234 5.99582 10.9527 7.33723C10.9289 7.38485 10.9054 7.43324 10.8822 7.48238ZM13.8867 12.5469C13.8867 13.0992 13.439 13.5469 12.8867 13.5469C12.3344 13.5469 11.8867 13.0992 11.8867 12.5469C11.8867 11.9946 12.3344 11.5469 12.8867 11.5469C13.439 11.5469 13.8867 11.9946 13.8867 12.5469Z" fill="rgba(54, 197, 240, 1)"/>
</svg>
