<svg width="51" height="50" viewBox="0 0 51 50" fill="none" xmlns="http://www.w3.org/2000/svg">
<path fill-rule="evenodd" clip-rule="evenodd" d="M35.4619 2.25151C36.1162 -0.737957 40.3748 -0.755836 41.0577 2.23006L41.0863 2.36952L41.1507 2.64844C41.9373 5.98835 44.6404 8.53799 48.0229 9.12801C51.1408 9.67155 51.1408 14.1486 48.0229 14.6922C46.3603 14.9834 44.8206 15.7586 43.5963 16.9207C42.372 18.0828 41.5176 19.5801 41.1399 21.2254L41.0541 21.5901C40.3748 24.576 36.1198 24.5581 35.4619 21.5687L35.394 21.254C35.033 19.6014 34.1879 18.0939 32.9664 16.9239C31.7449 15.7538 30.2025 14.9744 28.536 14.685C25.4253 14.145 25.4253 9.67513 28.536 9.13517C30.1965 8.84698 31.7339 8.07223 32.9536 6.90913C34.1732 5.74604 35.0201 4.24697 35.3868 2.60195L35.4369 2.36594L35.4619 2.25151ZM38.0614 27.7049C36.3583 27.6683 34.7313 26.9931 33.5025 25.8133C33.2354 25.9943 33.0009 26.2192 32.8088 26.4784C31.1998 28.6096 29.3155 30.7874 27.1845 32.9151C25.5683 34.5314 23.9307 36.0011 22.3145 37.3134C20.6984 36.0011 19.0608 34.5314 17.4446 32.9151C15.8969 31.3686 14.429 29.7442 13.0466 28.0482C14.3589 26.4283 15.832 24.7941 17.4446 23.1778C19.4553 21.1541 21.606 19.2745 23.8806 17.5529C24.1158 17.3804 24.3232 17.173 24.4956 16.9378C23.8159 16.318 23.2714 15.5646 22.8961 14.7247C22.5208 13.8849 22.3228 12.9766 22.3145 12.0567C18.8069 9.60004 15.3386 7.77989 12.2421 6.83227C8.88826 5.80598 4.95513 5.53064 2.37714 8.1053C0.707349 9.77883 0.253251 12.0531 0.381972 14.2166C0.510692 16.3836 1.23653 18.7651 2.33423 21.1825C3.45042 23.5896 4.78746 25.8881 6.32815 28.0482C4.78784 30.2061 3.45082 32.5021 2.33423 34.9068C1.23653 37.3242 0.510692 39.7057 0.381972 41.8727C0.253251 44.0397 0.703773 46.3105 2.37714 47.984C4.05051 49.6575 6.32457 50.1081 8.48779 49.9794C10.651 49.847 13.0359 49.1247 15.453 48.0269C17.6341 47.0364 19.9547 45.6847 22.3181 44.0326C24.678 45.6847 26.995 47.0364 29.1796 48.0269C31.5931 49.1247 33.9781 49.8506 36.1449 49.9794C38.3116 50.1081 40.5786 49.6539 42.2519 47.9804C44.8299 45.4058 44.5546 41.4722 43.5284 38.118C42.5487 34.9211 40.6429 31.3273 38.0614 27.7049ZM10.6725 11.9601C12.732 12.5895 15.1884 13.7839 17.8486 15.5146C14.944 17.9788 12.2461 20.677 9.78215 23.5819C8.81361 22.1073 7.95551 20.5631 7.21489 18.9618C6.27452 16.8878 5.81327 15.1713 5.7346 13.8947C5.65952 12.611 5.97417 12.096 6.17082 11.8994C6.49263 11.5775 7.67972 11.0483 10.6725 11.9601ZM7.21489 37.1311C7.8728 35.6828 8.73451 34.1273 9.78215 32.511C12.2473 35.4161 14.9463 38.1142 17.8522 40.5783C16.379 41.548 14.8361 42.4073 13.2362 43.1493C11.1623 44.0898 9.44605 44.5511 8.16957 44.6298C6.88236 44.7049 6.37106 44.3902 6.1744 44.1935C5.97774 43.9968 5.66309 43.4783 5.73818 42.1981C5.81684 40.9215 6.27452 39.2051 7.21847 37.1311H7.21489ZM31.3965 43.1493C29.7977 42.4072 28.256 41.5478 26.784 40.5783C29.6862 38.1137 32.3816 35.4156 34.8433 32.511C36.5703 35.175 37.7646 37.6317 38.3939 39.6914C39.3092 42.6809 38.78 43.8717 38.4582 44.1935C38.258 44.3902 37.7431 44.7049 36.4631 44.6262C35.183 44.5547 33.4703 44.0898 31.3965 43.1493ZM18.739 28.0482C18.739 27.0998 19.1157 26.1903 19.7862 25.5197C20.4568 24.849 21.3662 24.4723 22.3145 24.4723C23.2628 24.4723 24.1723 24.849 24.8428 25.5197C25.5134 26.1903 25.8901 27.0998 25.8901 28.0482C25.8901 28.9966 25.5134 29.9062 24.8428 30.5768C24.1723 31.2474 23.2628 31.6241 22.3145 31.6241C21.3662 31.6241 20.4568 31.2474 19.7862 30.5768C19.1157 29.9062 18.739 28.9966 18.739 28.0482Z" fill="white"/>
</svg>
