<svg width="16" height="17" viewBox="0 0 16 17" fill="none" xmlns="http://www.w3.org/2000/svg">
<path d="M15.3083 2.57797V12.1795C15.3078 12.2706 15.2881 12.3606 15.2505 12.4434C15.2129 12.5261 15.1583 12.5998 15.0904 12.6595C13.8841 13.7181 12.7307 14.0998 11.6309 14.0998C10.138 14.0998 8.74381 13.4004 7.44671 12.7515C5.35065 11.6994 3.52855 10.788 1.41355 12.4811V16.0201C1.41355 16.1898 1.34701 16.3526 1.22856 16.4727C1.11012 16.5927 0.949475 16.6602 0.78197 16.6602C0.614464 16.6602 0.45382 16.5927 0.335376 16.4727C0.216932 16.3526 0.150391 16.1898 0.150391 16.0201V2.57797C0.150996 2.48678 0.17082 2.39677 0.208535 2.31398C0.24625 2.23118 0.300985 2.15751 0.369075 2.0979C3.21118 -0.396891 5.76197 0.880908 8.01039 2.00828C10.1767 3.09485 12.0549 4.0342 14.263 2.0979C14.3543 2.01771 14.4663 1.96573 14.5859 1.94812C14.7054 1.93051 14.8274 1.94801 14.9374 1.99854C15.0474 2.04907 15.1408 2.13051 15.2066 2.23321C15.2723 2.33591 15.3076 2.45556 15.3083 2.57797Z" fill="#36C5F0"/>
</svg>
