<svg width="25" height="25" viewBox="0 0 25 25" fill="none" xmlns="http://www.w3.org/2000/svg">
<path d="M5.2137 7.1849L6.10471 7.63889L5.2137 7.1849ZM5.65492 20.7787L4.94781 20.0716H4.94781L5.65492 20.7787ZM19.2487 17.2199L19.7027 18.1109L19.7027 18.1109L19.2487 17.2199ZM20.5597 15.9088L21.4507 16.3628L21.4507 16.3628L20.5597 15.9088ZM20.5597 7.1849L21.4507 6.73091L21.4507 6.73091L20.5597 7.1849ZM19.2487 5.87386L19.7027 4.98285L19.7027 4.98285L19.2487 5.87386ZM6.52475 5.87386L6.97874 6.76486L6.52475 5.87386ZM8.59383 17.8398L7.88672 17.1327L8.59383 17.8398ZM5.88672 10.3469C5.88672 9.4903 5.8875 8.908 5.92427 8.45791C5.96009 8.0195 6.02502 7.79529 6.10471 7.63889L4.32269 6.73091C4.0754 7.21625 3.97684 7.73295 3.93091 8.29505C3.88594 8.84547 3.88672 9.5233 3.88672 10.3469H5.88672ZM5.88672 12.5469V10.3469H3.88672V12.5469H5.88672ZM3.88672 12.5469V17.5469H5.88672V12.5469H3.88672ZM3.88672 17.5469V20.4605H5.88672V17.5469H3.88672ZM3.88672 20.4605C3.88672 21.7523 5.44857 22.3992 6.36202 21.4858L4.94781 20.0716C5.29429 19.7251 5.88672 19.9705 5.88672 20.4605H3.88672ZM6.36202 21.4858L9.30093 18.5469L7.88672 17.1327L4.94781 20.0716L6.36202 21.4858ZM16.0867 16.5469H9.30093V18.5469H16.0867V16.5469ZM18.7947 16.3289C18.6383 16.4086 18.4141 16.4735 17.9757 16.5093C17.5256 16.5461 16.9433 16.5469 16.0867 16.5469V18.5469C16.9103 18.5469 17.5881 18.5477 18.1385 18.5027C18.7006 18.4568 19.2173 18.3582 19.7027 18.1109L18.7947 16.3289ZM19.6687 15.4549C19.477 15.8312 19.171 16.1371 18.7947 16.3289L19.7027 18.1109C20.4553 17.7274 21.0673 17.1155 21.4507 16.3628L19.6687 15.4549ZM19.8867 12.7469C19.8867 13.6035 19.8859 14.1857 19.8492 14.6358C19.8133 15.0743 19.7484 15.2985 19.6687 15.4549L21.4507 16.3628C21.698 15.8775 21.7966 15.3608 21.8425 14.7987C21.8875 14.2483 21.8867 13.5705 21.8867 12.7469H19.8867ZM19.8867 10.3469V12.7469H21.8867V10.3469H19.8867ZM19.6687 7.63889C19.7484 7.79529 19.8133 8.0195 19.8492 8.45791C19.8859 8.908 19.8867 9.4903 19.8867 10.3469H21.8867C21.8867 9.5233 21.8875 8.84547 21.8425 8.29505C21.7966 7.73295 21.698 7.21625 21.4507 6.73091L19.6687 7.63889ZM18.7947 6.76486C19.171 6.95661 19.477 7.26257 19.6687 7.63889L21.4507 6.73091C21.0673 5.97826 20.4553 5.36634 19.7027 4.98285L18.7947 6.76486ZM16.0867 6.54688C16.9433 6.54688 17.5256 6.54765 17.9757 6.58443C18.4141 6.62025 18.6383 6.68517 18.7947 6.76486L19.7027 4.98285C19.2173 4.73556 18.7006 4.63699 18.1385 4.59107C17.5881 4.5461 16.9103 4.54688 16.0867 4.54688V6.54688ZM9.68672 6.54688H16.0867V4.54688H9.68672V6.54688ZM6.97874 6.76486C7.13514 6.68517 7.35934 6.62025 7.79776 6.58443C8.24785 6.54765 8.83014 6.54688 9.68672 6.54688V4.54688C8.86314 4.54688 8.18532 4.5461 7.63489 4.59107C7.0728 4.63699 6.55609 4.73556 6.07076 4.98285L6.97874 6.76486ZM6.10471 7.63889C6.29645 7.26257 6.60241 6.95661 6.97874 6.76486L6.07076 4.98285C5.31811 5.36634 4.70619 5.97826 4.32269 6.73091L6.10471 7.63889ZM9.30093 18.5469V16.5469C8.7705 16.5469 8.26179 16.7576 7.88672 17.1327L9.30093 18.5469Z" fill="rgba(54, 197, 240, 1)"/>
<path d="M8.88672 9.54688L16.8867 9.54687" stroke="rgba(54, 197, 240, 1)" stroke-width="2" stroke-linecap="round" stroke-linejoin="round"/>
<path d="M8.88672 13.5469L13.8867 13.5469" stroke="rgba(54, 197, 240, 1)" stroke-width="2" stroke-linecap="round" stroke-linejoin="round"/>
</svg>
