<svg width="21" height="21" viewBox="0 0 21 21" fill="none" xmlns="http://www.w3.org/2000/svg">
<path d="M10.6016 0.777344C5.07156 0.777344 0.601562 5.24734 0.601562 10.7773C0.601562 16.3073 5.07156 20.7773 10.6016 20.7773C16.1316 20.7773 20.6016 16.3073 20.6016 10.7773C20.6016 5.24734 16.1316 0.777344 10.6016 0.777344ZM14.9016 15.0773C14.809 15.17 14.6992 15.2436 14.5782 15.2938C14.4572 15.344 14.3275 15.3698 14.1966 15.3698C14.0656 15.3698 13.9359 15.344 13.8149 15.2938C13.694 15.2436 13.5841 15.17 13.4916 15.0773L10.6016 12.1873L7.71156 15.0773C7.52458 15.2643 7.27099 15.3694 7.00656 15.3694C6.74214 15.3694 6.48854 15.2643 6.30156 15.0773C6.11458 14.8904 6.00954 14.6368 6.00954 14.3723C6.00954 14.2414 6.03533 14.1118 6.08544 13.9908C6.13554 13.8698 6.20898 13.7599 6.30156 13.6673L9.19156 10.7773L6.30156 7.88734C6.11458 7.70037 6.00954 7.44677 6.00954 7.18234C6.00954 6.91792 6.11458 6.66432 6.30156 6.47734C6.48854 6.29037 6.74214 6.18532 7.00656 6.18532C7.27099 6.18532 7.52458 6.29037 7.71156 6.47734L10.6016 9.36734L13.4916 6.47734C13.5841 6.38476 13.6941 6.31132 13.815 6.26122C13.936 6.21111 14.0656 6.18532 14.1966 6.18532C14.3275 6.18532 14.4571 6.21111 14.5781 6.26122C14.6991 6.31132 14.809 6.38476 14.9016 6.47734C14.9941 6.56993 15.0676 6.67984 15.1177 6.8008C15.1678 6.92176 15.1936 7.05141 15.1936 7.18234C15.1936 7.31327 15.1678 7.44292 15.1177 7.56389C15.0676 7.68485 14.9941 7.79476 14.9016 7.88734L12.0116 10.7773L14.9016 13.6673C15.2816 14.0473 15.2816 14.6873 14.9016 15.0773Z" fill="white"/>
</svg>
