<svg width="25" height="24" viewBox="0 0 25 24" fill="none" xmlns="http://www.w3.org/2000/svg">
<g clip-path="url(#clip0_132_178)">
<path d="M20.834 3.39844C20.9434 3.46094 21.0332 3.55078 21.1035 3.66797C21.1738 3.78516 21.209 3.91016 21.209 4.04297C21.209 4.10547 21.2012 4.16406 21.1855 4.21875C21.1699 4.27344 21.1504 4.32812 21.127 4.38281L12.8418 20.9648C12.7715 21.1133 12.6621 21.2227 12.5137 21.293L10.4863 22.3125C10.2363 22.4375 9.9668 22.5 9.67773 22.5H9.57227C9.54102 22.5 9.50195 22.4961 9.45508 22.4883L8.9043 23.5898C8.8418 23.7148 8.75195 23.8125 8.63477 23.8828C8.51758 23.9531 8.38477 23.9922 8.23633 24C8.0332 24 7.85742 23.9258 7.70898 23.7773C7.56055 23.6289 7.48633 23.4531 7.48633 23.25C7.48633 23.1562 7.51367 23.0391 7.56836 22.8984C7.62305 22.7578 7.68555 22.6133 7.75586 22.4648C7.82617 22.3164 7.9043 22.1719 7.99023 22.0312C8.07617 21.8906 8.13477 21.7812 8.16602 21.7031C7.96289 21.3906 7.86133 21.0508 7.86133 20.6836V18.75C7.86133 18.625 7.88867 18.5117 7.94336 18.4102L14.6934 4.91016L13.9316 4.53516L11.1543 10.0898C11.0918 10.2148 11.002 10.3125 10.8848 10.3828C10.7676 10.4531 10.6348 10.4922 10.4863 10.5C10.2832 10.5 10.1074 10.4258 9.95898 10.2773C9.81055 10.1289 9.73633 9.95312 9.73633 9.75C9.73633 9.64844 9.76367 9.53516 9.81836 9.41016L12.6191 3.80859C12.7441 3.55859 12.9121 3.36328 13.123 3.22266C13.334 3.08203 13.5801 3.00781 13.8613 3C14.1348 3 14.3926 3.06641 14.6348 3.19922C14.877 3.33203 15.1191 3.45703 15.3613 3.57422L16.1934 1.91016C16.2559 1.77734 16.3457 1.67578 16.4629 1.60547C16.5801 1.53516 16.7129 1.5 16.8613 1.5C16.9629 1.5 17.0488 1.51562 17.1191 1.54688C17.2129 1.35938 17.3027 1.17578 17.3887 0.996094C17.4746 0.816406 17.5762 0.648438 17.6934 0.492188C17.8105 0.335938 17.9512 0.21875 18.1152 0.140625C18.2793 0.0625 18.4863 0.015625 18.7363 0C18.9863 0 19.2246 0.0585938 19.4512 0.175781L20.5527 0.726562C20.8027 0.851562 20.998 1.01562 21.1387 1.21875C21.2793 1.42188 21.3535 1.67188 21.3613 1.96875C21.3613 2.23438 21.3027 2.48047 21.1855 2.70703C21.0684 2.93359 20.9512 3.16406 20.834 3.39844ZM18.4668 2.21484L19.4863 2.71875L19.8262 2.03906L18.8066 1.53516L18.4668 2.21484ZM19.4512 4.38281L17.2012 3.25781L9.36133 18.9258V20.6836C9.36133 20.7695 9.39258 20.8438 9.45508 20.9062C9.51758 20.9688 9.5918 21 9.67773 21C9.70898 21 9.77148 20.9805 9.86523 20.9414C9.95898 20.9023 10.0723 20.8516 10.2051 20.7891C10.3379 20.7266 10.4746 20.6602 10.6152 20.5898C10.7559 20.5195 10.8965 20.4453 11.0371 20.3672C11.1777 20.2891 11.2949 20.2266 11.3887 20.1797C11.4824 20.1328 11.5566 20.0938 11.6113 20.0625L19.4512 4.38281ZM21.3613 9C21.7754 9 22.1621 9.07812 22.5215 9.23438C22.8809 9.39062 23.2012 9.60547 23.4824 9.87891C23.7637 10.1523 23.9785 10.4688 24.127 10.8281C24.2754 11.1875 24.3535 11.5781 24.3613 12C24.3613 12.4141 24.2832 12.8008 24.127 13.1602C23.9707 13.5195 23.7559 13.8398 23.4824 14.1211C23.209 14.4023 22.8926 14.6172 22.5332 14.7656C22.1738 14.9141 21.7832 14.9922 21.3613 15H17.9863L18.7363 13.5H21.3613C21.5723 13.5 21.7676 13.4609 21.9473 13.3828C22.127 13.3047 22.2832 13.1992 22.416 13.0664C22.5488 12.9336 22.6582 12.7734 22.7441 12.5859C22.8301 12.3984 22.8691 12.2031 22.8613 12C22.8613 11.7891 22.8223 11.5938 22.7441 11.4141C22.666 11.2344 22.5605 11.0781 22.4277 10.9453C22.2949 10.8125 22.1348 10.7031 21.9473 10.6172C21.7598 10.5312 21.5645 10.4922 21.3613 10.5C21.1582 10.5 20.9824 10.4258 20.834 10.2773C20.6855 10.1289 20.6113 9.95312 20.6113 9.75C20.6113 9.54688 20.6855 9.37109 20.834 9.22266C20.9824 9.07422 21.1582 9 21.3613 9ZM1.86133 18.75C1.86133 19.2656 1.95898 19.75 2.1543 20.2031C2.34961 20.6562 2.61523 21.0547 2.95117 21.3984C3.28711 21.7422 3.68555 22.0117 4.14648 22.207C4.60742 22.4023 5.0957 22.5 5.61133 22.5H6.12695C6.08789 22.6172 6.05664 22.7383 6.0332 22.8633C6.00977 22.9883 5.99414 23.1172 5.98633 23.25C5.98633 23.3828 5.99805 23.5117 6.02148 23.6367C6.04492 23.7617 6.08008 23.8828 6.12695 24H5.61133C4.88477 24 4.20508 23.8633 3.57227 23.5898C2.93945 23.3164 2.38477 22.9414 1.9082 22.4648C1.43164 21.9883 1.05664 21.4336 0.783203 20.8008C0.509766 20.168 0.369141 19.4844 0.361328 18.75C0.361328 18.0234 0.498047 17.3438 0.771484 16.7109C1.04492 16.0781 1.41992 15.5234 1.89648 15.0469C2.37305 14.5703 2.92773 14.1953 3.56055 13.9219C4.19336 13.6484 4.87695 13.5078 5.61133 13.5H8.23633L7.48633 15H5.61133C5.0957 15 4.61133 15.0977 4.1582 15.293C3.70508 15.4883 3.30664 15.7578 2.96289 16.1016C2.61914 16.4453 2.34961 16.8438 2.1543 17.2969C1.95898 17.75 1.86133 18.2344 1.86133 18.75Z" fill="#CCCCCC"/>
</g>
<defs>
<clipPath id="clip0_132_178">
<rect width="24" height="24" fill="white" transform="translate(0.361328)"/>
</clipPath>
</defs>
</svg>
