<svg width="25" height="25" viewBox="0 0 25 25" fill="none" xmlns="http://www.w3.org/2000/svg">
<path d="M10.3867 15.0469L10.3867 12.0469" stroke="#222222" stroke-linecap="round"/>
<path d="M15.3867 15.0469L15.3867 12.0469" stroke="#222222" stroke-linecap="round"/>
<path d="M3.88672 7.04688H21.8867V7.04688C20.4823 7.04688 19.78 7.04688 19.2756 7.38394C19.0572 7.52985 18.8697 7.71735 18.7238 7.93573C18.3867 8.44018 18.3867 9.14241 18.3867 10.5469V16.0469C18.3867 17.9325 18.3867 18.8753 17.8009 19.4611C17.2151 20.0469 16.2723 20.0469 14.3867 20.0469H11.3867C9.5011 20.0469 8.55829 20.0469 7.97251 19.4611C7.38672 18.8753 7.38672 17.9325 7.38672 16.0469V10.5469C7.38672 9.14241 7.38672 8.44018 7.04966 7.93573C6.90374 7.71735 6.71624 7.52985 6.49786 7.38394C5.99341 7.04688 5.29118 7.04688 3.88672 7.04688V7.04688Z" stroke="#222222" stroke-linecap="round"/>
<path d="M10.3867 4.04712C10.3867 4.04712 10.8867 3.04688 12.8867 3.04688C14.8867 3.04688 15.3867 4.04688 15.3867 4.04688" stroke="#222222" stroke-linecap="round"/>
</svg>
