<svg width="15" height="15" viewBox="0 0 15 15" fill="none" xmlns="http://www.w3.org/2000/svg">
<path d="M12.7954 2.12402C12.8638 2.16309 12.9199 2.21924 12.9639 2.29248C13.0078 2.36572 13.0298 2.44385 13.0298 2.52686C13.0298 2.56592 13.0249 2.60254 13.0151 2.63672C13.0054 2.6709 12.9932 2.70508 12.9785 2.73926L7.80029 13.103C7.75635 13.1958 7.68799 13.2642 7.59521 13.3081L6.32812 13.9453C6.17188 14.0234 6.00342 14.0625 5.82275 14.0625H5.75684C5.7373 14.0625 5.71289 14.0601 5.68359 14.0552L5.33936 14.7437C5.30029 14.8218 5.24414 14.8828 5.1709 14.9268C5.09766 14.9707 5.01465 14.9951 4.92188 15C4.79492 15 4.68506 14.9536 4.59229 14.8608C4.49951 14.7681 4.45312 14.6582 4.45312 14.5312C4.45312 14.4727 4.47021 14.3994 4.50439 14.3115C4.53857 14.2236 4.57764 14.1333 4.62158 14.0405C4.66553 13.9478 4.71436 13.8574 4.76807 13.7695C4.82178 13.6816 4.8584 13.6133 4.87793 13.5645C4.75098 13.3691 4.6875 13.1567 4.6875 12.9272V11.7188C4.6875 11.6406 4.70459 11.5698 4.73877 11.5063L8.95752 3.06885L8.48145 2.83447L6.74561 6.30615C6.70654 6.38428 6.65039 6.44531 6.57715 6.48926C6.50391 6.5332 6.4209 6.55762 6.32812 6.5625C6.20117 6.5625 6.09131 6.51611 5.99854 6.42334C5.90576 6.33057 5.85938 6.2207 5.85938 6.09375C5.85938 6.03027 5.87646 5.95947 5.91064 5.88135L7.66113 2.38037C7.73926 2.22412 7.84424 2.10205 7.97607 2.01416C8.10791 1.92627 8.26172 1.87988 8.4375 1.875C8.6084 1.875 8.76953 1.9165 8.9209 1.99951C9.07227 2.08252 9.22363 2.16064 9.375 2.23389L9.89502 1.19385C9.93408 1.11084 9.99023 1.04736 10.0635 1.00342C10.1367 0.959473 10.2197 0.9375 10.3125 0.9375C10.376 0.9375 10.4297 0.947266 10.4736 0.966797C10.5322 0.849609 10.5884 0.734863 10.6421 0.622559C10.6958 0.510254 10.7593 0.405273 10.8325 0.307617C10.9058 0.209961 10.9937 0.136719 11.0962 0.0878906C11.1987 0.0390625 11.3281 0.00976562 11.4844 0C11.6406 0 11.7896 0.0366211 11.9312 0.109863L12.6196 0.454102C12.7759 0.532227 12.8979 0.634766 12.9858 0.761719C13.0737 0.888672 13.1201 1.04492 13.125 1.23047C13.125 1.39648 13.0884 1.55029 13.0151 1.69189C12.9419 1.8335 12.8687 1.97754 12.7954 2.12402ZM11.3159 1.38428L11.9531 1.69922L12.1655 1.27441L11.5283 0.959473L11.3159 1.38428ZM11.9312 2.73926L10.5249 2.03613L5.625 11.8286V12.9272C5.625 12.981 5.64453 13.0273 5.68359 13.0664C5.72266 13.1055 5.76904 13.125 5.82275 13.125C5.84229 13.125 5.88135 13.1128 5.93994 13.0884C5.99854 13.064 6.06934 13.0322 6.15234 12.9932C6.23535 12.9541 6.3208 12.9126 6.40869 12.8687C6.49658 12.8247 6.58447 12.7783 6.67236 12.7295C6.76025 12.6807 6.8335 12.6416 6.89209 12.6123C6.95068 12.583 6.99707 12.5586 7.03125 12.5391L11.9312 2.73926ZM13.125 5.625C13.3838 5.625 13.6255 5.67383 13.8501 5.77148C14.0747 5.86914 14.2749 6.00342 14.4507 6.17432C14.6265 6.34521 14.7607 6.54297 14.8535 6.76758C14.9463 6.99219 14.9951 7.23633 15 7.5C15 7.75879 14.9512 8.00049 14.8535 8.2251C14.7559 8.44971 14.6216 8.6499 14.4507 8.82568C14.2798 9.00146 14.082 9.13574 13.8574 9.22852C13.6328 9.32129 13.3887 9.37012 13.125 9.375H11.0156L11.4844 8.4375H13.125C13.2568 8.4375 13.3789 8.41309 13.4912 8.36426C13.6035 8.31543 13.7012 8.24951 13.7842 8.1665C13.8672 8.0835 13.9355 7.9834 13.9893 7.86621C14.043 7.74902 14.0674 7.62695 14.0625 7.5C14.0625 7.36816 14.0381 7.24609 13.9893 7.13379C13.9404 7.02148 13.8745 6.92383 13.7915 6.84082C13.7085 6.75781 13.6084 6.68945 13.4912 6.63574C13.374 6.58203 13.252 6.55762 13.125 6.5625C12.998 6.5625 12.8882 6.51611 12.7954 6.42334C12.7026 6.33057 12.6562 6.2207 12.6562 6.09375C12.6562 5.9668 12.7026 5.85693 12.7954 5.76416C12.8882 5.67139 12.998 5.625 13.125 5.625ZM0.9375 11.7188C0.9375 12.041 0.998535 12.3438 1.12061 12.627C1.24268 12.9102 1.40869 13.1592 1.61865 13.374C1.82861 13.5889 2.07764 13.7573 2.36572 13.8794C2.65381 14.0015 2.95898 14.0625 3.28125 14.0625H3.60352C3.5791 14.1357 3.55957 14.2114 3.54492 14.2896C3.53027 14.3677 3.52051 14.4482 3.51562 14.5312C3.51562 14.6143 3.52295 14.6948 3.5376 14.7729C3.55225 14.8511 3.57422 14.9268 3.60352 15H3.28125C2.82715 15 2.40234 14.9146 2.00684 14.7437C1.61133 14.5728 1.26465 14.3384 0.966797 14.0405C0.668945 13.7427 0.43457 13.396 0.263672 13.0005C0.0927734 12.605 0.00488281 12.1777 0 11.7188C0 11.2646 0.0854492 10.8398 0.256348 10.4443C0.427246 10.0488 0.661621 9.70215 0.959473 9.4043C1.25732 9.10645 1.604 8.87207 1.99951 8.70117C2.39502 8.53027 2.82227 8.44238 3.28125 8.4375H4.92188L4.45312 9.375H3.28125C2.95898 9.375 2.65625 9.43604 2.37305 9.55811C2.08984 9.68018 1.84082 9.84863 1.62598 10.0635C1.41113 10.2783 1.24268 10.5273 1.12061 10.8105C0.998535 11.0938 0.9375 11.3965 0.9375 11.7188Z" fill="#ACACAC"/>
</svg>
