<svg width="18" height="15" viewBox="0 0 18 15" fill="none" xmlns="http://www.w3.org/2000/svg">
<path d="M15.75 0.724609H2.25C1.65346 0.725241 1.08153 0.960102 0.659715 1.37766C0.237896 1.79522 0.000638126 2.36137 0 2.95188V12.4973C0.000638126 13.0879 0.237896 13.654 0.659715 14.0716C1.08153 14.4891 1.65346 14.724 2.25 14.7246H15.75C16.3465 14.724 16.9185 14.4891 17.3403 14.0716C17.7621 13.654 17.9994 13.0879 18 12.4973V2.95188C17.9994 2.36137 17.7621 1.79522 17.3403 1.37766C16.9185 0.960102 16.3465 0.725241 15.75 0.724609ZM15.1803 4.40876L9.39455 8.8633C9.28173 8.95012 9.1429 8.99726 9 8.99726C8.8571 8.99726 8.71827 8.95012 8.60545 8.8633L2.81973 4.40876C2.75176 4.35794 2.69466 4.29426 2.65176 4.22141C2.60886 4.14856 2.58102 4.068 2.56984 3.98441C2.55867 3.90081 2.56439 3.81586 2.58667 3.73447C2.60895 3.65308 2.64735 3.57689 2.69964 3.51032C2.75192 3.44376 2.81705 3.38814 2.89124 3.3467C2.96543 3.30527 3.0472 3.27884 3.13179 3.26895C3.21639 3.25907 3.30212 3.26593 3.38402 3.28913C3.46591 3.31233 3.54233 3.35141 3.60884 3.4041L9 7.55478L14.3912 3.4041C14.526 3.30332 14.6954 3.25912 14.8629 3.28106C15.0304 3.303 15.1824 3.3893 15.2861 3.52132C15.3898 3.65333 15.4368 3.82044 15.417 3.98651C15.3972 4.15258 15.3122 4.30427 15.1803 4.40876Z" fill="#CCCCCC"/>
</svg>
