<svg width="25" height="25" viewBox="0 0 25 25" fill="none" xmlns="http://www.w3.org/2000/svg">
<path d="M20.2126 6.32459L19.3811 6.88016V6.88016L20.2126 6.32459ZM20.2126 16.7692L19.3811 16.2136V16.2136L20.2126 16.7692ZM19.109 17.8728L18.5534 17.0413H18.5534L19.109 17.8728ZM14.8867 18.5455L14.8824 17.5455C14.3318 17.5479 13.8867 17.9949 13.8867 18.5455H14.8867ZM14.8867 18.5469L15.7811 18.9941C15.8506 18.8552 15.8867 18.7021 15.8867 18.5469H14.8867ZM10.8867 18.5469H9.88672C9.88672 18.7021 9.92286 18.8552 9.99229 18.9941L10.8867 18.5469ZM10.8867 18.5455H11.8867C11.8867 17.9949 11.4417 17.5479 10.8911 17.5455L10.8867 18.5455ZM6.66444 17.8728L7.22001 17.0413H7.22001L6.66444 17.8728ZM5.56084 16.7692L6.39231 16.2136L6.39231 16.2136L5.56084 16.7692ZM5.56084 6.32459L6.39231 6.88016L5.56084 6.32459ZM6.66444 5.221L7.22001 6.05247L6.66444 5.221ZM19.109 5.221L18.5534 6.05247L18.5534 6.05247L19.109 5.221ZM21.8867 11.5469C21.8867 10.1632 21.8879 9.05022 21.7973 8.15952C21.705 7.25211 21.5092 6.46517 21.0441 5.76902L19.3811 6.88016C19.5901 7.19291 19.7314 7.61265 19.8076 8.36193C19.8855 9.12792 19.8867 10.1216 19.8867 11.5469H21.8867ZM21.0441 17.3247C21.5092 16.6286 21.705 15.8416 21.7973 14.9342C21.8879 14.0435 21.8867 12.9305 21.8867 11.5469H19.8867C19.8867 12.9721 19.8855 13.9658 19.8076 14.7318C19.7314 15.4811 19.5901 15.9008 19.3811 16.2136L21.0441 17.3247ZM19.6646 18.7042C20.2105 18.3394 20.6793 17.8707 21.0441 17.3247L19.3811 16.2136C19.1623 16.5412 18.881 16.8224 18.5534 17.0413L19.6646 18.7042ZM14.8911 19.5455C15.9652 19.5408 16.863 19.5207 17.6134 19.417C18.3799 19.3111 19.0566 19.1105 19.6646 18.7042L18.5534 17.0413C18.2801 17.2239 17.9245 17.355 17.3396 17.4359C16.7386 17.5189 15.966 17.5408 14.8824 17.5455L14.8911 19.5455ZM15.8867 18.5469V18.5455H13.8867V18.5469H15.8867ZM14.6756 21.2052L15.7811 18.9941L13.9923 18.0997L12.8867 20.3108L14.6756 21.2052ZM11.0979 21.2052C11.8349 22.6793 13.9385 22.6793 14.6756 21.2052L12.8867 20.3108L12.8867 20.3108L11.0979 21.2052ZM9.99229 18.9941L11.0979 21.2052L12.8867 20.3108L11.7811 18.0997L9.99229 18.9941ZM9.88672 18.5455V18.5469H11.8867V18.5455H9.88672ZM6.10887 18.7042C6.71686 19.1105 7.39357 19.3111 8.16002 19.417C8.9104 19.5207 9.80826 19.5408 10.8824 19.5455L10.8911 17.5455C9.80747 17.5408 9.03487 17.5189 8.43388 17.4359C7.84895 17.355 7.49337 17.2239 7.22001 17.0413L6.10887 18.7042ZM4.72937 17.3247C5.09416 17.8707 5.56292 18.3394 6.10887 18.7042L7.22001 17.0413C6.89244 16.8224 6.61119 16.5412 6.39231 16.2136L4.72937 17.3247ZM3.88672 11.5469C3.88672 12.9305 3.88551 14.0435 3.97612 14.9342C4.06843 15.8416 4.26422 16.6286 4.72937 17.3247L6.39231 16.2136C6.18334 15.9008 6.04207 15.4811 5.96585 14.7318C5.88793 13.9658 5.88672 12.9721 5.88672 11.5469H3.88672ZM4.72937 5.76902C4.26422 6.46517 4.06843 7.25211 3.97612 8.15952C3.88551 9.05022 3.88672 10.1632 3.88672 11.5469H5.88672C5.88672 10.1216 5.88793 9.12792 5.96585 8.36193C6.04207 7.61265 6.18334 7.19291 6.39231 6.88016L4.72937 5.76902ZM6.10887 4.38953C5.56292 4.75432 5.09416 5.22307 4.72937 5.76902L6.39231 6.88016C6.61119 6.55259 6.89244 6.27134 7.22001 6.05247L6.10887 4.38953ZM11.8867 3.54688C10.5031 3.54688 9.39006 3.54567 8.49936 3.63627C7.59195 3.72858 6.80501 3.92438 6.10887 4.38953L7.22001 6.05247C7.53276 5.84349 7.9525 5.70223 8.70177 5.62601C9.46776 5.54808 10.4614 5.54688 11.8867 5.54688V3.54688ZM13.8867 3.54688H11.8867V5.54688H13.8867V3.54688ZM19.6646 4.38953C18.9684 3.92438 18.1815 3.72858 17.2741 3.63627C16.3834 3.54567 15.2704 3.54688 13.8867 3.54688V5.54688C15.312 5.54688 16.3057 5.54808 17.0717 5.62601C17.8209 5.70223 18.2407 5.84349 18.5534 6.05247L19.6646 4.38953ZM21.0441 5.76902C20.6793 5.22307 20.2105 4.75432 19.6646 4.38953L18.5534 6.05247C18.881 6.27134 19.1623 6.55259 19.3811 6.88016L21.0441 5.76902Z" fill="rgba(54, 197, 240, 1)"/>
<circle cx="16.8867" cy="11.5469" r="1" fill="rgba(54, 197, 240, 1)" stroke="rgba(54, 197, 240, 1)" stroke-linecap="round"/>
<circle cx="12.8867" cy="11.5469" r="1" fill="rgba(54, 197, 240, 1)" stroke="rgba(54, 197, 240, 1)" stroke-linecap="round"/>
<circle cx="8.88672" cy="11.5469" r="1" fill="rgba(54, 197, 240, 1)" stroke="rgba(54, 197, 240, 1)" stroke-linecap="round"/>
</svg>
