<svg width="22" height="20" viewBox="0 0 22 20" fill="none" xmlns="http://www.w3.org/2000/svg">
<path d="M3.70312 10V1.5M3.70312 10C2.52952 10 1.57812 10.9514 1.57812 12.125C1.57812 13.2986 2.52952 14.25 3.70312 14.25M3.70312 10C4.87673 10 5.82812 10.9514 5.82812 12.125C5.82812 13.2986 4.87673 14.25 3.70312 14.25M18.5781 18.5V15.3125M18.5781 15.3125C19.7517 15.3125 20.7031 14.3611 20.7031 13.1875C20.7031 12.0139 19.7517 11.0625 18.5781 11.0625M18.5781 15.3125C17.4045 15.3125 16.4531 14.3611 16.4531 13.1875C16.4531 12.0139 17.4045 11.0625 18.5781 11.0625M3.70312 18.5V14.25M18.5781 11.0625V1.5M11.1406 4.6875V1.5M11.1406 4.6875C9.96702 4.6875 9.01562 5.63889 9.01562 6.8125C9.01562 7.98611 9.96702 8.9375 11.1406 8.9375M11.1406 4.6875C12.3142 4.6875 13.2656 5.63889 13.2656 6.8125C13.2656 7.98611 12.3142 8.9375 11.1406 8.9375M11.1406 18.5V8.9375" stroke="#1C3C84" stroke-width="1.5" stroke-linecap="round"/>
</svg>
