<svg width="150" height="36" viewBox="0 0 150 36" fill="none" xmlns="http://www.w3.org/2000/svg">
<path d="M20.7615 33.58C18.8788 32.5358 17.4005 31.0575 16.3266 29.1451C15.2527 27.2328 14.7163 25.0266 14.7163 22.5268C14.7163 20.0269 15.2681 17.8207 16.3706 15.9084C17.4743 13.996 18.9811 12.5189 20.8935 11.4735C22.8058 10.4293 24.9382 9.90723 27.2918 9.90723C29.6454 9.90723 31.7778 10.4293 33.6902 11.4735C35.6026 12.5177 37.1094 13.996 38.2131 15.9084C39.3167 17.8207 39.8674 20.0269 39.8674 22.5268C39.8674 25.0266 39.3001 27.234 38.1691 29.1451C37.0369 31.0575 35.5062 32.5358 33.5796 33.58C31.653 34.6242 29.498 35.1463 27.1158 35.1463C24.7337 35.1463 22.6441 34.6242 20.7615 33.58ZM30.271 28.9465C31.2557 28.403 32.043 27.586 32.6317 26.4978C33.2192 25.4096 33.5142 24.0859 33.5142 22.5268C33.5142 20.2029 32.9029 18.4166 31.6827 17.1654C30.4613 15.9155 28.9687 15.2899 27.2038 15.2899C25.4389 15.2899 23.9606 15.9155 22.769 17.1654C21.5773 18.4166 20.9815 20.2029 20.9815 22.5268C20.9815 24.8506 21.5618 26.6381 22.725 27.8881C23.8869 29.1392 25.3509 29.7636 27.1158 29.7636C28.2337 29.7636 29.2851 29.4924 30.271 28.9477V28.9465Z" fill="#1C3C84"/>
<path d="M52.6306 11.0534C53.9103 10.3184 55.3731 9.94971 57.0215 9.94971V14.8032C57.0215 15.7047 56.2901 16.4361 55.3886 16.4361C53.4477 16.4361 51.9836 16.8928 50.9977 17.8038C50.0118 18.7159 49.5194 20.3048 49.5194 22.5692V31.659C49.5194 33.3644 48.1363 34.7475 46.4309 34.7475C44.7254 34.7475 43.3423 33.3644 43.3423 31.659V13.3915C43.3423 11.6861 44.7254 10.3029 46.4309 10.3029H47.0707C48.4229 10.3029 49.5194 11.3994 49.5194 12.7517V14.0979C50.3139 12.804 51.3509 11.7895 52.6306 11.0534Z" fill="#1C3C84"/>
<path d="M64.783 34.0652C63.1941 33.3445 61.937 32.3669 61.0106 31.1312C60.0841 29.8956 59.5763 28.5279 59.4883 27.0282H63.6603C64.7009 27.0282 65.6524 27.5729 66.2232 28.4423C66.4468 28.7824 66.7394 29.0904 67.1009 29.3663C67.9096 29.9836 68.917 30.2928 70.1241 30.2928C71.3312 30.2928 72.2196 30.0573 72.882 29.5864C73.5433 29.1166 73.8751 28.5124 73.8751 27.7775C73.8751 26.983 73.4707 26.3872 72.662 25.99C71.8521 25.5927 70.5665 25.1586 68.8016 24.6889C66.9772 24.2477 65.4847 23.7922 64.3227 23.3212C63.1608 22.8514 62.1606 22.1295 61.3222 21.1591C60.4837 20.1886 60.0651 18.8792 60.0651 17.232C60.0651 15.8798 60.4552 14.6442 61.2342 13.525C62.0131 12.4071 63.1311 11.5247 64.5879 10.8777C66.0436 10.2307 67.7574 9.90723 69.728 9.90723C72.6406 9.90723 74.9633 10.6351 76.6996 12.0919C78.4348 13.5476 79.391 15.5111 79.5682 17.9825H75.835C74.7682 17.9825 73.7514 17.4497 73.2055 16.5327C73.0117 16.2057 72.756 15.9167 72.4408 15.6658C71.7201 15.0925 70.7568 14.8059 69.5508 14.8059C68.4329 14.8059 67.5719 15.0116 66.9701 15.4231C66.3671 15.8358 66.065 16.4091 66.065 17.144C66.065 17.9682 66.4765 18.5938 67.3007 19.0195C68.1237 19.4465 69.4034 19.8794 71.1397 20.3206C72.9046 20.7619 74.3603 21.2185 75.508 21.6883C76.6556 22.1593 77.6487 22.8871 78.486 23.873C79.3244 24.8589 79.7585 26.16 79.7882 27.7775C79.7882 29.1891 79.3981 30.4545 78.6192 31.5725C77.839 32.6904 76.7211 33.5657 75.2654 34.1984C73.8097 34.8311 72.1102 35.1475 70.1693 35.1475C68.2284 35.1475 66.3743 34.7871 64.7854 34.0664L64.783 34.0652Z" fill="#1C3C84"/>
<path d="M91.0365 19.061V31.6603C91.0365 33.3658 89.6534 34.7489 87.948 34.7489C86.2425 34.7489 84.8594 33.3658 84.8594 31.6603V22.1496C84.8594 20.4442 86.2425 19.061 87.948 19.061H91.0365Z" fill="#1C3C84"/>
<path d="M125.692 33.58C123.809 32.5358 122.331 31.0575 121.257 29.1451C120.183 27.2328 119.647 25.0266 119.647 22.5268C119.647 20.0269 120.199 17.8207 121.301 15.9084C122.405 13.996 123.912 12.5189 125.824 11.4735C127.737 10.4293 129.869 9.90723 132.223 9.90723C134.576 9.90723 136.708 10.4293 138.621 11.4735C140.533 12.5177 142.04 13.996 143.144 15.9084C144.247 17.8207 144.798 20.0269 144.798 22.5268C144.798 25.0266 144.232 27.234 143.1 29.1451C141.968 31.0575 140.437 32.5358 138.51 33.58C136.584 34.6242 134.429 35.1463 132.046 35.1463C129.664 35.1463 127.575 34.6242 125.692 33.58ZM135.2 28.9465C136.185 28.403 136.973 27.586 137.561 26.4978C138.15 25.4096 138.444 24.0859 138.444 22.5268C138.444 20.2029 137.832 18.4166 136.612 17.1654C135.391 15.9155 133.898 15.2899 132.133 15.2899C130.368 15.2899 128.89 15.9155 127.698 17.1654C126.507 18.4166 125.911 20.2029 125.911 22.5268C125.911 24.8506 126.491 26.6381 127.654 27.8881C128.816 29.1392 130.28 29.7636 132.045 29.7636C133.163 29.7636 134.215 29.4924 135.2 28.9477V28.9465Z" fill="#40BFE9"/>
<path d="M87.948 10.8706C89.6522 10.8706 91.0365 12.2549 91.0365 13.9592V17.0478H87.948C86.2437 17.0478 84.8594 15.6634 84.8594 13.9592C84.8594 12.2549 86.2437 10.8706 87.948 10.8706Z" fill="#1C3C84"/>
<path d="M108.343 34.969C105.872 34.969 103.653 34.4183 101.683 33.3159C99.7124 32.2146 98.1604 30.7113 97.0258 28.8085C95.89 26.9056 95.3228 24.7696 95.3228 22.3982C95.3228 20.0268 95.89 17.8409 97.0258 15.938C98.1604 14.0351 99.7219 12.5247 101.708 11.4056C103.694 10.2877 105.906 9.72754 108.343 9.72754C110.246 9.72754 111.999 10.0784 113.601 10.7789C115.203 11.4806 116.588 12.4819 117.757 13.783L115.391 16.1782C114.466 17.1142 113.031 17.3485 111.873 16.7241C111.679 16.6195 111.479 16.5243 111.272 16.4387C110.387 16.0712 109.411 15.8881 108.343 15.8881C107.141 15.8881 106.064 16.164 105.113 16.7146C104.162 17.2652 103.41 18.0169 102.859 18.9683C102.309 19.9197 102.033 21.0472 102.033 22.3483C102.033 23.6493 102.309 24.7447 102.859 25.7282C103.41 26.7129 104.162 27.4812 105.113 28.0319C106.064 28.5825 107.141 28.8584 108.343 28.8584C109.444 28.8584 110.437 28.6669 111.322 28.2828C111.53 28.1924 111.731 28.0925 111.925 27.9831C113.086 27.3278 114.544 27.549 115.486 28.4909L117.857 30.8624C116.622 32.1979 115.203 33.216 113.601 33.9176C111.999 34.6193 110.246 34.969 108.343 34.969Z" fill="#1C3C84"/>
<path d="M146.447 11.2142C148.409 11.2142 150 9.62371 150 7.66178C150 5.69984 148.409 4.10938 146.447 4.10938C144.485 4.10938 142.895 5.69984 142.895 7.66178C142.895 9.62371 144.485 11.2142 146.447 11.2142Z" fill="#E61E5B"/>
<path d="M3.13734 32.2169V16.353H2.94943C1.32011 16.353 0 15.0329 0 13.4036V11.9907H3.13853V11.006C3.13853 8.00778 3.94487 4.98937 5.95 3.0877C7.66496 1.45956 9.97812 0.853027 12.0106 0.853027C12.5827 0.853027 13.1143 0.887515 13.6019 0.948169C14.7817 1.09326 15.6593 2.1767 15.5523 3.36123L15.5392 3.51108C15.431 4.69561 14.4058 5.56855 13.2177 5.51622C13.0917 5.51028 12.9609 5.5079 12.8241 5.5079C9.92579 5.5079 8.95771 7.94475 8.95771 10.7812V11.9907H11.8394C13.0441 11.9907 14.0205 12.9671 14.0205 14.1719C14.0205 15.3766 13.0441 16.353 11.8394 16.353H8.99815V32.2169C8.99815 33.8343 7.68636 35.1461 6.06893 35.1461C4.4515 35.1461 3.13972 33.8343 3.13972 32.2169H3.13734Z" fill="#1C3C84"/>
</svg>
