<svg width="150" height="35" viewBox="0 0 150 35" fill="none" xmlns="http://www.w3.org/2000/svg">
<path d="M20.7615 33.0795C18.8788 32.0353 17.4005 30.557 16.3266 28.6447C15.2527 26.7323 14.7163 24.5261 14.7163 22.0263C14.7163 19.5264 15.2681 17.3203 16.3706 15.4079C17.4743 13.4955 18.9811 12.0184 20.8935 10.973C22.8058 9.92884 24.9382 9.40674 27.2918 9.40674C29.6454 9.40674 31.7778 9.92884 33.6902 10.973C35.6026 12.0172 37.1094 13.4955 38.2131 15.4079C39.3167 17.3203 39.8674 19.5264 39.8674 22.0263C39.8674 24.5261 39.3001 26.7335 38.1691 28.6447C37.0369 30.557 35.5062 32.0353 33.5796 33.0795C31.653 34.1237 29.498 34.6458 27.1158 34.6458C24.7337 34.6458 22.6441 34.1237 20.7615 33.0795ZM30.271 28.446C31.2557 27.9025 32.043 27.0855 32.6317 25.9973C33.2192 24.9091 33.5142 23.5854 33.5142 22.0263C33.5142 19.7024 32.9029 17.9161 31.6827 16.665C30.4613 15.415 28.9687 14.7895 27.2038 14.7895C25.4389 14.7895 23.9606 15.415 22.769 16.665C21.5773 17.9161 20.9815 19.7024 20.9815 22.0263C20.9815 24.3501 21.5618 26.1376 22.725 27.3876C23.8869 28.6387 25.3509 29.2631 27.1158 29.2631C28.2337 29.2631 29.2851 28.9919 30.271 28.4472V28.446Z" fill="white"/>
<path d="M52.6306 10.5534C53.9103 9.81839 55.3731 9.44971 57.0215 9.44971V14.3032C57.0215 15.2047 56.2901 15.9361 55.3886 15.9361C53.4477 15.9361 51.9836 16.3928 50.9977 17.3038C50.0118 18.2159 49.5194 19.8048 49.5194 22.0692V31.159C49.5194 32.8644 48.1363 34.2475 46.4309 34.2475C44.7254 34.2475 43.3423 32.8644 43.3423 31.159V12.8915C43.3423 11.1861 44.7254 9.80293 46.4309 9.80293H47.0707C48.4229 9.80293 49.5194 10.8994 49.5194 12.2517V13.5979C50.3139 12.304 51.3509 11.2895 52.6306 10.5534Z" fill="white"/>
<path d="M64.783 33.5647C63.1941 32.844 61.937 31.8664 61.0106 30.6308C60.0841 29.3951 59.5763 28.0274 59.4883 26.5277H63.6603C64.7009 26.5277 65.6524 27.0724 66.2232 27.9418C66.4468 28.2819 66.7394 28.5899 67.1009 28.8659C67.9096 29.4831 68.917 29.7923 70.1241 29.7923C71.3312 29.7923 72.2196 29.5568 72.882 29.0859C73.5433 28.6161 73.8751 28.0119 73.8751 27.277C73.8751 26.4825 73.4707 25.8867 72.662 25.4895C71.8521 25.0922 70.5665 24.6582 68.8016 24.1884C66.9772 23.7472 65.4847 23.2917 64.3227 22.8207C63.1608 22.3509 62.1606 21.629 61.3222 20.6586C60.4837 19.6881 60.0651 18.3787 60.0651 16.7316C60.0651 15.3793 60.4552 14.1437 61.2342 13.0246C62.0131 11.9066 63.1311 11.0242 64.5879 10.3772C66.0436 9.73022 67.7574 9.40674 69.728 9.40674C72.6406 9.40674 74.9633 10.1346 76.6996 11.5915C78.4348 13.0471 79.391 15.0107 79.5682 17.482H75.835C74.7682 17.482 73.7514 16.9492 73.2055 16.0323C73.0117 15.7052 72.756 15.4162 72.4408 15.1653C71.7201 14.592 70.7568 14.3054 69.5508 14.3054C68.4329 14.3054 67.5719 14.5112 66.9701 14.9227C66.3671 15.3353 66.065 15.9086 66.065 16.6436C66.065 17.4677 66.4765 18.0933 67.3007 18.5191C68.1237 18.946 69.4034 19.3789 71.1397 19.8201C72.9046 20.2614 74.3603 20.7181 75.508 21.1878C76.6556 21.6588 77.6487 22.3866 78.486 23.3725C79.3244 24.3585 79.7585 25.6595 79.7882 27.277C79.7882 28.6887 79.3981 29.9541 78.6192 31.072C77.839 32.1899 76.7211 33.0652 75.2654 33.6979C73.8097 34.3306 72.1102 34.647 70.1693 34.647C68.2284 34.647 66.3743 34.2866 64.7854 33.5659L64.783 33.5647Z" fill="white"/>
<path d="M91.0365 18.5608V31.1601C91.0365 32.8655 89.6534 34.2487 87.948 34.2487C86.2425 34.2487 84.8594 32.8655 84.8594 31.1601V21.6494C84.8594 19.9439 86.2425 18.5608 87.948 18.5608H91.0365Z" fill="white"/>
<path d="M125.692 33.0795C123.809 32.0353 122.331 30.557 121.257 28.6447C120.183 26.7323 119.647 24.5261 119.647 22.0263C119.647 19.5264 120.199 17.3203 121.301 15.4079C122.405 13.4955 123.912 12.0184 125.824 10.973C127.737 9.92884 129.869 9.40674 132.223 9.40674C134.576 9.40674 136.708 9.92884 138.621 10.973C140.533 12.0172 142.04 13.4955 143.144 15.4079C144.247 17.3203 144.798 19.5264 144.798 22.0263C144.798 24.5261 144.232 26.7335 143.1 28.6447C141.968 30.557 140.437 32.0353 138.51 33.0795C136.584 34.1237 134.429 34.6458 132.046 34.6458C129.664 34.6458 127.575 34.1237 125.692 33.0795ZM135.2 28.446C136.185 27.9025 136.973 27.0855 137.561 25.9973C138.15 24.9091 138.444 23.5854 138.444 22.0263C138.444 19.7024 137.832 17.9161 136.612 16.665C135.391 15.415 133.898 14.7895 132.133 14.7895C130.368 14.7895 128.89 15.415 127.698 16.665C126.507 17.9161 125.911 19.7024 125.911 22.0263C125.911 24.3501 126.491 26.1376 127.654 27.3876C128.816 28.6387 130.28 29.2631 132.045 29.2631C133.163 29.2631 134.215 28.9919 135.2 28.4472V28.446Z" fill="#40BFE9"/>
<path d="M87.948 10.3701C89.6522 10.3701 91.0365 11.7544 91.0365 13.4587V16.5473H87.948C86.2437 16.5473 84.8594 15.1629 84.8594 13.4587C84.8594 11.7544 86.2437 10.3701 87.948 10.3701Z" fill="white"/>
<path d="M108.343 34.4687C105.872 34.4687 103.653 33.9181 101.683 32.8156C99.7124 31.7143 98.1604 30.2111 97.0258 28.3082C95.89 26.4054 95.3228 24.2694 95.3228 21.898C95.3228 19.5265 95.89 17.3406 97.0258 15.4378C98.1604 13.5349 99.7219 12.0245 101.708 10.9054C103.694 9.78745 105.906 9.22729 108.343 9.22729C110.246 9.22729 111.999 9.57814 113.601 10.2786C115.203 10.9803 116.588 11.9817 117.757 13.2828L115.391 15.678C114.466 16.614 113.031 16.8483 111.873 16.2239C111.679 16.1192 111.479 16.0241 111.272 15.9384C110.387 15.571 109.411 15.3878 108.343 15.3878C107.141 15.3878 106.064 15.6637 105.113 16.2144C104.162 16.765 103.41 17.5166 102.859 18.4681C102.309 19.4195 102.033 20.5469 102.033 21.848C102.033 23.1491 102.309 24.2444 102.859 25.228C103.41 26.2127 104.162 26.981 105.113 27.5316C106.064 28.0823 107.141 28.3582 108.343 28.3582C109.444 28.3582 110.437 28.1667 111.322 27.7826C111.53 27.6922 111.731 27.5923 111.925 27.4829C113.086 26.8276 114.544 27.0488 115.486 27.9907L117.857 30.3621C116.622 31.6977 115.203 32.7157 113.601 33.4174C111.999 34.1191 110.246 34.4687 108.343 34.4687Z" fill="white"/>
<path d="M146.447 10.7139C148.409 10.7139 150 9.12347 150 7.16153C150 5.19959 148.409 3.60913 146.447 3.60913C144.485 3.60913 142.895 5.19959 142.895 7.16153C142.895 9.12347 144.485 10.7139 146.447 10.7139Z" fill="#E61E5B"/>
<path d="M3.13734 31.7167V15.8528H2.94943C1.32011 15.8528 0 14.5327 0 12.9033V11.4905H3.13853V10.5057C3.13853 7.50753 3.94487 4.48912 5.95 2.58745C7.66496 0.959319 9.97812 0.352783 12.0106 0.352783C12.5827 0.352783 13.1143 0.387271 13.6019 0.447925C14.7817 0.593018 15.6593 1.67646 15.5523 2.86099L15.5392 3.01084C15.431 4.19537 14.4058 5.06831 13.2177 5.01598C13.0917 5.01003 12.9609 5.00765 12.8241 5.00765C9.92579 5.00765 8.95771 7.4445 8.95771 10.281V11.4905H11.8394C13.0441 11.4905 14.0205 12.4669 14.0205 13.6716C14.0205 14.8764 13.0441 15.8528 11.8394 15.8528H8.99815V31.7167C8.99815 33.3341 7.68636 34.6459 6.06893 34.6459C4.4515 34.6459 3.13972 33.3341 3.13972 31.7167H3.13734Z" fill="white"/>
</svg>
