<svg width="33" height="32" viewBox="0 0 33 32" fill="none" xmlns="http://www.w3.org/2000/svg">
<path d="M16.5185 7.66751C13.4844 7.66751 11.0185 10.1333 11.0185 13.1675V15.8167C11.0185 16.3758 10.7802 17.2283 10.496 17.705L9.44187 19.4558C8.79104 20.5375 9.2402 21.7383 10.4319 22.1417C14.3827 23.4617 18.6452 23.4617 22.596 22.1417C23.7052 21.775 24.191 20.4642 23.586 19.4558L22.5319 17.705C22.2569 17.2283 22.0185 16.3758 22.0185 15.8167V13.1675C22.0185 10.1425 19.5435 7.66751 16.5185 7.66751Z" fill="white"/>
<path d="M18.2139 7.93332C17.9298 7.85082 17.6364 7.78665 17.3339 7.74999C16.4539 7.63999 15.6106 7.70415 14.8223 7.93332C15.0881 7.25499 15.7481 6.77832 16.5181 6.77832C17.2881 6.77832 17.9481 7.25499 18.2139 7.93332Z" fill="white"/>
<path d="M19.2686 22.4717C19.2686 23.9842 18.0311 25.2217 16.5186 25.2217C15.7669 25.2217 15.0702 24.91 14.5752 24.415C14.0802 23.92 13.7686 23.2233 13.7686 22.4717" fill="white"/>
<circle cx="22.5" cy="10" r="3.5" fill="#ED1E5A" stroke="#1C3C84"/>
</svg>
