<svg width="1252" height="378" viewBox="0 0 1252 378" fill="none" xmlns="http://www.w3.org/2000/svg">
<rect x="50" width="342" height="46" rx="15" fill="#1C3C84"/>
<path d="M80.3022 19.5621C80.1306 19.0236 79.8997 18.5412 79.6097 18.1151C79.3256 17.683 78.9853 17.3161 78.5888 17.0142C78.1922 16.7064 77.7395 16.4727 77.2305 16.3129C76.7274 16.1531 76.174 16.0732 75.5703 16.0732C74.5464 16.0732 73.6231 16.3365 72.8004 16.8633C71.9777 17.39 71.3267 18.1624 70.8473 19.1804C70.3738 20.1925 70.1371 21.4324 70.1371 22.9002C70.1371 24.3739 70.3768 25.6198 70.8562 26.6378C71.3356 27.6558 71.9925 28.4281 72.8271 28.9549C73.6616 29.4817 74.6115 29.745 75.6768 29.745C76.6652 29.745 77.5264 29.5438 78.2603 29.1413C79.0001 28.7389 79.5713 28.1707 79.9737 27.4368C80.3821 26.697 80.5863 25.8269 80.5863 24.8267L81.2965 24.9599H76.0941V22.696H83.2408V24.7646C83.2408 26.2915 82.9152 27.6173 82.2642 28.7418C81.6191 29.8604 80.7254 30.7246 79.5831 31.3342C78.4467 31.9438 77.1446 32.2486 75.6768 32.2486C74.0315 32.2486 72.5874 31.8698 71.3445 31.1122C70.1075 30.3546 69.1428 29.2804 68.4503 27.8896C67.7578 26.4928 67.4116 24.8356 67.4116 22.918C67.4116 21.4679 67.6128 20.1658 68.0153 19.0117C68.4177 17.8576 68.983 16.8781 69.7109 16.0732C70.4448 15.2623 71.306 14.6438 72.2944 14.2177C73.2887 13.7856 74.3748 13.5696 75.5526 13.5696C76.535 13.5696 77.4495 13.7146 78.2958 14.0046C79.1481 14.2946 79.9057 14.706 80.5685 15.2386C81.2373 15.7713 81.7907 16.4046 82.2287 17.1385C82.6667 17.8665 82.9626 18.6744 83.1165 19.5621H80.3022ZM92.3872 32.2752C91.0436 32.2752 89.8866 31.9882 88.9159 31.4141C87.9512 30.834 87.2055 30.0202 86.6787 28.9727C86.1579 27.9192 85.8975 26.6851 85.8975 25.2706C85.8975 23.8738 86.1579 22.6428 86.6787 21.5774C87.2055 20.5121 87.9394 19.6805 88.8804 19.0827C89.8274 18.485 90.9342 18.1861 92.2007 18.1861C92.9701 18.1861 93.7159 18.3133 94.4379 18.5678C95.16 18.8223 95.8081 19.2218 96.3822 19.7663C96.9563 20.3108 97.4091 21.0181 97.7405 21.8881C98.0719 22.7522 98.2377 23.8028 98.2377 25.0398V25.9808H87.3978V23.9922H95.6365C95.6365 23.2938 95.4944 22.6753 95.2103 22.1367C94.9262 21.5922 94.5267 21.1631 94.0118 20.8494C93.5028 20.5357 92.905 20.3789 92.2185 20.3789C91.4727 20.3789 90.8217 20.5624 90.2654 20.9293C89.7149 21.2904 89.2888 21.7638 88.9869 22.3498C88.691 22.9298 88.5431 23.5601 88.5431 24.2408V25.7944C88.5431 26.7058 88.7029 27.4812 89.0225 28.1204C89.348 28.7596 89.8008 29.2479 90.3808 29.5852C90.9608 29.9167 91.6385 30.0824 92.4138 30.0824C92.9169 30.0824 93.3756 30.0114 93.7899 29.8693C94.2042 29.7214 94.5622 29.5024 94.8641 29.2124C95.1659 28.9223 95.3968 28.5643 95.5566 28.1381L98.069 28.5909C97.8677 29.3307 97.5067 29.9788 96.9859 30.5352C96.471 31.0856 95.8229 31.5147 95.0416 31.8224C94.2663 32.1243 93.3815 32.2752 92.3872 32.2752ZM103.837 23.9034V32H101.183V18.3636H103.731V20.5831H103.9C104.213 19.861 104.704 19.281 105.373 18.843C106.048 18.4051 106.897 18.1861 107.921 18.1861C108.85 18.1861 109.664 18.3814 110.363 18.772C111.061 19.1567 111.603 19.7308 111.987 20.4943C112.372 21.2578 112.564 22.2018 112.564 23.3263V32H109.91V23.646C109.91 22.6576 109.652 21.8852 109.137 21.3288C108.623 20.7666 107.915 20.4854 107.016 20.4854C106.4 20.4854 105.853 20.6186 105.373 20.8849C104.9 21.1513 104.524 21.5419 104.246 22.0568C103.973 22.5658 103.837 23.1813 103.837 23.9034ZM122.001 32.2752C120.658 32.2752 119.501 31.9882 118.53 31.4141C117.565 30.834 116.82 30.0202 116.293 28.9727C115.772 27.9192 115.512 26.6851 115.512 25.2706C115.512 23.8738 115.772 22.6428 116.293 21.5774C116.82 20.5121 117.554 19.6805 118.495 19.0827C119.442 18.485 120.548 18.1861 121.815 18.1861C122.584 18.1861 123.33 18.3133 124.052 18.5678C124.774 18.8223 125.422 19.2218 125.996 19.7663C126.571 20.3108 127.023 21.0181 127.355 21.8881C127.686 22.7522 127.852 23.8028 127.852 25.0398V25.9808H117.012V23.9922H125.251C125.251 23.2938 125.109 22.6753 124.825 22.1367C124.54 21.5922 124.141 21.1631 123.626 20.8494C123.117 20.5357 122.519 20.3789 121.833 20.3789C121.087 20.3789 120.436 20.5624 119.88 20.9293C119.329 21.2904 118.903 21.7638 118.601 22.3498C118.305 22.9298 118.157 23.5601 118.157 24.2408V25.7944C118.157 26.7058 118.317 27.4812 118.637 28.1204C118.962 28.7596 119.415 29.2479 119.995 29.5852C120.575 29.9167 121.253 30.0824 122.028 30.0824C122.531 30.0824 122.99 30.0114 123.404 29.8693C123.818 29.7214 124.176 29.5024 124.478 29.2124C124.78 28.9223 125.011 28.5643 125.171 28.1381L127.683 28.5909C127.482 29.3307 127.121 29.9788 126.6 30.5352C126.085 31.0856 125.437 31.5147 124.656 31.8224C123.881 32.1243 122.996 32.2752 122.001 32.2752ZM130.797 32V18.3636H133.363V20.5298H133.505C133.753 19.7959 134.191 19.2189 134.819 18.7987C135.452 18.3725 136.168 18.1594 136.967 18.1594C137.133 18.1594 137.328 18.1654 137.553 18.1772C137.784 18.189 137.965 18.2038 138.095 18.2216V20.7607C137.988 20.7311 137.799 20.6985 137.527 20.663C137.254 20.6216 136.982 20.6009 136.71 20.6009C136.082 20.6009 135.523 20.734 135.032 21.0004C134.547 21.2608 134.162 21.6248 133.878 22.0923C133.594 22.554 133.452 23.0807 133.452 23.6726V32H130.797ZM144.238 32.3018C143.374 32.3018 142.593 32.142 141.894 31.8224C141.196 31.4969 140.643 31.0264 140.234 30.4109C139.832 29.7953 139.631 29.0407 139.631 28.147C139.631 27.3776 139.779 26.7443 140.074 26.2472C140.37 25.75 140.77 25.3564 141.273 25.0664C141.776 24.7764 142.338 24.5574 142.96 24.4094C143.581 24.2615 144.215 24.149 144.86 24.0721C145.676 23.9774 146.339 23.9004 146.848 23.8413C147.357 23.7762 147.727 23.6726 147.958 23.5305C148.189 23.3885 148.304 23.1577 148.304 22.8381V22.7759C148.304 22.0006 148.085 21.3999 147.647 20.9737C147.215 20.5476 146.57 20.3345 145.712 20.3345C144.818 20.3345 144.114 20.5328 143.599 20.9293C143.09 21.32 142.738 21.755 142.543 22.2344L140.048 21.6662C140.344 20.8376 140.776 20.1688 141.344 19.6598C141.918 19.1449 142.578 18.772 143.324 18.5412C144.07 18.3045 144.854 18.1861 145.676 18.1861C146.221 18.1861 146.798 18.2512 147.408 18.3814C148.023 18.5057 148.597 18.7365 149.13 19.0739C149.668 19.4112 150.109 19.8936 150.453 20.521C150.796 21.1424 150.968 21.9503 150.968 22.9446V32H148.375V30.1357H148.269C148.097 30.4789 147.84 30.8163 147.496 31.1477C147.153 31.4792 146.712 31.7544 146.174 31.9734C145.635 32.1924 144.99 32.3018 144.238 32.3018ZM144.815 30.1712C145.549 30.1712 146.177 30.0262 146.697 29.7362C147.224 29.4461 147.624 29.0674 147.896 28.5998C148.174 28.1263 148.313 27.6203 148.313 27.0817V25.3239C148.218 25.4186 148.035 25.5073 147.763 25.5902C147.496 25.6671 147.192 25.7352 146.848 25.7944C146.505 25.8477 146.171 25.898 145.845 25.9453C145.52 25.9867 145.247 26.0223 145.028 26.0518C144.513 26.117 144.043 26.2264 143.617 26.3803C143.197 26.5342 142.859 26.7562 142.605 27.0462C142.356 27.3303 142.232 27.709 142.232 28.1825C142.232 28.8395 142.474 29.3366 142.96 29.674C143.445 30.0054 144.064 30.1712 144.815 30.1712ZM157.158 13.8182V32H154.503V13.8182H157.158Z" fill="white"/>
<g filter="url(#filter0_d_724_721)">
<rect x="50" y="64" width="342" height="182" rx="15" fill="white" shape-rendering="crispEdges"/>
<path d="M80.098 89.5469H76.9872C76.9304 89.1444 76.8144 88.7869 76.6392 88.4744C76.464 88.1572 76.2391 87.8873 75.9645 87.6648C75.6899 87.4422 75.3726 87.2718 75.0128 87.1534C74.6577 87.035 74.2718 86.9759 73.8551 86.9759C73.1023 86.9759 72.4465 87.1629 71.8878 87.5369C71.3291 87.9062 70.8958 88.446 70.5881 89.1562C70.2803 89.8617 70.1264 90.7187 70.1264 91.7273C70.1264 92.7642 70.2803 93.6354 70.5881 94.3409C70.9006 95.0464 71.3362 95.5791 71.8949 95.9389C72.4536 96.2988 73.0999 96.4787 73.8338 96.4787C74.2457 96.4787 74.6269 96.4242 74.9773 96.3153C75.3324 96.2064 75.6473 96.0478 75.9219 95.8395C76.1965 95.6264 76.4238 95.3684 76.6037 95.0653C76.7884 94.7623 76.9162 94.4167 76.9872 94.0284L80.098 94.0426C80.0175 94.7102 79.8163 95.3542 79.4943 95.9744C79.1771 96.59 78.7486 97.1416 78.2088 97.6293C77.6738 98.1122 77.0346 98.4957 76.2912 98.7798C75.5526 99.0592 74.7169 99.1989 73.7841 99.1989C72.4867 99.1989 71.3267 98.9053 70.304 98.3182C69.286 97.7311 68.4811 96.8812 67.8892 95.7685C67.3021 94.6558 67.0085 93.3087 67.0085 91.7273C67.0085 90.1411 67.3068 88.7917 67.9034 87.679C68.5 86.5663 69.3097 85.7187 70.3324 85.1364C71.3551 84.5492 72.5057 84.2557 73.7841 84.2557C74.6269 84.2557 75.4081 84.3741 76.1278 84.6108C76.8523 84.8475 77.4938 85.1932 78.0526 85.6477C78.6113 86.0975 79.0658 86.6491 79.4162 87.3026C79.7713 87.956 79.9986 88.7041 80.098 89.5469ZM82.2464 99V88.0909H85.1797V89.9943H85.2933C85.4922 89.3172 85.826 88.8059 86.2947 88.4602C86.7635 88.1098 87.3033 87.9347 87.9141 87.9347C88.0656 87.9347 88.2289 87.9441 88.4041 87.9631C88.5793 87.982 88.7332 88.008 88.8658 88.0412V90.7259C88.7237 90.6832 88.5272 90.6454 88.2763 90.6122C88.0253 90.5791 87.7957 90.5625 87.5874 90.5625C87.1423 90.5625 86.7446 90.6596 86.3942 90.8537C86.0485 91.0431 85.7739 91.3082 85.5703 91.6491C85.3714 91.9901 85.272 92.383 85.272 92.8281V99H82.2464ZM94.8938 99.2131C93.7717 99.2131 92.8058 98.9858 91.9961 98.5312C91.1912 98.072 90.5709 97.4233 90.1353 96.5852C89.6997 95.7424 89.4819 94.7457 89.4819 93.5952C89.4819 92.473 89.6997 91.4882 90.1353 90.6406C90.5709 89.7931 91.1841 89.1326 91.9748 88.6591C92.7702 88.1856 93.703 87.9489 94.7731 87.9489C95.4928 87.9489 96.1628 88.0649 96.783 88.2969C97.408 88.5241 97.9525 88.8674 98.4165 89.3267C98.8853 89.786 99.2499 90.3636 99.5103 91.0597C99.7707 91.7509 99.9009 92.5606 99.9009 93.4886V94.3196H90.6893V92.4446H97.0529C97.0529 92.009 96.9582 91.6231 96.7688 91.2869C96.5794 90.9508 96.3166 90.688 95.9805 90.4986C95.649 90.3045 95.2631 90.2074 94.8228 90.2074C94.3635 90.2074 93.9563 90.3139 93.6012 90.527C93.2508 90.7353 92.9762 91.017 92.7773 91.3722C92.5785 91.7225 92.4767 92.1132 92.4719 92.544V94.3267C92.4719 94.8665 92.5714 95.3329 92.7702 95.7259C92.9738 96.1188 93.2603 96.4219 93.6296 96.6349C93.9989 96.848 94.4369 96.9545 94.9435 96.9545C95.2797 96.9545 95.5875 96.9072 95.8668 96.8125C96.1462 96.7178 96.3853 96.5758 96.5842 96.3864C96.783 96.197 96.9345 95.965 97.0387 95.6903L99.837 95.875C99.695 96.5473 99.4038 97.1345 98.9634 97.6364C98.5278 98.1335 97.9644 98.5218 97.2731 98.8011C96.5865 99.0758 95.7934 99.2131 94.8938 99.2131ZM104.986 99.206C104.29 99.206 103.67 99.0852 103.125 98.8438C102.581 98.5975 102.15 98.2353 101.833 97.7571C101.52 97.2741 101.364 96.6728 101.364 95.9531C101.364 95.3471 101.475 94.8381 101.698 94.4261C101.92 94.0142 102.223 93.6828 102.607 93.4318C102.99 93.1809 103.426 92.9915 103.914 92.8636C104.406 92.7358 104.922 92.6458 105.462 92.5938C106.096 92.5275 106.608 92.4659 106.996 92.4091C107.384 92.3475 107.666 92.2576 107.841 92.1392C108.016 92.0208 108.104 91.8456 108.104 91.6136V91.571C108.104 91.1212 107.962 90.7732 107.678 90.527C107.399 90.2808 107.001 90.1577 106.485 90.1577C105.94 90.1577 105.507 90.2784 105.185 90.5199C104.863 90.7566 104.65 91.0549 104.546 91.4148L101.748 91.1875C101.89 90.5246 102.169 89.9517 102.586 89.4688C103.002 88.9811 103.54 88.607 104.198 88.3466C104.861 88.0814 105.628 87.9489 106.499 87.9489C107.105 87.9489 107.685 88.0199 108.239 88.1619C108.798 88.304 109.292 88.5241 109.723 88.8224C110.159 89.1207 110.502 89.5043 110.753 89.973C111.004 90.437 111.13 90.9934 111.13 91.642V99H108.26V97.4872H108.175C108 97.8281 107.766 98.1288 107.472 98.3892C107.178 98.6449 106.826 98.8461 106.414 98.9929C106.002 99.1349 105.526 99.206 104.986 99.206ZM105.853 97.1179C106.298 97.1179 106.691 97.0303 107.032 96.8551C107.373 96.6752 107.64 96.4337 107.834 96.1307C108.028 95.8277 108.125 95.4844 108.125 95.1009V93.9432C108.031 94.0047 107.9 94.0616 107.735 94.1136C107.574 94.161 107.391 94.206 107.188 94.2486C106.984 94.2865 106.781 94.322 106.577 94.3551C106.373 94.3835 106.189 94.4096 106.023 94.4332C105.668 94.4853 105.358 94.5682 105.093 94.6818C104.828 94.7955 104.622 94.9493 104.475 95.1435C104.328 95.3329 104.255 95.5696 104.255 95.8537C104.255 96.2656 104.404 96.5805 104.702 96.7983C105.005 97.0114 105.389 97.1179 105.853 97.1179ZM119.279 88.0909V90.3636H112.71V88.0909H119.279ZM114.201 85.4773H117.227V95.6477C117.227 95.9271 117.27 96.1449 117.355 96.3011C117.44 96.4527 117.558 96.5592 117.71 96.6207C117.866 96.6823 118.046 96.7131 118.25 96.7131C118.392 96.7131 118.534 96.7012 118.676 96.6776C118.818 96.6491 118.927 96.6278 119.002 96.6136L119.478 98.8651C119.327 98.9124 119.114 98.9669 118.839 99.0284C118.565 99.0947 118.231 99.1349 117.838 99.1491C117.109 99.1776 116.469 99.0805 115.92 98.858C115.376 98.6354 114.952 98.2898 114.649 97.821C114.346 97.3523 114.197 96.7604 114.201 96.0455V85.4773ZM126.105 99.2131C124.983 99.2131 124.017 98.9858 123.207 98.5312C122.402 98.072 121.782 97.4233 121.346 96.5852C120.911 95.7424 120.693 94.7457 120.693 93.5952C120.693 92.473 120.911 91.4882 121.346 90.6406C121.782 89.7931 122.395 89.1326 123.186 88.6591C123.981 88.1856 124.914 87.9489 125.984 87.9489C126.704 87.9489 127.374 88.0649 127.994 88.2969C128.619 88.5241 129.163 88.8674 129.627 89.3267C130.096 89.786 130.461 90.3636 130.721 91.0597C130.982 91.7509 131.112 92.5606 131.112 93.4886V94.3196H121.9V92.4446H128.264C128.264 92.009 128.169 91.6231 127.98 91.2869C127.79 90.9508 127.528 90.688 127.191 90.4986C126.86 90.3045 126.474 90.2074 126.034 90.2074C125.574 90.2074 125.167 90.3139 124.812 90.527C124.462 90.7353 124.187 91.017 123.988 91.3722C123.789 91.7225 123.688 92.1132 123.683 92.544V94.3267C123.683 94.8665 123.782 95.3329 123.981 95.7259C124.185 96.1188 124.471 96.4219 124.841 96.6349C125.21 96.848 125.648 96.9545 126.154 96.9545C126.491 96.9545 126.798 96.9072 127.078 96.8125C127.357 96.7178 127.596 96.5758 127.795 96.3864C127.994 96.197 128.145 95.965 128.25 95.6903L131.048 95.875C130.906 96.5473 130.615 97.1345 130.174 97.6364C129.739 98.1335 129.175 98.5218 128.484 98.8011C127.797 99.0758 127.004 99.2131 126.105 99.2131ZM141.735 99.1776C140.906 99.1776 140.156 98.9645 139.484 98.5384C138.816 98.1075 138.286 97.4754 137.893 96.642C137.504 95.804 137.31 94.7765 137.31 93.5597C137.31 92.3097 137.512 91.2704 137.914 90.4418C138.317 89.6084 138.852 88.9858 139.519 88.5739C140.192 88.1572 140.928 87.9489 141.728 87.9489C142.339 87.9489 142.848 88.053 143.255 88.2614C143.667 88.465 143.998 88.7206 144.249 89.0284C144.505 89.3314 144.699 89.6297 144.832 89.9233H144.924V84.4545H147.942V99H144.96V97.2528H144.832C144.69 97.5559 144.488 97.8565 144.228 98.1548C143.972 98.4484 143.638 98.6922 143.227 98.8864C142.819 99.0805 142.322 99.1776 141.735 99.1776ZM142.694 96.7699C143.182 96.7699 143.594 96.6373 143.93 96.3722C144.271 96.1023 144.531 95.7259 144.711 95.2429C144.896 94.7599 144.988 94.1941 144.988 93.5455C144.988 92.8968 144.898 92.3333 144.718 91.8551C144.538 91.3769 144.278 91.0076 143.937 90.7472C143.596 90.4867 143.182 90.3565 142.694 90.3565C142.197 90.3565 141.778 90.4915 141.437 90.7614C141.096 91.0312 140.838 91.4053 140.663 91.8835C140.487 92.3617 140.4 92.9157 140.4 93.5455C140.4 94.1799 140.487 94.741 140.663 95.2287C140.843 95.7116 141.101 96.0904 141.437 96.3651C141.778 96.6349 142.197 96.7699 142.694 96.7699ZM155.402 99.2131C154.279 99.2131 153.314 98.9858 152.504 98.5312C151.699 98.072 151.079 97.4233 150.643 96.5852C150.208 95.7424 149.99 94.7457 149.99 93.5952C149.99 92.473 150.208 91.4882 150.643 90.6406C151.079 89.7931 151.692 89.1326 152.483 88.6591C153.278 88.1856 154.211 87.9489 155.281 87.9489C156.001 87.9489 156.671 88.0649 157.291 88.2969C157.916 88.5241 158.46 88.8674 158.924 89.3267C159.393 89.786 159.758 90.3636 160.018 91.0597C160.279 91.7509 160.409 92.5606 160.409 93.4886V94.3196H151.197V92.4446H157.561C157.561 92.009 157.466 91.6231 157.277 91.2869C157.087 90.9508 156.824 90.688 156.488 90.4986C156.157 90.3045 155.771 90.2074 155.331 90.2074C154.871 90.2074 154.464 90.3139 154.109 90.527C153.759 90.7353 153.484 91.017 153.285 91.3722C153.086 91.7225 152.984 92.1132 152.98 92.544V94.3267C152.98 94.8665 153.079 95.3329 153.278 95.7259C153.482 96.1188 153.768 96.4219 154.137 96.6349C154.507 96.848 154.945 96.9545 155.451 96.9545C155.788 96.9545 156.095 96.9072 156.375 96.8125C156.654 96.7178 156.893 96.5758 157.092 96.3864C157.291 96.197 157.442 95.965 157.547 95.6903L160.345 95.875C160.203 96.5473 159.912 97.1345 159.471 97.6364C159.036 98.1335 158.472 98.5218 157.781 98.8011C157.094 99.0758 156.301 99.2131 155.402 99.2131ZM171.46 91.2017L168.69 91.3722C168.643 91.1354 168.541 90.9223 168.385 90.733C168.228 90.5388 168.022 90.3849 167.767 90.2713C167.516 90.1529 167.215 90.0938 166.865 90.0938C166.396 90.0938 166.001 90.1932 165.679 90.392C165.357 90.5862 165.196 90.8466 165.196 91.1733C165.196 91.4337 165.3 91.6539 165.508 91.8338C165.717 92.0137 166.074 92.1581 166.581 92.267L168.555 92.6648C169.616 92.8826 170.406 93.233 170.927 93.7159C171.448 94.1989 171.708 94.8333 171.708 95.6193C171.708 96.3343 171.498 96.9616 171.076 97.5014C170.66 98.0412 170.087 98.4626 169.358 98.7656C168.633 99.0639 167.797 99.2131 166.85 99.2131C165.406 99.2131 164.256 98.9124 163.399 98.3111C162.547 97.705 162.047 96.8812 161.9 95.8395L164.876 95.6832C164.966 96.1236 165.184 96.4598 165.529 96.6918C165.875 96.919 166.318 97.0327 166.858 97.0327C167.388 97.0327 167.814 96.9309 168.136 96.7273C168.463 96.5189 168.628 96.2514 168.633 95.9247C168.628 95.6501 168.512 95.4252 168.285 95.25C168.058 95.0701 167.708 94.9328 167.234 94.8381L165.345 94.4616C164.279 94.2486 163.486 93.8793 162.966 93.3537C162.449 92.8281 162.191 92.1581 162.191 91.3438C162.191 90.643 162.381 90.0393 162.76 89.5327C163.143 89.026 163.681 88.6354 164.372 88.3608C165.068 88.0862 165.882 87.9489 166.815 87.9489C168.193 87.9489 169.277 88.2401 170.068 88.8224C170.863 89.4048 171.327 90.1979 171.46 91.2017ZM173.614 99V88.0909H176.639V99H173.614ZM175.134 86.6847C174.684 86.6847 174.298 86.5355 173.976 86.2372C173.659 85.9342 173.5 85.572 173.5 85.1506C173.5 84.7339 173.659 84.3764 173.976 84.0781C174.298 83.7751 174.684 83.6236 175.134 83.6236C175.583 83.6236 175.967 83.7751 176.284 84.0781C176.606 84.3764 176.767 84.7339 176.767 85.1506C176.767 85.572 176.606 85.9342 176.284 86.2372C175.967 86.5355 175.583 86.6847 175.134 86.6847ZM183.978 103.318C182.998 103.318 182.157 103.183 181.456 102.913C180.76 102.648 180.206 102.286 179.794 101.827C179.382 101.367 179.115 100.851 178.992 100.278L181.79 99.902C181.875 100.12 182.01 100.323 182.195 100.513C182.38 100.702 182.623 100.854 182.926 100.967C183.234 101.086 183.608 101.145 184.049 101.145C184.707 101.145 185.249 100.984 185.675 100.662C186.106 100.345 186.321 99.812 186.321 99.0639V97.0682H186.194C186.061 97.3712 185.862 97.6577 185.597 97.9276C185.332 98.1974 184.991 98.4176 184.574 98.5881C184.158 98.7585 183.66 98.8438 183.083 98.8438C182.264 98.8438 181.518 98.6544 180.846 98.2756C180.178 97.892 179.645 97.3073 179.248 96.5213C178.855 95.7306 178.658 94.7315 178.658 93.5241C178.658 92.2884 178.859 91.2562 179.262 90.4276C179.664 89.599 180.199 88.9787 180.867 88.5668C181.539 88.1548 182.275 87.9489 183.076 87.9489C183.686 87.9489 184.198 88.053 184.61 88.2614C185.022 88.465 185.353 88.7206 185.604 89.0284C185.86 89.3314 186.056 89.6297 186.194 89.9233H186.307V88.0909H189.311V99.1065C189.311 100.035 189.084 100.811 188.63 101.436C188.175 102.061 187.545 102.53 186.74 102.842C185.94 103.16 185.019 103.318 183.978 103.318ZM184.042 96.571C184.529 96.571 184.941 96.4503 185.277 96.2088C185.618 95.9626 185.879 95.6122 186.059 95.1577C186.243 94.6984 186.336 94.1491 186.336 93.5099C186.336 92.8707 186.246 92.3168 186.066 91.848C185.886 91.3745 185.625 91.0076 185.284 90.7472C184.944 90.4867 184.529 90.3565 184.042 90.3565C183.544 90.3565 183.125 90.4915 182.784 90.7614C182.444 91.0265 182.185 91.3958 182.01 91.8693C181.835 92.3428 181.748 92.8897 181.748 93.5099C181.748 94.1397 181.835 94.6842 182.01 95.1435C182.19 95.598 182.448 95.9508 182.784 96.2017C183.125 96.4479 183.544 96.571 184.042 96.571ZM194.745 92.6932V99H191.719V88.0909H194.603V90.0156H194.73C194.972 89.3812 195.377 88.8793 195.945 88.5099C196.513 88.1359 197.202 87.9489 198.012 87.9489C198.769 87.9489 199.43 88.1146 199.993 88.446C200.557 88.7775 200.995 89.2509 201.307 89.8665C201.62 90.4773 201.776 91.2064 201.776 92.054V99H198.75V92.5938C198.755 91.9261 198.585 91.4053 198.239 91.0312C197.893 90.6525 197.417 90.4631 196.811 90.4631C196.404 90.4631 196.044 90.5507 195.732 90.7259C195.424 90.901 195.183 91.1567 195.007 91.4929C194.837 91.8243 194.749 92.2244 194.745 92.6932ZM76.2841 115.202L73.5142 115.372C73.4669 115.135 73.3651 114.922 73.2088 114.733C73.0526 114.539 72.8466 114.385 72.5909 114.271C72.34 114.153 72.0393 114.094 71.6889 114.094C71.2202 114.094 70.8248 114.193 70.5028 114.392C70.1809 114.586 70.0199 114.847 70.0199 115.173C70.0199 115.434 70.1241 115.654 70.3324 115.834C70.5407 116.014 70.8982 116.158 71.4048 116.267L73.3793 116.665C74.4399 116.883 75.2306 117.233 75.7514 117.716C76.2723 118.199 76.5327 118.833 76.5327 119.619C76.5327 120.334 76.322 120.962 75.9006 121.501C75.4839 122.041 74.911 122.463 74.1818 122.766C73.4574 123.064 72.6217 123.213 71.6747 123.213C70.2306 123.213 69.08 122.912 68.223 122.311C67.3707 121.705 66.8712 120.881 66.7244 119.839L69.7003 119.683C69.7902 120.124 70.008 120.46 70.3537 120.692C70.6993 120.919 71.142 121.033 71.6818 121.033C72.2121 121.033 72.6383 120.931 72.9602 120.727C73.2869 120.519 73.4527 120.251 73.4574 119.925C73.4527 119.65 73.3366 119.425 73.1094 119.25C72.8821 119.07 72.5317 118.933 72.0582 118.838L70.169 118.462C69.1037 118.249 68.3106 117.879 67.7898 117.354C67.2737 116.828 67.0156 116.158 67.0156 115.344C67.0156 114.643 67.205 114.039 67.5838 113.533C67.9673 113.026 68.5047 112.635 69.196 112.361C69.892 112.086 70.7064 111.949 71.6392 111.949C73.017 111.949 74.1013 112.24 74.892 112.822C75.6875 113.405 76.1515 114.198 76.2841 115.202ZM80.3058 127.091C79.9222 127.091 79.5624 127.06 79.2262 126.999C78.8948 126.942 78.6201 126.868 78.4023 126.778L79.0842 124.52C79.4393 124.629 79.7589 124.688 80.043 124.697C80.3318 124.707 80.5804 124.641 80.7887 124.499C81.0018 124.357 81.1746 124.115 81.3072 123.774L81.4847 123.312L77.5714 112.091H80.7532L83.0117 120.102H83.1254L85.4052 112.091H88.6083L84.3683 124.179C84.1647 124.766 83.8877 125.277 83.5373 125.713C83.1916 126.153 82.7537 126.492 82.2234 126.729C81.6931 126.97 81.0539 127.091 80.3058 127.091ZM99.2333 115.202L96.4634 115.372C96.4161 115.135 96.3143 114.922 96.158 114.733C96.0018 114.539 95.7958 114.385 95.5401 114.271C95.2892 114.153 94.9885 114.094 94.6381 114.094C94.1694 114.094 93.774 114.193 93.4521 114.392C93.1301 114.586 92.9691 114.847 92.9691 115.173C92.9691 115.434 93.0733 115.654 93.2816 115.834C93.4899 116.014 93.8474 116.158 94.354 116.267L96.3285 116.665C97.3891 116.883 98.1798 117.233 98.7006 117.716C99.2215 118.199 99.4819 118.833 99.4819 119.619C99.4819 120.334 99.2712 120.962 98.8498 121.501C98.4331 122.041 97.8602 122.463 97.131 122.766C96.4066 123.064 95.5709 123.213 94.6239 123.213C93.1798 123.213 92.0292 122.912 91.1722 122.311C90.32 121.705 89.8204 120.881 89.6737 119.839L92.6495 119.683C92.7395 120.124 92.9573 120.46 93.3029 120.692C93.6486 120.919 94.0913 121.033 94.631 121.033C95.1613 121.033 95.5875 120.931 95.9094 120.727C96.2362 120.519 96.4019 120.251 96.4066 119.925C96.4019 119.65 96.2859 119.425 96.0586 119.25C95.8313 119.07 95.4809 118.933 95.0075 118.838L93.1183 118.462C92.0529 118.249 91.2598 117.879 90.739 117.354C90.2229 116.828 89.9648 116.158 89.9648 115.344C89.9648 114.643 90.1542 114.039 90.533 113.533C90.9165 113.026 91.454 112.635 92.1452 112.361C92.8413 112.086 93.6557 111.949 94.5884 111.949C95.9663 111.949 97.0505 112.24 97.8413 112.822C98.6367 113.405 99.1007 114.198 99.2333 115.202ZM107.19 112.091V114.364H100.62V112.091H107.19ZM102.112 109.477H105.137V119.648C105.137 119.927 105.18 120.145 105.265 120.301C105.35 120.453 105.469 120.559 105.62 120.621C105.776 120.682 105.956 120.713 106.16 120.713C106.302 120.713 106.444 120.701 106.586 120.678C106.728 120.649 106.837 120.628 106.913 120.614L107.388 122.865C107.237 122.912 107.024 122.967 106.749 123.028C106.475 123.095 106.141 123.135 105.748 123.149C105.019 123.178 104.379 123.08 103.83 122.858C103.286 122.635 102.862 122.29 102.559 121.821C102.256 121.352 102.107 120.76 102.112 120.045V109.477ZM114.015 123.213C112.893 123.213 111.927 122.986 111.117 122.531C110.312 122.072 109.692 121.423 109.256 120.585C108.821 119.742 108.603 118.746 108.603 117.595C108.603 116.473 108.821 115.488 109.256 114.641C109.692 113.793 110.305 113.133 111.096 112.659C111.891 112.186 112.824 111.949 113.894 111.949C114.614 111.949 115.284 112.065 115.904 112.297C116.529 112.524 117.074 112.867 117.538 113.327C118.006 113.786 118.371 114.364 118.631 115.06C118.892 115.751 119.022 116.561 119.022 117.489V118.32H109.81V116.445H116.174C116.174 116.009 116.079 115.623 115.89 115.287C115.701 114.951 115.438 114.688 115.102 114.499C114.77 114.304 114.384 114.207 113.944 114.207C113.485 114.207 113.077 114.314 112.722 114.527C112.372 114.735 112.097 115.017 111.898 115.372C111.7 115.723 111.598 116.113 111.593 116.544V118.327C111.593 118.866 111.692 119.333 111.891 119.726C112.095 120.119 112.381 120.422 112.751 120.635C113.12 120.848 113.558 120.955 114.065 120.955C114.401 120.955 114.709 120.907 114.988 120.812C115.267 120.718 115.506 120.576 115.705 120.386C115.904 120.197 116.056 119.965 116.16 119.69L118.958 119.875C118.816 120.547 118.525 121.134 118.085 121.636C117.649 122.134 117.085 122.522 116.394 122.801C115.708 123.076 114.915 123.213 114.015 123.213ZM120.996 123V112.091H123.88V114.016H124.008C124.235 113.376 124.614 112.872 125.144 112.503C125.674 112.134 126.309 111.949 127.048 111.949C127.796 111.949 128.433 112.136 128.958 112.51C129.484 112.879 129.834 113.381 130.009 114.016H130.123C130.345 113.391 130.748 112.891 131.33 112.517C131.917 112.138 132.611 111.949 133.411 111.949C134.429 111.949 135.255 112.273 135.89 112.922C136.529 113.566 136.849 114.48 136.849 115.663V123H133.83V116.26C133.83 115.654 133.669 115.199 133.347 114.896C133.025 114.593 132.623 114.442 132.14 114.442C131.591 114.442 131.162 114.617 130.854 114.967C130.547 115.313 130.393 115.77 130.393 116.338V123H127.46V116.196C127.46 115.661 127.306 115.235 126.998 114.918C126.695 114.6 126.295 114.442 125.798 114.442C125.461 114.442 125.158 114.527 124.888 114.697C124.623 114.863 124.413 115.098 124.256 115.401C124.1 115.699 124.022 116.049 124.022 116.452V123H120.996ZM149.734 112.091V114.364H143.001V112.091H149.734ZM144.542 123V111.303C144.542 110.512 144.696 109.856 145.004 109.335C145.316 108.814 145.743 108.424 146.282 108.163C146.822 107.903 147.435 107.773 148.122 107.773C148.586 107.773 149.01 107.808 149.393 107.879C149.781 107.95 150.07 108.014 150.26 108.071L149.72 110.344C149.601 110.306 149.455 110.27 149.279 110.237C149.109 110.204 148.934 110.188 148.754 110.188C148.309 110.188 147.999 110.292 147.824 110.5C147.648 110.704 147.561 110.99 147.561 111.359V123H144.542ZM156.121 123.213C155.018 123.213 154.063 122.979 153.259 122.51C152.458 122.036 151.84 121.378 151.405 120.536C150.969 119.688 150.751 118.705 150.751 117.588C150.751 116.461 150.969 115.476 151.405 114.634C151.84 113.786 152.458 113.128 153.259 112.659C154.063 112.186 155.018 111.949 156.121 111.949C157.224 111.949 158.176 112.186 158.976 112.659C159.781 113.128 160.401 113.786 160.837 114.634C161.272 115.476 161.49 116.461 161.49 117.588C161.49 118.705 161.272 119.688 160.837 120.536C160.401 121.378 159.781 122.036 158.976 122.51C158.176 122.979 157.224 123.213 156.121 123.213ZM156.135 120.869C156.637 120.869 157.056 120.727 157.392 120.443C157.728 120.154 157.982 119.761 158.152 119.264C158.327 118.767 158.415 118.201 158.415 117.567C158.415 116.932 158.327 116.366 158.152 115.869C157.982 115.372 157.728 114.979 157.392 114.69C157.056 114.402 156.637 114.257 156.135 114.257C155.628 114.257 155.202 114.402 154.857 114.69C154.516 114.979 154.258 115.372 154.082 115.869C153.912 116.366 153.827 116.932 153.827 117.567C153.827 118.201 153.912 118.767 154.082 119.264C154.258 119.761 154.516 120.154 154.857 120.443C155.202 120.727 155.628 120.869 156.135 120.869ZM163.457 123V112.091H166.391V113.994H166.504C166.703 113.317 167.037 112.806 167.506 112.46C167.974 112.11 168.514 111.935 169.125 111.935C169.277 111.935 169.44 111.944 169.615 111.963C169.79 111.982 169.944 112.008 170.077 112.041V114.726C169.935 114.683 169.738 114.645 169.487 114.612C169.236 114.579 169.007 114.562 168.798 114.562C168.353 114.562 167.955 114.66 167.605 114.854C167.259 115.043 166.985 115.308 166.781 115.649C166.582 115.99 166.483 116.383 166.483 116.828V123H163.457ZM176.327 123V108.455H185.957V110.99H179.402V114.456H185.318V116.991H179.402V123H176.327ZM192.097 123.213C190.994 123.213 190.04 122.979 189.235 122.51C188.435 122.036 187.817 121.378 187.381 120.536C186.946 119.688 186.728 118.705 186.728 117.588C186.728 116.461 186.946 115.476 187.381 114.634C187.817 113.786 188.435 113.128 189.235 112.659C190.04 112.186 190.994 111.949 192.097 111.949C193.201 111.949 194.152 112.186 194.952 112.659C195.757 113.128 196.378 113.786 196.813 114.634C197.249 115.476 197.467 116.461 197.467 117.588C197.467 118.705 197.249 119.688 196.813 120.536C196.378 121.378 195.757 122.036 194.952 122.51C194.152 122.979 193.201 123.213 192.097 123.213ZM192.112 120.869C192.613 120.869 193.032 120.727 193.369 120.443C193.705 120.154 193.958 119.761 194.129 119.264C194.304 118.767 194.391 118.201 194.391 117.567C194.391 116.932 194.304 116.366 194.129 115.869C193.958 115.372 193.705 114.979 193.369 114.69C193.032 114.402 192.613 114.257 192.112 114.257C191.605 114.257 191.179 114.402 190.833 114.69C190.492 114.979 190.234 115.372 190.059 115.869C189.888 116.366 189.803 116.932 189.803 117.567C189.803 118.201 189.888 118.767 190.059 119.264C190.234 119.761 190.492 120.154 190.833 120.443C191.179 120.727 191.605 120.869 192.112 120.869ZM199.434 123V112.091H202.367V113.994H202.481C202.68 113.317 203.013 112.806 203.482 112.46C203.951 112.11 204.491 111.935 205.102 111.935C205.253 111.935 205.416 111.944 205.592 111.963C205.767 111.982 205.921 112.008 206.053 112.041V114.726C205.911 114.683 205.715 114.645 205.464 114.612C205.213 114.579 204.983 114.562 204.775 114.562C204.33 114.562 203.932 114.66 203.582 114.854C203.236 115.043 202.961 115.308 202.758 115.649C202.559 115.99 202.46 116.383 202.46 116.828V123H199.434ZM216.694 115.202L213.924 115.372C213.877 115.135 213.775 114.922 213.619 114.733C213.463 114.539 213.257 114.385 213.001 114.271C212.75 114.153 212.449 114.094 212.099 114.094C211.63 114.094 211.235 114.193 210.913 114.392C210.591 114.586 210.43 114.847 210.43 115.173C210.43 115.434 210.534 115.654 210.743 115.834C210.951 116.014 211.308 116.158 211.815 116.267L213.789 116.665C214.85 116.883 215.641 117.233 216.162 117.716C216.682 118.199 216.943 118.833 216.943 119.619C216.943 120.334 216.732 120.962 216.311 121.501C215.894 122.041 215.321 122.463 214.592 122.766C213.868 123.064 213.032 123.213 212.085 123.213C210.641 123.213 209.49 122.912 208.633 122.311C207.781 121.705 207.281 120.881 207.135 119.839L210.11 119.683C210.2 120.124 210.418 120.46 210.764 120.692C211.109 120.919 211.552 121.033 212.092 121.033C212.622 121.033 213.048 120.931 213.37 120.727C213.697 120.519 213.863 120.251 213.868 119.925C213.863 119.65 213.747 119.425 213.52 119.25C213.292 119.07 212.942 118.933 212.468 118.838L210.579 118.462C209.514 118.249 208.721 117.879 208.2 117.354C207.684 116.828 207.426 116.158 207.426 115.344C207.426 114.643 207.615 114.039 207.994 113.533C208.377 113.026 208.915 112.635 209.606 112.361C210.302 112.086 211.117 111.949 212.049 111.949C213.427 111.949 214.511 112.24 215.302 112.822C216.098 113.405 216.562 114.198 216.694 115.202ZM218.848 123V112.091H221.874V123H218.848ZM220.368 110.685C219.918 110.685 219.532 110.536 219.21 110.237C218.893 109.934 218.734 109.572 218.734 109.151C218.734 108.734 218.893 108.376 219.21 108.078C219.532 107.775 219.918 107.624 220.368 107.624C220.818 107.624 221.201 107.775 221.518 108.078C221.84 108.376 222.001 108.734 222.001 109.151C222.001 109.572 221.84 109.934 221.518 110.237C221.201 110.536 220.818 110.685 220.368 110.685ZM229.226 123.213C228.109 123.213 227.148 122.976 226.343 122.503C225.542 122.025 224.927 121.362 224.496 120.514C224.07 119.667 223.857 118.691 223.857 117.588C223.857 116.471 224.072 115.491 224.503 114.648C224.939 113.8 225.557 113.14 226.357 112.666C227.157 112.188 228.109 111.949 229.212 111.949C230.164 111.949 230.997 112.122 231.712 112.467C232.427 112.813 232.993 113.298 233.409 113.923C233.826 114.548 234.056 115.282 234.098 116.125H231.243C231.163 115.58 230.95 115.143 230.604 114.811C230.263 114.475 229.816 114.307 229.262 114.307C228.793 114.307 228.383 114.435 228.033 114.69C227.687 114.941 227.417 115.308 227.223 115.791C227.029 116.274 226.932 116.859 226.932 117.545C226.932 118.241 227.027 118.833 227.216 119.321C227.41 119.809 227.683 120.18 228.033 120.436C228.383 120.692 228.793 120.82 229.262 120.82C229.607 120.82 229.917 120.749 230.192 120.607C230.471 120.464 230.701 120.259 230.881 119.989C231.066 119.714 231.186 119.385 231.243 119.001H234.098C234.051 119.835 233.824 120.569 233.417 121.203C233.014 121.833 232.458 122.325 231.748 122.68C231.037 123.036 230.197 123.213 229.226 123.213ZM240.964 123.213C239.861 123.213 238.907 122.979 238.102 122.51C237.302 122.036 236.684 121.378 236.249 120.536C235.813 119.688 235.595 118.705 235.595 117.588C235.595 116.461 235.813 115.476 236.249 114.634C236.684 113.786 237.302 113.128 238.102 112.659C238.907 112.186 239.861 111.949 240.964 111.949C242.068 111.949 243.019 112.186 243.82 112.659C244.625 113.128 245.245 113.786 245.68 114.634C246.116 115.476 246.334 116.461 246.334 117.588C246.334 118.705 246.116 119.688 245.68 120.536C245.245 121.378 244.625 122.036 243.82 122.51C243.019 122.979 242.068 123.213 240.964 123.213ZM240.979 120.869C241.481 120.869 241.9 120.727 242.236 120.443C242.572 120.154 242.825 119.761 242.996 119.264C243.171 118.767 243.259 118.201 243.259 117.567C243.259 116.932 243.171 116.366 242.996 115.869C242.825 115.372 242.572 114.979 242.236 114.69C241.9 114.402 241.481 114.257 240.979 114.257C240.472 114.257 240.046 114.402 239.7 114.69C239.359 114.979 239.101 115.372 238.926 115.869C238.756 116.366 238.67 116.932 238.67 117.567C238.67 118.201 238.756 118.767 238.926 119.264C239.101 119.761 239.359 120.154 239.7 120.443C240.046 120.727 240.472 120.869 240.979 120.869Z" fill="#ACACAC"/>
<path d="M375.719 91.1971L366.156 100.761C366.022 100.894 365.852 100.986 365.666 101.023C365.481 101.06 365.288 101.041 365.113 100.968C364.939 100.896 364.789 100.773 364.684 100.616C364.579 100.458 364.523 100.273 364.523 100.084V95.3297C357.697 95.7171 353.017 100.144 351.703 101.546C351.497 101.766 351.226 101.916 350.93 101.974C350.634 102.031 350.327 101.994 350.053 101.867C349.779 101.74 349.552 101.53 349.405 101.267C349.257 101.004 349.197 100.701 349.231 100.401C349.675 96.5443 351.787 92.8349 355.18 89.9563C357.997 87.5654 361.422 86.0484 364.523 85.783V80.9571C364.523 80.7678 364.579 80.5828 364.684 80.4254C364.789 80.268 364.939 80.1453 365.113 80.0728C365.288 80.0004 365.481 79.9815 365.666 80.0184C365.852 80.0554 366.022 80.1466 366.156 80.2805L375.719 89.8439C375.808 89.9327 375.879 90.0382 375.927 90.1543C375.975 90.2704 376 90.3949 376 90.5205C376 90.6462 375.975 90.7707 375.927 90.8868C375.879 91.0029 375.808 91.1083 375.719 91.1971Z" fill="#E2E8F0"/>
<path d="M66 132H376" stroke="#F2F2F2"/>
<rect x="66" y="148" width="137" height="36" rx="15" fill="#E2E8F0"/>
<path d="M92 166V172.222C92 172.694 91.8127 173.146 91.4793 173.479C91.1459 173.813 90.6937 174 90.2222 174H77.7778C77.3063 174 76.8541 173.813 76.5207 173.479C76.1873 173.146 76 172.694 76 172.222V166H92ZM87.5556 158C87.7913 158 88.0174 158.094 88.1841 158.26C88.3508 158.427 88.4444 158.653 88.4444 158.889V159.778H90.2222C90.6937 159.778 91.1459 159.965 91.4793 160.298C91.8127 160.632 92 161.084 92 161.556V164.222H76V161.556C76 161.084 76.1873 160.632 76.5207 160.298C76.8541 159.965 77.3063 159.778 77.7778 159.778H79.5556V158.889C79.5556 158.653 79.6492 158.427 79.8159 158.26C79.9826 158.094 80.2087 158 80.4444 158C80.6802 158 80.9063 158.094 81.073 158.26C81.2397 158.427 81.3333 158.653 81.3333 158.889V159.778H86.6667V158.889C86.6667 158.653 86.7603 158.427 86.927 158.26C87.0937 158.094 87.3198 158 87.5556 158Z" fill="#1C3C84"/>
<path d="M99.8267 173H97.4972L102.732 158.455H105.267L110.501 173H108.172L104.06 161.097H103.946L99.8267 173ZM100.217 167.304H107.774V169.151H100.217V167.304ZM119.342 168.476V162.091H121.473V173H119.385V171.111H119.271C119.02 171.693 118.618 172.179 118.064 172.567C117.514 172.95 116.83 173.142 116.011 173.142C115.31 173.142 114.69 172.988 114.15 172.68C113.615 172.368 113.194 171.906 112.886 171.295C112.583 170.685 112.431 169.929 112.431 169.03V162.091H114.555V168.774C114.555 169.518 114.761 170.109 115.173 170.55C115.585 170.99 116.12 171.21 116.778 171.21C117.176 171.21 117.571 171.111 117.964 170.912C118.362 170.713 118.691 170.412 118.951 170.01C119.217 169.607 119.347 169.096 119.342 168.476ZM128.9 177.318C128.033 177.318 127.288 177.205 126.663 176.977C126.042 176.75 125.536 176.449 125.143 176.075C124.75 175.701 124.456 175.292 124.262 174.847L126.087 174.094C126.215 174.302 126.386 174.522 126.599 174.754C126.817 174.991 127.11 175.192 127.479 175.358C127.853 175.524 128.334 175.607 128.921 175.607C129.726 175.607 130.391 175.41 130.917 175.017C131.442 174.629 131.705 174.009 131.705 173.156V171.011H131.57C131.442 171.243 131.258 171.501 131.016 171.786C130.78 172.07 130.453 172.316 130.036 172.524C129.62 172.732 129.077 172.837 128.41 172.837C127.548 172.837 126.772 172.635 126.08 172.233C125.394 171.826 124.849 171.227 124.447 170.436C124.049 169.641 123.85 168.663 123.85 167.503C123.85 166.343 124.047 165.348 124.44 164.52C124.837 163.691 125.382 163.057 126.073 162.616C126.764 162.171 127.548 161.949 128.424 161.949C129.101 161.949 129.648 162.062 130.065 162.29C130.481 162.512 130.806 162.773 131.038 163.071C131.274 163.369 131.457 163.632 131.585 163.859H131.741V162.091H133.822V173.241C133.822 174.179 133.604 174.948 133.168 175.55C132.733 176.151 132.143 176.596 131.4 176.885C130.661 177.174 129.828 177.318 128.9 177.318ZM128.879 171.075C129.489 171.075 130.005 170.933 130.427 170.649C130.853 170.36 131.175 169.948 131.393 169.413C131.615 168.874 131.727 168.227 131.727 167.474C131.727 166.741 131.618 166.094 131.4 165.536C131.182 164.977 130.862 164.541 130.441 164.229C130.02 163.911 129.499 163.753 128.879 163.753C128.239 163.753 127.707 163.919 127.281 164.25C126.854 164.577 126.532 165.022 126.315 165.585C126.102 166.149 125.995 166.778 125.995 167.474C125.995 168.189 126.104 168.817 126.322 169.357C126.54 169.896 126.862 170.318 127.288 170.621C127.719 170.924 128.249 171.075 128.879 171.075ZM143.58 168.476V162.091H145.711V173H143.623V171.111H143.509C143.258 171.693 142.856 172.179 142.302 172.567C141.753 172.95 141.068 173.142 140.249 173.142C139.549 173.142 138.928 172.988 138.388 172.68C137.853 172.368 137.432 171.906 137.124 171.295C136.821 170.685 136.67 169.929 136.67 169.03V162.091H138.793V168.774C138.793 169.518 138.999 170.109 139.411 170.55C139.823 170.99 140.358 171.21 141.016 171.21C141.414 171.21 141.809 171.111 142.202 170.912C142.6 170.713 142.929 170.412 143.19 170.01C143.455 169.607 143.585 169.096 143.58 168.476ZM156.739 164.754L154.814 165.095C154.734 164.849 154.606 164.615 154.431 164.392C154.26 164.17 154.028 163.987 153.735 163.845C153.441 163.703 153.074 163.632 152.634 163.632C152.033 163.632 151.531 163.767 151.128 164.037C150.726 164.302 150.525 164.645 150.525 165.067C150.525 165.431 150.659 165.725 150.929 165.947C151.199 166.17 151.635 166.352 152.236 166.494L153.969 166.892C154.973 167.124 155.721 167.482 156.213 167.964C156.706 168.447 156.952 169.075 156.952 169.847C156.952 170.5 156.763 171.082 156.384 171.594C156.01 172.1 155.487 172.498 154.814 172.787C154.147 173.076 153.373 173.22 152.492 173.22C151.27 173.22 150.274 172.96 149.502 172.439C148.73 171.913 148.257 171.168 148.081 170.202L150.134 169.889C150.262 170.424 150.525 170.829 150.922 171.104C151.32 171.374 151.838 171.509 152.478 171.509C153.174 171.509 153.73 171.364 154.147 171.075C154.563 170.782 154.772 170.424 154.772 170.003C154.772 169.662 154.644 169.375 154.388 169.143C154.137 168.911 153.751 168.736 153.23 168.618L151.384 168.213C150.366 167.981 149.613 167.612 149.125 167.105C148.642 166.598 148.401 165.957 148.401 165.18C148.401 164.536 148.581 163.973 148.941 163.49C149.301 163.007 149.798 162.631 150.432 162.361C151.067 162.086 151.793 161.949 152.613 161.949C153.792 161.949 154.72 162.205 155.397 162.716C156.074 163.223 156.521 163.902 156.739 164.754ZM164.379 162.091V163.795H158.42V162.091H164.379ZM160.018 159.477H162.142V169.797C162.142 170.209 162.204 170.519 162.327 170.727C162.45 170.931 162.608 171.071 162.803 171.146C163.001 171.217 163.217 171.253 163.449 171.253C163.619 171.253 163.768 171.241 163.896 171.217C164.024 171.194 164.124 171.175 164.195 171.161L164.578 172.915C164.455 172.962 164.28 173.009 164.053 173.057C163.825 173.109 163.541 173.137 163.2 173.142C162.642 173.152 162.121 173.052 161.638 172.844C161.155 172.635 160.764 172.313 160.466 171.878C160.168 171.442 160.018 170.895 160.018 170.237V159.477ZM177.511 158.455V173H175.31V160.656H175.224L171.744 162.929V160.827L175.374 158.455H177.511ZM181.446 173V171.409L186.368 166.31C186.893 165.756 187.327 165.27 187.668 164.854C188.013 164.432 188.271 164.032 188.442 163.653C188.612 163.275 188.697 162.872 188.697 162.446C188.697 161.963 188.584 161.546 188.357 161.196C188.129 160.841 187.819 160.569 187.426 160.379C187.033 160.185 186.59 160.088 186.098 160.088C185.577 160.088 185.123 160.195 184.734 160.408C184.346 160.621 184.048 160.921 183.839 161.31C183.631 161.698 183.527 162.152 183.527 162.673H181.432C181.432 161.788 181.635 161.014 182.043 160.351C182.45 159.688 183.009 159.174 183.719 158.81C184.429 158.44 185.236 158.256 186.141 158.256C187.054 158.256 187.859 158.438 188.555 158.803C189.256 159.162 189.803 159.655 190.196 160.28C190.589 160.9 190.786 161.601 190.786 162.382C190.786 162.922 190.684 163.45 190.48 163.966C190.281 164.482 189.933 165.057 189.436 165.692C188.939 166.321 188.248 167.086 187.362 167.986L184.472 171.011V171.118H191.02V173H181.446Z" fill="#1C3C84"/>
<rect x="207" y="148" width="64" height="36" rx="15" fill="#E2E8F0"/>
<path d="M226.141 170.273V169.506C226.141 168.923 226.264 168.388 226.51 167.901C226.761 167.408 227.123 167.015 227.597 166.722C228.075 166.423 228.657 166.274 229.344 166.274C230.04 166.274 230.625 166.421 231.098 166.714C231.576 167.008 231.936 167.401 232.178 167.893C232.424 168.381 232.547 168.919 232.547 169.506V170.273C232.547 170.855 232.424 171.393 232.178 171.885C231.931 172.373 231.569 172.763 231.091 173.057C230.613 173.355 230.03 173.504 229.344 173.504C228.648 173.504 228.063 173.355 227.589 173.057C227.116 172.763 226.756 172.373 226.51 171.885C226.264 171.393 226.141 170.855 226.141 170.273ZM228.207 169.506V170.273C228.207 170.609 228.288 170.926 228.449 171.224C228.615 171.523 228.913 171.672 229.344 171.672C229.775 171.672 230.068 171.525 230.224 171.232C230.385 170.938 230.466 170.618 230.466 170.273V169.506C230.466 169.16 230.39 168.838 230.239 168.54C230.087 168.241 229.789 168.092 229.344 168.092C228.918 168.092 228.622 168.241 228.456 168.54C228.29 168.838 228.207 169.16 228.207 169.506ZM218.676 161.949V161.182C218.676 160.595 218.802 160.057 219.053 159.57C219.304 159.077 219.666 158.684 220.139 158.391C220.617 158.097 221.195 157.95 221.872 157.95C222.573 157.95 223.16 158.097 223.634 158.391C224.107 158.684 224.467 159.077 224.713 159.57C224.959 160.057 225.082 160.595 225.082 161.182V161.949C225.082 162.536 224.957 163.073 224.706 163.561C224.46 164.049 224.098 164.439 223.619 164.733C223.146 165.022 222.563 165.166 221.872 165.166C221.181 165.166 220.596 165.019 220.118 164.726C219.644 164.428 219.285 164.037 219.038 163.554C218.797 163.066 218.676 162.531 218.676 161.949ZM220.757 161.182V161.949C220.757 162.295 220.838 162.614 220.999 162.908C221.164 163.201 221.455 163.348 221.872 163.348C222.308 163.348 222.604 163.201 222.76 162.908C222.921 162.614 223.001 162.295 223.001 161.949V161.182C223.001 160.836 222.926 160.514 222.774 160.216C222.623 159.918 222.322 159.768 221.872 159.768C221.451 159.768 221.16 159.92 220.999 160.223C220.838 160.526 220.757 160.846 220.757 161.182ZM219.614 173L229.614 158.455H231.474L221.474 173H219.614ZM240.679 173.199C239.675 173.199 238.78 173.014 237.994 172.645C237.213 172.276 236.593 171.767 236.134 171.118C235.674 170.469 235.435 169.726 235.416 168.888H238.399C238.432 169.451 238.669 169.908 239.109 170.259C239.55 170.609 240.073 170.784 240.679 170.784C241.162 170.784 241.588 170.678 241.957 170.464C242.331 170.247 242.623 169.946 242.831 169.562C243.044 169.174 243.151 168.729 243.151 168.227C243.151 167.716 243.042 167.266 242.824 166.878C242.611 166.49 242.315 166.187 241.936 165.969C241.557 165.751 241.124 165.64 240.636 165.635C240.21 165.635 239.796 165.723 239.393 165.898C238.996 166.073 238.686 166.312 238.463 166.615L235.729 166.125L236.418 158.455H245.31V160.969H238.953L238.577 164.612H238.662C238.918 164.252 239.304 163.954 239.82 163.717C240.336 163.481 240.913 163.362 241.553 163.362C242.429 163.362 243.21 163.568 243.896 163.98C244.583 164.392 245.125 164.958 245.523 165.678C245.92 166.393 246.117 167.216 246.112 168.149C246.117 169.129 245.89 170 245.43 170.763C244.976 171.52 244.339 172.117 243.52 172.553C242.705 172.983 241.759 173.199 240.679 173.199ZM253.96 173.32C252.739 173.315 251.688 173.014 250.807 172.418C249.931 171.821 249.256 170.957 248.783 169.825C248.314 168.694 248.082 167.332 248.087 165.741C248.087 164.155 248.321 162.804 248.79 161.686C249.263 160.569 249.938 159.719 250.814 159.136C251.695 158.549 252.743 158.256 253.96 158.256C255.177 158.256 256.223 158.549 257.099 159.136C257.98 159.723 258.657 160.576 259.131 161.693C259.604 162.806 259.839 164.155 259.834 165.741C259.834 167.337 259.597 168.701 259.124 169.832C258.655 170.964 257.982 171.828 257.107 172.425C256.231 173.021 255.182 173.32 253.96 173.32ZM253.96 170.77C254.794 170.77 255.459 170.351 255.956 169.513C256.453 168.675 256.699 167.418 256.695 165.741C256.695 164.638 256.581 163.72 256.354 162.986C256.131 162.252 255.814 161.7 255.402 161.331C254.995 160.962 254.514 160.777 253.96 160.777C253.132 160.777 252.469 161.191 251.972 162.02C251.474 162.848 251.223 164.089 251.219 165.741C251.219 166.859 251.33 167.792 251.553 168.54C251.78 169.283 252.099 169.842 252.511 170.216C252.923 170.585 253.406 170.77 253.96 170.77Z" fill="#1C3C84"/>
<path d="M69.3083 207.617H79.2331M66 201H72.6165M69.3083 201V219.195C69.3083 219.634 69.4825 220.055 69.7928 220.365C70.103 220.675 70.5237 220.85 70.9624 220.85H79.2331" stroke="#1C3C84" stroke-width="3" stroke-linecap="round" stroke-linejoin="round"/>
<ellipse cx="80.4738" cy="207.368" rx="2.89474" ry="2.89474" fill="#1C3C84"/>
<ellipse cx="80.4738" cy="220.105" rx="2.89474" ry="2.89474" fill="#1C3C84"/>
<path d="M93.9738 219.199C92.88 219.199 91.907 219.021 91.0547 218.666C90.2072 218.306 89.5419 217.816 89.059 217.196C88.576 216.576 88.3346 215.873 88.3346 215.087C88.3346 214.481 88.4719 213.924 88.7465 213.418C89.0258 212.906 89.4046 212.482 89.8829 212.146C90.3611 211.805 90.8961 211.588 91.488 211.493V211.393C90.7115 211.237 90.0817 210.861 89.5988 210.264C89.1158 209.663 88.8743 208.964 88.8743 208.169C88.8743 207.416 89.0945 206.746 89.5348 206.159C89.9752 205.567 90.5789 205.103 91.3459 204.767C92.1177 204.426 92.9937 204.256 93.9738 204.256C94.9539 204.256 95.8275 204.426 96.5945 204.767C97.3663 205.108 97.9723 205.574 98.4127 206.166C98.853 206.753 99.0756 207.421 99.0803 208.169C99.0756 208.969 98.8294 209.668 98.3417 210.264C97.854 210.861 97.229 211.237 96.4667 211.393V211.493C97.0491 211.588 97.577 211.805 98.0505 212.146C98.5287 212.482 98.9075 212.906 99.1868 213.418C99.4709 213.924 99.6153 214.481 99.6201 215.087C99.6153 215.873 99.3715 216.576 98.8885 217.196C98.4056 217.816 97.738 218.306 96.8857 218.666C96.0382 219.021 95.0675 219.199 93.9738 219.199ZM93.9738 216.94C94.4615 216.94 94.8876 216.853 95.2522 216.678C95.6168 216.498 95.9008 216.251 96.1044 215.939C96.3128 215.622 96.4169 215.257 96.4169 214.845C96.4169 214.424 96.3104 214.052 96.0973 213.73C95.8843 213.403 95.5955 213.148 95.2309 212.963C94.8663 212.774 94.4473 212.679 93.9738 212.679C93.505 212.679 93.086 212.774 92.7167 212.963C92.3473 213.148 92.0562 213.403 91.8431 213.73C91.6348 214.052 91.5306 214.424 91.5306 214.845C91.5306 215.257 91.6324 215.622 91.836 215.939C92.0396 216.251 92.326 216.498 92.6954 216.678C93.0647 216.853 93.4908 216.94 93.9738 216.94ZM93.9738 210.442C94.381 210.442 94.7432 210.359 95.0604 210.193C95.3776 210.027 95.6262 209.798 95.8062 209.504C95.9861 209.211 96.076 208.872 96.076 208.489C96.076 208.11 95.9861 207.778 95.8062 207.494C95.6262 207.205 95.38 206.981 95.0675 206.82C94.755 206.654 94.3904 206.571 93.9738 206.571C93.5618 206.571 93.1973 206.654 92.88 206.82C92.5628 206.981 92.3142 207.205 92.1343 207.494C91.9591 207.778 91.8715 208.11 91.8715 208.489C91.8715 208.872 91.9615 209.211 92.1414 209.504C92.3213 209.798 92.5699 210.027 92.8871 210.193C93.2044 210.359 93.5666 210.442 93.9738 210.442Z" fill="#1C3C84"/>
<path fill-rule="evenodd" clip-rule="evenodd" d="M117.48 205.889C117.48 204.592 117.995 203.349 118.912 202.432C119.829 201.515 121.072 201 122.369 201C123.665 201 124.909 201.515 125.826 202.432C126.742 203.349 127.258 204.592 127.258 205.889C127.258 207.186 126.742 208.429 125.826 209.346C124.909 210.263 123.665 210.778 122.369 210.778C121.072 210.778 119.829 210.263 118.912 209.346C117.995 208.429 117.48 207.186 117.48 205.889ZM117.48 213.222C115.859 213.222 114.305 213.866 113.159 215.012C112.012 216.158 111.369 217.713 111.369 219.333C111.369 220.306 111.755 221.238 112.443 221.926C113.13 222.614 114.063 223 115.035 223H129.702C130.674 223 131.607 222.614 132.295 221.926C132.982 221.238 133.369 220.306 133.369 219.333C133.369 217.713 132.725 216.158 131.579 215.012C130.433 213.866 128.878 213.222 127.258 213.222H117.48Z" fill="#1C3C84"/>
<path d="M138.327 216.443V214.021L144.4 204.455H146.488V207.807H145.252L141.424 213.865V213.979H150.053V216.443H138.327ZM145.309 219V215.705L145.366 214.632V204.455H148.249V219H145.309Z" fill="#1C3C84"/>
<path d="M376 203.637V216.839C375.999 216.964 375.972 217.088 375.921 217.202C375.869 217.316 375.794 217.417 375.7 217.499C374.042 218.955 372.456 219.479 370.944 219.479C368.891 219.479 366.974 218.518 365.19 217.626C362.308 216.179 359.803 214.926 356.895 217.254V222.12C356.895 222.353 356.803 222.577 356.64 222.742C356.478 222.907 356.257 223 356.026 223C355.796 223 355.575 222.907 355.412 222.742C355.249 222.577 355.158 222.353 355.158 222.12V203.637C355.159 203.512 355.186 203.388 355.238 203.274C355.29 203.16 355.365 203.059 355.459 202.977C359.367 199.547 362.874 201.304 365.965 202.854C368.944 204.348 371.527 205.639 374.563 202.977C374.688 202.867 374.842 202.795 375.007 202.771C375.171 202.747 375.339 202.771 375.49 202.84C375.641 202.91 375.77 203.022 375.86 203.163C375.951 203.304 375.999 203.469 376 203.637Z" fill="#36C5F0"/>
</g>
<rect x="502" width="320" height="46" rx="15" fill="#36C5F0"/>
<path d="M525.884 32H519.998V13.8182H526.07C527.851 13.8182 529.381 14.1822 530.66 14.9102C531.938 15.6322 532.918 16.6709 533.598 18.0263C534.285 19.3757 534.628 20.9944 534.628 22.8825C534.628 24.7764 534.282 26.404 533.589 27.7653C532.903 29.1265 531.909 30.1741 530.607 30.908C529.304 31.636 527.73 32 525.884 32ZM522.741 29.603H525.733C527.118 29.603 528.269 29.3426 529.186 28.8217C530.103 28.295 530.79 27.5344 531.246 26.5401C531.701 25.5399 531.929 24.3207 531.929 22.8825C531.929 21.4561 531.701 20.2457 531.246 19.2514C530.796 18.2571 530.124 17.5025 529.23 16.9876C528.337 16.4727 527.227 16.2152 525.901 16.2152H522.741V29.603ZM543.57 32.2752C542.292 32.2752 541.176 31.9822 540.223 31.3963C539.271 30.8104 538.531 29.9906 538.004 28.9371C537.477 27.8836 537.214 26.6526 537.214 25.244C537.214 23.8294 537.477 22.5924 538.004 21.533C538.531 20.4736 539.271 19.6509 540.223 19.065C541.176 18.479 542.292 18.1861 543.57 18.1861C544.849 18.1861 545.964 18.479 546.917 19.065C547.87 19.6509 548.61 20.4736 549.137 21.533C549.664 22.5924 549.927 23.8294 549.927 25.244C549.927 26.6526 549.664 27.8836 549.137 28.9371C548.61 29.9906 547.87 30.8104 546.917 31.3963C545.964 31.9822 544.849 32.2752 543.57 32.2752ZM543.579 30.0469C544.408 30.0469 545.094 29.8279 545.639 29.3899C546.183 28.9519 546.586 28.369 546.846 27.641C547.113 26.913 547.246 26.111 547.246 25.2351C547.246 24.3651 547.113 23.5661 546.846 22.8381C546.586 22.1042 546.183 21.5153 545.639 21.0714C545.094 20.6275 544.408 20.4055 543.579 20.4055C542.745 20.4055 542.052 20.6275 541.502 21.0714C540.957 21.5153 540.552 22.1042 540.286 22.8381C540.025 23.5661 539.895 24.3651 539.895 25.2351C539.895 26.111 540.025 26.913 540.286 27.641C540.552 28.369 540.957 28.9519 541.502 29.3899C542.052 29.8279 542.745 30.0469 543.579 30.0469ZM552.89 32V18.3636H555.544V32H552.89ZM554.23 16.2596C553.769 16.2596 553.372 16.1057 553.041 15.7979C552.715 15.4843 552.553 15.1114 552.553 14.6793C552.553 14.2414 552.715 13.8685 553.041 13.5607C553.372 13.247 553.769 13.0902 554.23 13.0902C554.692 13.0902 555.086 13.247 555.411 13.5607C555.743 13.8685 555.908 14.2414 555.908 14.6793C555.908 15.1114 555.743 15.4843 555.411 15.7979C555.086 16.1057 554.692 16.2596 554.23 16.2596ZM561.77 23.9034V32H559.116V18.3636H561.663V20.5831H561.832C562.146 19.861 562.637 19.281 563.306 18.843C563.981 18.4051 564.83 18.1861 565.854 18.1861C566.783 18.1861 567.597 18.3814 568.295 18.772C568.994 19.1567 569.535 19.7308 569.92 20.4943C570.305 21.2578 570.497 22.2018 570.497 23.3263V32H567.842V23.646C567.842 22.6576 567.585 21.8852 567.07 21.3288C566.555 20.7666 565.848 20.4854 564.948 20.4854C564.333 20.4854 563.785 20.6186 563.306 20.8849C562.832 21.1513 562.457 21.5419 562.178 22.0568C561.906 22.5658 561.77 23.1813 561.77 23.9034ZM579.774 37.3977C578.691 37.3977 577.759 37.2557 576.978 36.9716C576.202 36.6875 575.569 36.3117 575.078 35.8441C574.587 35.3765 574.22 34.8646 573.977 34.3082L576.259 33.3672C576.418 33.6276 576.631 33.9028 576.898 34.1928C577.17 34.4888 577.537 34.7403 577.999 34.9474C578.466 35.1546 579.067 35.2582 579.801 35.2582C580.807 35.2582 581.639 35.0125 582.296 34.5213C582.953 34.036 583.281 33.2607 583.281 32.1953V29.5142H583.112C582.953 29.8042 582.722 30.1268 582.42 30.4819C582.124 30.837 581.716 31.1448 581.195 31.4052C580.674 31.6656 579.996 31.7958 579.162 31.7958C578.084 31.7958 577.114 31.5443 576.25 31.0412C575.392 30.5322 574.711 29.7835 574.208 28.7951C573.711 27.8008 573.462 26.5786 573.462 25.1286C573.462 23.6785 573.708 22.4356 574.199 21.3999C574.696 20.3641 575.377 19.571 576.241 19.0206C577.105 18.4643 578.084 18.1861 579.179 18.1861C580.026 18.1861 580.709 18.3281 581.23 18.6122C581.751 18.8904 582.156 19.2159 582.446 19.5888C582.742 19.9616 582.97 20.2901 583.13 20.5742H583.325V18.3636H585.927V32.3018C585.927 33.4737 585.654 34.4355 585.11 35.1871C584.565 35.9388 583.828 36.4951 582.899 36.8562C581.976 37.2172 580.934 37.3977 579.774 37.3977ZM579.748 29.5941C580.511 29.5941 581.156 29.4165 581.683 29.0614C582.216 28.7004 582.618 28.1855 582.89 27.5167C583.169 26.842 583.308 26.0341 583.308 25.093C583.308 24.1757 583.171 23.3678 582.899 22.6694C582.627 21.971 582.227 21.4265 581.701 21.0359C581.174 20.6393 580.523 20.4411 579.748 20.4411C578.949 20.4411 578.283 20.6482 577.75 21.0625C577.217 21.4709 576.815 22.0272 576.543 22.7315C576.276 23.4358 576.143 24.223 576.143 25.093C576.143 25.9867 576.279 26.771 576.552 27.4457C576.824 28.1204 577.226 28.6471 577.759 29.0259C578.298 29.4047 578.96 29.5941 579.748 29.5941Z" fill="white"/>
<rect x="503" y="65" width="318" height="180" rx="9" stroke="#DCDCDC" stroke-width="2" stroke-dasharray="10 10"/>
<path d="M384.402 295.256C383.391 293.05 383.163 290.459 383.767 288.054C384.371 285.648 385.758 283.625 387.623 282.429C389.489 281.233 391.679 280.963 393.713 281.677C395.747 282.392 397.458 284.032 398.469 286.238C403.746 297.756 411.793 307.163 421.592 313.271C431.391 319.379 442.501 321.914 453.517 320.554C464.534 319.194 474.962 314 483.482 305.63C492.003 297.261 498.234 286.09 501.387 273.532L505.573 257.037L485.124 270.147C483.258 271.343 481.068 271.613 479.034 270.899C477 270.184 475.289 268.544 474.278 266.338C473.267 264.131 473.038 261.541 473.642 259.135C474.247 256.73 475.634 254.706 477.499 253.511L515.01 229.463C516.875 228.268 519.065 227.997 521.099 228.712C523.133 229.426 524.844 231.067 525.855 233.273L546.188 277.636C547.199 279.842 547.427 282.433 546.823 284.838C546.219 287.244 544.832 289.267 542.967 290.463C541.101 291.659 538.911 291.929 536.877 291.215C534.843 290.5 533.132 288.86 532.121 286.654L520.951 262.282L516.713 278.945C512.655 295.085 504.641 309.44 493.686 320.195C482.731 330.95 469.325 337.622 455.164 339.368C441.003 341.114 426.723 337.855 414.127 330.003C401.532 322.152 391.188 310.06 384.402 295.256Z" fill="#ED1E5A"/>
<path d="M427.637 351.459C428.262 351.376 428.829 352.372 429.34 354.446C429.186 355.055 428.842 355.395 428.31 355.465C427.931 355.445 427.504 355.066 427.03 354.329L426.378 354.204C425.29 354.348 424.403 355.196 423.714 356.746L423.756 357.059C423.802 357.406 425.509 357.767 428.878 358.144C430.35 358.772 431.163 359.665 431.317 360.821C431.568 362.718 430.257 364.54 427.382 366.287L426.126 366.665C424.155 366.715 423.055 365.873 422.824 364.138L422.81 364.034C422.737 363.479 423.052 363.107 423.757 362.919C424.312 362.846 424.759 363.375 425.098 364.507L425.403 364.678L425.993 364.6C427.311 364.425 428.417 363.36 429.311 361.405L429.251 360.954C429.159 360.26 427.558 359.814 424.448 359.615C422.766 359.179 421.848 358.383 421.695 357.226C421.495 355.723 422.568 354.144 424.914 352.491C426.006 352.205 426.914 351.861 427.637 351.459ZM441.541 352.826C443.278 353.678 444.294 355.214 444.589 357.435C444.988 360.442 444.254 362.622 442.386 363.977L441.095 364.36C440.308 364.464 439.425 364.193 438.445 363.547L438.202 363.579C437.608 364.599 436.998 365.151 436.374 365.234C434.732 365.452 433.577 364.028 432.911 360.962L432.663 359.089C432.435 356.13 432.853 354.58 433.917 354.438C434.495 354.362 434.878 354.676 435.065 355.38C434.656 356.376 434.562 357.707 434.783 359.372L434.871 360.031C435.24 362.101 435.598 363.113 435.945 363.066C436.292 363.02 436.57 362.371 436.781 361.119L436.394 358.735C436.182 357.139 436.457 356.29 437.221 356.189C438.1 356.072 438.654 356.881 438.885 358.616L439.023 358.597L438.967 360.829C439.513 361.934 440.134 362.44 440.828 362.348L441.036 362.32C442.054 362.185 442.568 361.01 442.58 358.796L442.322 356.853C442.224 356.113 441.663 355.258 440.64 354.287L440.46 353.993C440.395 353.508 440.756 353.118 441.541 352.826ZM445.076 345.048C445.98 345.116 446.471 345.451 446.551 346.052C446.406 346.731 446.079 347.104 445.57 347.171C444.693 347.123 444.208 346.752 444.116 346.058C444.27 345.449 444.591 345.112 445.076 345.048ZM447.04 349.73C447.41 349.681 447.767 349.975 448.11 350.612L448.125 353.117L448.341 354.747C448.593 356.644 449.247 359.088 450.303 362.078C450.13 362.548 449.766 362.82 449.211 362.894C448.263 363.02 447.27 360.327 446.232 354.816L446.071 353.601C445.745 351.15 446.068 349.859 447.04 349.73ZM455.076 351.629C457.527 351.303 459.177 352.65 460.025 355.668C460.388 358.397 459.375 360.52 456.987 362.038C456.728 362.213 456.356 362.334 455.87 362.398L455.627 362.43L454.855 362.462L454.864 362.532L456.233 371.777C456.166 372.515 455.843 372.923 455.265 373C454.59 372.878 454.222 372.585 454.16 372.123L451.342 353.29C451.262 352.688 451.579 352.329 452.293 352.21L453.063 352.426C453.665 351.993 454.335 351.727 455.076 351.629ZM453.829 355.537L453.868 356.626L454.46 360.29L455.464 360.404C457.014 360.198 457.869 358.931 458.031 356.603L457.962 356.083C457.557 354.277 456.788 353.449 455.655 353.6L455.135 353.669C454.117 353.804 453.682 354.427 453.829 355.537ZM463.877 348.271C464.806 348.171 466.582 349.583 469.206 352.507L469.354 353.087C469.44 353.735 467.922 354.443 464.799 355.21L464.709 355.328L464.727 355.467C465.489 357.484 466.136 358.457 466.668 358.387L467.085 358.332C467.825 358.233 468.841 357.286 470.132 355.491L470.34 355.463C470.803 355.402 471.206 355.689 471.549 356.326C471.623 356.882 470.779 357.97 469.017 359.593C468.548 359.961 467.965 360.263 467.266 360.497C465.393 360.745 463.852 359.161 462.645 355.743C461.56 355.723 460.969 355.354 460.874 354.637C460.807 354.128 461.155 353.74 461.92 353.474L461.939 353.613L462.267 353.428L462.152 352.561C461.799 349.901 462.374 348.471 463.877 348.271ZM464.417 350.742L464.105 350.783L464.137 352.085L464.28 353.161L464.418 353.142C465.708 352.924 466.337 352.699 466.306 352.468C465.585 351.646 464.955 351.07 464.417 350.742ZM479.769 346.479C479.854 345.879 480.186 345.541 480.764 345.464C481.342 345.387 481.801 345.915 482.139 347.047L482.278 347.028L483.828 346.47C484.568 346.371 485.377 346.97 486.256 348.266L486.394 348.247C487.2 346.516 488.135 345.58 489.199 345.439C491.521 345.554 492.851 346.884 493.189 349.428L493.42 350.633L494.038 357.683L494.125 358.343C494.202 358.921 493.888 359.304 493.183 359.491C492.466 359.587 491.996 358.79 491.772 357.102L491.354 350.766C491.047 348.453 490.35 347.369 489.263 347.513C488.638 347.596 488.088 349.211 487.611 352.358C487.632 355.886 487.504 357.668 487.226 357.705C486.833 357.757 486.647 357.864 486.669 358.026C485.94 358.029 485.532 357.706 485.446 357.059L485.34 352.801C484.886 349.919 484.405 348.511 483.896 348.579L483.792 348.593C483.272 349.109 483.098 350.015 483.27 351.31L483.514 353.149L484.081 358.476C483.995 359.076 483.675 359.412 483.12 359.486C482.634 359.55 482.268 359.187 482.022 358.396L481.34 354.32L481.101 350.927C480.732 349.211 480.288 347.728 479.769 346.479ZM497.644 343.788C498.572 343.688 500.348 345.1 502.972 348.023L503.12 348.604C503.206 349.252 501.688 349.959 498.565 350.727L498.475 350.845L498.493 350.984C499.255 353.001 499.902 353.974 500.434 353.903L500.851 353.848C501.591 353.75 502.607 352.803 503.898 351.007L504.106 350.98C504.569 350.918 504.972 351.206 505.316 351.843C505.389 352.398 504.545 353.487 502.784 355.11C502.315 355.478 501.731 355.779 501.032 356.013C499.159 356.262 497.618 354.678 496.411 351.26C495.326 351.239 494.736 350.871 494.64 350.153C494.573 349.645 494.922 349.257 495.686 348.991L495.705 349.129L496.033 348.945L495.918 348.077C495.565 345.417 496.14 343.987 497.644 343.788ZM498.184 346.258L497.871 346.3L497.903 347.602L498.046 348.677L498.185 348.659C499.474 348.441 500.103 348.216 500.072 347.985C499.351 347.162 498.721 346.587 498.184 346.258ZM504.893 331.527C505.551 331.698 505.913 332.027 505.977 332.513C507.034 339.057 507.93 343.764 508.664 346.632C508.509 347.241 508.212 347.575 507.773 347.633C506.917 347.747 506.306 346.427 505.941 343.675C505.598 342.685 504.934 339.018 503.951 332.676C503.874 332.098 504.188 331.715 504.893 331.527ZM508.271 355.37C508.384 354.625 508.706 354.217 509.238 354.147C509.793 354.073 510.222 354.381 510.526 355.07C510.36 355.775 510.046 356.158 509.584 356.219L509.48 356.233C509.017 356.295 508.614 356.007 508.271 355.37Z" fill="#1C3C84"/>
<rect x="932" width="320" height="46" rx="15" fill="#A1F679"/>
<path d="M955.884 32H949.998V13.8182H956.07C957.851 13.8182 959.381 14.1822 960.66 14.9102C961.938 15.6322 962.918 16.6709 963.598 18.0263C964.285 19.3757 964.628 20.9944 964.628 22.8825C964.628 24.7764 964.282 26.404 963.589 27.7653C962.903 29.1265 961.909 30.1741 960.607 30.908C959.304 31.636 957.73 32 955.884 32ZM952.741 29.603H955.733C957.118 29.603 958.269 29.3426 959.186 28.8217C960.103 28.295 960.79 27.5344 961.246 26.5401C961.701 25.5399 961.929 24.3207 961.929 22.8825C961.929 21.4561 961.701 20.2457 961.246 19.2514C960.796 18.2571 960.124 17.5025 959.23 16.9876C958.337 16.4727 957.227 16.2152 955.901 16.2152H952.741V29.603ZM973.57 32.2752C972.292 32.2752 971.176 31.9822 970.223 31.3963C969.271 30.8104 968.531 29.9906 968.004 28.9371C967.477 27.8836 967.214 26.6526 967.214 25.244C967.214 23.8294 967.477 22.5924 968.004 21.533C968.531 20.4736 969.271 19.6509 970.223 19.065C971.176 18.479 972.292 18.1861 973.57 18.1861C974.849 18.1861 975.964 18.479 976.917 19.065C977.87 19.6509 978.61 20.4736 979.137 21.533C979.664 22.5924 979.927 23.8294 979.927 25.244C979.927 26.6526 979.664 27.8836 979.137 28.9371C978.61 29.9906 977.87 30.8104 976.917 31.3963C975.964 31.9822 974.849 32.2752 973.57 32.2752ZM973.579 30.0469C974.408 30.0469 975.094 29.8279 975.639 29.3899C976.183 28.9519 976.586 28.369 976.846 27.641C977.113 26.913 977.246 26.111 977.246 25.2351C977.246 24.3651 977.113 23.5661 976.846 22.8381C976.586 22.1042 976.183 21.5153 975.639 21.0714C975.094 20.6275 974.408 20.4055 973.579 20.4055C972.745 20.4055 972.052 20.6275 971.502 21.0714C970.957 21.5153 970.552 22.1042 970.286 22.8381C970.025 23.5661 969.895 24.3651 969.895 25.2351C969.895 26.111 970.025 26.913 970.286 27.641C970.552 28.369 970.957 28.9519 971.502 29.3899C972.052 29.8279 972.745 30.0469 973.579 30.0469ZM985.544 23.9034V32H982.89V18.3636H985.438V20.5831H985.607C985.92 19.861 986.411 19.281 987.08 18.843C987.755 18.4051 988.604 18.1861 989.628 18.1861C990.557 18.1861 991.371 18.3814 992.07 18.772C992.768 19.1567 993.31 19.7308 993.694 20.4943C994.079 21.2578 994.271 22.2018 994.271 23.3263V32H991.617V23.646C991.617 22.6576 991.359 21.8852 990.844 21.3288C990.33 20.7666 989.622 20.4854 988.723 20.4854C988.107 20.4854 987.56 20.6186 987.08 20.8849C986.607 21.1513 986.231 21.5419 985.953 22.0568C985.681 22.5658 985.544 23.1813 985.544 23.9034ZM1003.71 32.2752C1002.36 32.2752 1001.21 31.9882 1000.24 31.4141C999.272 30.834 998.527 30.0202 998 28.9727C997.479 27.9192 997.219 26.6851 997.219 25.2706C997.219 23.8738 997.479 22.6428 998 21.5774C998.527 20.5121 999.261 19.6805 1000.2 19.0827C1001.15 18.485 1002.26 18.1861 1003.52 18.1861C1004.29 18.1861 1005.04 18.3133 1005.76 18.5678C1006.48 18.8223 1007.13 19.2218 1007.7 19.7663C1008.28 20.3108 1008.73 21.0181 1009.06 21.8881C1009.39 22.7522 1009.56 23.8028 1009.56 25.0398V25.9808H998.719V23.9922H1006.96C1006.96 23.2938 1006.82 22.6753 1006.53 22.1367C1006.25 21.5922 1005.85 21.1631 1005.33 20.8494C1004.82 20.5357 1004.23 20.3789 1003.54 20.3789C1002.79 20.3789 1002.14 20.5624 1001.59 20.9293C1001.04 21.2904 1000.61 21.7638 1000.31 22.3498C1000.01 22.9298 999.864 23.5601 999.864 24.2408V25.7944C999.864 26.7058 1000.02 27.4812 1000.34 28.1204C1000.67 28.7596 1001.12 29.2479 1001.7 29.5852C1002.28 29.9167 1002.96 30.0824 1003.74 30.0824C1004.24 30.0824 1004.7 30.0114 1005.11 29.8693C1005.53 29.7214 1005.88 29.5024 1006.19 29.2124C1006.49 28.9223 1006.72 28.5643 1006.88 28.1381L1009.39 28.5909C1009.19 29.3307 1008.83 29.9788 1008.31 30.5352C1007.79 31.0856 1007.14 31.5147 1006.36 31.8224C1005.59 32.1243 1004.7 32.2752 1003.71 32.2752Z" fill="white"/>
<rect x="933" y="65" width="318" height="180" rx="9" stroke="#DCDCDC" stroke-width="2" stroke-dasharray="10 10"/>
<defs>
<filter id="filter0_d_724_721" x="0" y="34" width="442" height="282" filterUnits="userSpaceOnUse" color-interpolation-filters="sRGB">
<feFlood flood-opacity="0" result="BackgroundImageFix"/>
<feColorMatrix in="SourceAlpha" type="matrix" values="0 0 0 0 0 0 0 0 0 0 0 0 0 0 0 0 0 0 127 0" result="hardAlpha"/>
<feOffset dy="20"/>
<feGaussianBlur stdDeviation="25"/>
<feComposite in2="hardAlpha" operator="out"/>
<feColorMatrix type="matrix" values="0 0 0 0 0.2 0 0 0 0 0.2 0 0 0 0 0.2 0 0 0 0.2 0"/>
<feBlend mode="normal" in2="BackgroundImageFix" result="effect1_dropShadow_724_721"/>
<feBlend mode="normal" in="SourceGraphic" in2="effect1_dropShadow_724_721" result="shape"/>
</filter>
</defs>
</svg>
