<svg width="442" height="282" viewBox="0 0 442 282" fill="none" xmlns="http://www.w3.org/2000/svg">
<g filter="url(#filter0_d_988_5176)">
<rect x="50" y="30" width="342" height="182" rx="15" fill="white" shape-rendering="crispEdges"/>
<path d="M80.098 55.5469H76.9872C76.9304 55.1444 76.8144 54.7869 76.6392 54.4744C76.464 54.1572 76.2391 53.8873 75.9645 53.6648C75.6899 53.4422 75.3726 53.2718 75.0128 53.1534C74.6577 53.035 74.2718 52.9759 73.8551 52.9759C73.1023 52.9759 72.4465 53.1629 71.8878 53.5369C71.3291 53.9062 70.8958 54.446 70.5881 55.1562C70.2803 55.8617 70.1264 56.7187 70.1264 57.7273C70.1264 58.7642 70.2803 59.6354 70.5881 60.3409C70.9006 61.0464 71.3362 61.5791 71.8949 61.9389C72.4536 62.2988 73.0999 62.4787 73.8338 62.4787C74.2457 62.4787 74.6269 62.4242 74.9773 62.3153C75.3324 62.2064 75.6473 62.0478 75.9219 61.8395C76.1965 61.6264 76.4238 61.3684 76.6037 61.0653C76.7884 60.7623 76.9162 60.4167 76.9872 60.0284L80.098 60.0426C80.0175 60.7102 79.8163 61.3542 79.4943 61.9744C79.1771 62.59 78.7486 63.1416 78.2088 63.6293C77.6738 64.1122 77.0346 64.4957 76.2912 64.7798C75.5526 65.0592 74.7169 65.1989 73.7841 65.1989C72.4867 65.1989 71.3267 64.9053 70.304 64.3182C69.286 63.7311 68.4811 62.8812 67.8892 61.7685C67.3021 60.6558 67.0085 59.3087 67.0085 57.7273C67.0085 56.1411 67.3068 54.7917 67.9034 53.679C68.5 52.5663 69.3097 51.7187 70.3324 51.1364C71.3551 50.5492 72.5057 50.2557 73.7841 50.2557C74.6269 50.2557 75.4081 50.3741 76.1278 50.6108C76.8523 50.8475 77.4938 51.1932 78.0526 51.6477C78.6113 52.0975 79.0658 52.6491 79.4162 53.3026C79.7713 53.956 79.9986 54.7041 80.098 55.5469ZM82.2464 65V54.0909H85.1797V55.9943H85.2933C85.4922 55.3172 85.826 54.8059 86.2947 54.4602C86.7635 54.1098 87.3033 53.9347 87.9141 53.9347C88.0656 53.9347 88.2289 53.9441 88.4041 53.9631C88.5793 53.982 88.7332 54.008 88.8658 54.0412V56.7259C88.7237 56.6832 88.5272 56.6454 88.2763 56.6122C88.0253 56.5791 87.7957 56.5625 87.5874 56.5625C87.1423 56.5625 86.7446 56.6596 86.3942 56.8537C86.0485 57.0431 85.7739 57.3082 85.5703 57.6491C85.3714 57.9901 85.272 58.383 85.272 58.8281V65H82.2464ZM94.8938 65.2131C93.7717 65.2131 92.8058 64.9858 91.9961 64.5312C91.1912 64.072 90.5709 63.4233 90.1353 62.5852C89.6997 61.7424 89.4819 60.7457 89.4819 59.5952C89.4819 58.473 89.6997 57.4882 90.1353 56.6406C90.5709 55.7931 91.1841 55.1326 91.9748 54.6591C92.7702 54.1856 93.703 53.9489 94.7731 53.9489C95.4928 53.9489 96.1628 54.0649 96.783 54.2969C97.408 54.5241 97.9525 54.8674 98.4165 55.3267C98.8853 55.786 99.2499 56.3636 99.5103 57.0597C99.7707 57.7509 99.9009 58.5606 99.9009 59.4886V60.3196H90.6893V58.4446H97.0529C97.0529 58.009 96.9582 57.6231 96.7688 57.2869C96.5794 56.9508 96.3166 56.688 95.9805 56.4986C95.649 56.3045 95.2631 56.2074 94.8228 56.2074C94.3635 56.2074 93.9563 56.3139 93.6012 56.527C93.2508 56.7353 92.9762 57.017 92.7773 57.3722C92.5785 57.7225 92.4767 58.1132 92.4719 58.544V60.3267C92.4719 60.8665 92.5714 61.3329 92.7702 61.7259C92.9738 62.1188 93.2603 62.4219 93.6296 62.6349C93.9989 62.848 94.4369 62.9545 94.9435 62.9545C95.2797 62.9545 95.5875 62.9072 95.8668 62.8125C96.1462 62.7178 96.3853 62.5758 96.5842 62.3864C96.783 62.197 96.9345 61.965 97.0387 61.6903L99.837 61.875C99.695 62.5473 99.4038 63.1345 98.9634 63.6364C98.5278 64.1335 97.9644 64.5218 97.2731 64.8011C96.5865 65.0758 95.7934 65.2131 94.8938 65.2131ZM104.986 65.206C104.29 65.206 103.67 65.0852 103.125 64.8438C102.581 64.5975 102.15 64.2353 101.833 63.7571C101.52 63.2741 101.364 62.6728 101.364 61.9531C101.364 61.3471 101.475 60.8381 101.698 60.4261C101.92 60.0142 102.223 59.6828 102.607 59.4318C102.99 59.1809 103.426 58.9915 103.914 58.8636C104.406 58.7358 104.922 58.6458 105.462 58.5938C106.096 58.5275 106.608 58.4659 106.996 58.4091C107.384 58.3475 107.666 58.2576 107.841 58.1392C108.016 58.0208 108.104 57.8456 108.104 57.6136V57.571C108.104 57.1212 107.962 56.7732 107.678 56.527C107.399 56.2808 107.001 56.1577 106.485 56.1577C105.94 56.1577 105.507 56.2784 105.185 56.5199C104.863 56.7566 104.65 57.0549 104.546 57.4148L101.748 57.1875C101.89 56.5246 102.169 55.9517 102.586 55.4688C103.002 54.9811 103.54 54.607 104.198 54.3466C104.861 54.0814 105.628 53.9489 106.499 53.9489C107.105 53.9489 107.685 54.0199 108.239 54.1619C108.798 54.304 109.292 54.5241 109.723 54.8224C110.159 55.1207 110.502 55.5043 110.753 55.973C111.004 56.437 111.13 56.9934 111.13 57.642V65H108.26V63.4872H108.175C108 63.8281 107.766 64.1288 107.472 64.3892C107.178 64.6449 106.826 64.8461 106.414 64.9929C106.002 65.1349 105.526 65.206 104.986 65.206ZM105.853 63.1179C106.298 63.1179 106.691 63.0303 107.032 62.8551C107.373 62.6752 107.64 62.4337 107.834 62.1307C108.028 61.8277 108.125 61.4844 108.125 61.1009V59.9432C108.031 60.0047 107.9 60.0616 107.735 60.1136C107.574 60.161 107.391 60.206 107.188 60.2486C106.984 60.2865 106.781 60.322 106.577 60.3551C106.373 60.3835 106.189 60.4096 106.023 60.4332C105.668 60.4853 105.358 60.5682 105.093 60.6818C104.828 60.7955 104.622 60.9493 104.475 61.1435C104.328 61.3329 104.255 61.5696 104.255 61.8537C104.255 62.2656 104.404 62.5805 104.702 62.7983C105.005 63.0114 105.389 63.1179 105.853 63.1179ZM119.279 54.0909V56.3636H112.71V54.0909H119.279ZM114.201 51.4773H117.227V61.6477C117.227 61.9271 117.27 62.1449 117.355 62.3011C117.44 62.4527 117.558 62.5592 117.71 62.6207C117.866 62.6823 118.046 62.7131 118.25 62.7131C118.392 62.7131 118.534 62.7012 118.676 62.6776C118.818 62.6491 118.927 62.6278 119.002 62.6136L119.478 64.8651C119.327 64.9124 119.114 64.9669 118.839 65.0284C118.565 65.0947 118.231 65.1349 117.838 65.1491C117.109 65.1776 116.469 65.0805 115.92 64.858C115.376 64.6354 114.952 64.2898 114.649 63.821C114.346 63.3523 114.197 62.7604 114.201 62.0455V51.4773ZM126.105 65.2131C124.983 65.2131 124.017 64.9858 123.207 64.5312C122.402 64.072 121.782 63.4233 121.346 62.5852C120.911 61.7424 120.693 60.7457 120.693 59.5952C120.693 58.473 120.911 57.4882 121.346 56.6406C121.782 55.7931 122.395 55.1326 123.186 54.6591C123.981 54.1856 124.914 53.9489 125.984 53.9489C126.704 53.9489 127.374 54.0649 127.994 54.2969C128.619 54.5241 129.163 54.8674 129.627 55.3267C130.096 55.786 130.461 56.3636 130.721 57.0597C130.982 57.7509 131.112 58.5606 131.112 59.4886V60.3196H121.9V58.4446H128.264C128.264 58.009 128.169 57.6231 127.98 57.2869C127.79 56.9508 127.528 56.688 127.191 56.4986C126.86 56.3045 126.474 56.2074 126.034 56.2074C125.574 56.2074 125.167 56.3139 124.812 56.527C124.462 56.7353 124.187 57.017 123.988 57.3722C123.789 57.7225 123.688 58.1132 123.683 58.544V60.3267C123.683 60.8665 123.782 61.3329 123.981 61.7259C124.185 62.1188 124.471 62.4219 124.841 62.6349C125.21 62.848 125.648 62.9545 126.154 62.9545C126.491 62.9545 126.798 62.9072 127.078 62.8125C127.357 62.7178 127.596 62.5758 127.795 62.3864C127.994 62.197 128.145 61.965 128.25 61.6903L131.048 61.875C130.906 62.5473 130.615 63.1345 130.174 63.6364C129.739 64.1335 129.175 64.5218 128.484 64.8011C127.797 65.0758 127.004 65.2131 126.105 65.2131ZM141.735 65.1776C140.906 65.1776 140.156 64.9645 139.484 64.5384C138.816 64.1075 138.286 63.4754 137.893 62.642C137.504 61.804 137.31 60.7765 137.31 59.5597C137.31 58.3097 137.512 57.2704 137.914 56.4418C138.317 55.6084 138.852 54.9858 139.519 54.5739C140.192 54.1572 140.928 53.9489 141.728 53.9489C142.339 53.9489 142.848 54.053 143.255 54.2614C143.667 54.465 143.998 54.7206 144.249 55.0284C144.505 55.3314 144.699 55.6297 144.832 55.9233H144.924V50.4545H147.942V65H144.96V63.2528H144.832C144.69 63.5559 144.488 63.8565 144.228 64.1548C143.972 64.4484 143.638 64.6922 143.227 64.8864C142.819 65.0805 142.322 65.1776 141.735 65.1776ZM142.694 62.7699C143.182 62.7699 143.594 62.6373 143.93 62.3722C144.271 62.1023 144.531 61.7259 144.711 61.2429C144.896 60.7599 144.988 60.1941 144.988 59.5455C144.988 58.8968 144.898 58.3333 144.718 57.8551C144.538 57.3769 144.278 57.0076 143.937 56.7472C143.596 56.4867 143.182 56.3565 142.694 56.3565C142.197 56.3565 141.778 56.4915 141.437 56.7614C141.096 57.0312 140.838 57.4053 140.663 57.8835C140.487 58.3617 140.4 58.9157 140.4 59.5455C140.4 60.1799 140.487 60.741 140.663 61.2287C140.843 61.7116 141.101 62.0904 141.437 62.3651C141.778 62.6349 142.197 62.7699 142.694 62.7699ZM155.402 65.2131C154.279 65.2131 153.314 64.9858 152.504 64.5312C151.699 64.072 151.079 63.4233 150.643 62.5852C150.208 61.7424 149.99 60.7457 149.99 59.5952C149.99 58.473 150.208 57.4882 150.643 56.6406C151.079 55.7931 151.692 55.1326 152.483 54.6591C153.278 54.1856 154.211 53.9489 155.281 53.9489C156.001 53.9489 156.671 54.0649 157.291 54.2969C157.916 54.5241 158.46 54.8674 158.924 55.3267C159.393 55.786 159.758 56.3636 160.018 57.0597C160.279 57.7509 160.409 58.5606 160.409 59.4886V60.3196H151.197V58.4446H157.561C157.561 58.009 157.466 57.6231 157.277 57.2869C157.087 56.9508 156.824 56.688 156.488 56.4986C156.157 56.3045 155.771 56.2074 155.331 56.2074C154.871 56.2074 154.464 56.3139 154.109 56.527C153.759 56.7353 153.484 57.017 153.285 57.3722C153.086 57.7225 152.984 58.1132 152.98 58.544V60.3267C152.98 60.8665 153.079 61.3329 153.278 61.7259C153.482 62.1188 153.768 62.4219 154.137 62.6349C154.507 62.848 154.945 62.9545 155.451 62.9545C155.788 62.9545 156.095 62.9072 156.375 62.8125C156.654 62.7178 156.893 62.5758 157.092 62.3864C157.291 62.197 157.442 61.965 157.547 61.6903L160.345 61.875C160.203 62.5473 159.912 63.1345 159.471 63.6364C159.036 64.1335 158.472 64.5218 157.781 64.8011C157.094 65.0758 156.301 65.2131 155.402 65.2131ZM171.46 57.2017L168.69 57.3722C168.643 57.1354 168.541 56.9223 168.385 56.733C168.228 56.5388 168.022 56.3849 167.767 56.2713C167.516 56.1529 167.215 56.0938 166.865 56.0938C166.396 56.0938 166.001 56.1932 165.679 56.392C165.357 56.5862 165.196 56.8466 165.196 57.1733C165.196 57.4337 165.3 57.6539 165.508 57.8338C165.717 58.0137 166.074 58.1581 166.581 58.267L168.555 58.6648C169.616 58.8826 170.406 59.233 170.927 59.7159C171.448 60.1989 171.708 60.8333 171.708 61.6193C171.708 62.3343 171.498 62.9616 171.076 63.5014C170.66 64.0412 170.087 64.4626 169.358 64.7656C168.633 65.0639 167.797 65.2131 166.85 65.2131C165.406 65.2131 164.256 64.9124 163.399 64.3111C162.547 63.705 162.047 62.8812 161.9 61.8395L164.876 61.6832C164.966 62.1236 165.184 62.4598 165.529 62.6918C165.875 62.919 166.318 63.0327 166.858 63.0327C167.388 63.0327 167.814 62.9309 168.136 62.7273C168.463 62.5189 168.628 62.2514 168.633 61.9247C168.628 61.6501 168.512 61.4252 168.285 61.25C168.058 61.0701 167.708 60.9328 167.234 60.8381L165.345 60.4616C164.279 60.2486 163.486 59.8793 162.966 59.3537C162.449 58.8281 162.191 58.1581 162.191 57.3438C162.191 56.643 162.381 56.0393 162.76 55.5327C163.143 55.026 163.681 54.6354 164.372 54.3608C165.068 54.0862 165.882 53.9489 166.815 53.9489C168.193 53.9489 169.277 54.2401 170.068 54.8224C170.863 55.4048 171.327 56.1979 171.46 57.2017ZM173.614 65V54.0909H176.639V65H173.614ZM175.134 52.6847C174.684 52.6847 174.298 52.5355 173.976 52.2372C173.659 51.9342 173.5 51.572 173.5 51.1506C173.5 50.7339 173.659 50.3764 173.976 50.0781C174.298 49.7751 174.684 49.6236 175.134 49.6236C175.583 49.6236 175.967 49.7751 176.284 50.0781C176.606 50.3764 176.767 50.7339 176.767 51.1506C176.767 51.572 176.606 51.9342 176.284 52.2372C175.967 52.5355 175.583 52.6847 175.134 52.6847ZM183.978 69.3182C182.998 69.3182 182.157 69.1832 181.456 68.9134C180.76 68.6482 180.206 68.286 179.794 67.8267C179.382 67.3674 179.115 66.8513 178.992 66.2784L181.79 65.902C181.875 66.1198 182.01 66.3234 182.195 66.5128C182.38 66.7022 182.623 66.8537 182.926 66.9673C183.234 67.0857 183.608 67.1449 184.049 67.1449C184.707 67.1449 185.249 66.9839 185.675 66.6619C186.106 66.3447 186.321 65.812 186.321 65.0639V63.0682H186.194C186.061 63.3712 185.862 63.6577 185.597 63.9276C185.332 64.1974 184.991 64.4176 184.574 64.5881C184.158 64.7585 183.66 64.8438 183.083 64.8438C182.264 64.8438 181.518 64.6544 180.846 64.2756C180.178 63.892 179.645 63.3073 179.248 62.5213C178.855 61.7306 178.658 60.7315 178.658 59.5241C178.658 58.2884 178.859 57.2562 179.262 56.4276C179.664 55.599 180.199 54.9787 180.867 54.5668C181.539 54.1548 182.275 53.9489 183.076 53.9489C183.686 53.9489 184.198 54.053 184.61 54.2614C185.022 54.465 185.353 54.7206 185.604 55.0284C185.86 55.3314 186.056 55.6297 186.194 55.9233H186.307V54.0909H189.311V65.1065C189.311 66.0346 189.084 66.8111 188.63 67.4361C188.175 68.0611 187.545 68.5298 186.74 68.8423C185.94 69.1596 185.019 69.3182 183.978 69.3182ZM184.042 62.571C184.529 62.571 184.941 62.4503 185.277 62.2088C185.618 61.9626 185.879 61.6122 186.059 61.1577C186.243 60.6984 186.336 60.1491 186.336 59.5099C186.336 58.8707 186.246 58.3168 186.066 57.848C185.886 57.3745 185.625 57.0076 185.284 56.7472C184.944 56.4867 184.529 56.3565 184.042 56.3565C183.544 56.3565 183.125 56.4915 182.784 56.7614C182.444 57.0265 182.185 57.3958 182.01 57.8693C181.835 58.3428 181.748 58.8897 181.748 59.5099C181.748 60.1397 181.835 60.6842 182.01 61.1435C182.19 61.598 182.448 61.9508 182.784 62.2017C183.125 62.4479 183.544 62.571 184.042 62.571ZM194.745 58.6932V65H191.719V54.0909H194.603V56.0156H194.73C194.972 55.3812 195.377 54.8793 195.945 54.5099C196.513 54.1359 197.202 53.9489 198.012 53.9489C198.769 53.9489 199.43 54.1146 199.993 54.446C200.557 54.7775 200.995 55.2509 201.307 55.8665C201.62 56.4773 201.776 57.2064 201.776 58.054V65H198.75V58.5938C198.755 57.9261 198.585 57.4053 198.239 57.0312C197.893 56.6525 197.417 56.4631 196.811 56.4631C196.404 56.4631 196.044 56.5507 195.732 56.7259C195.424 56.901 195.183 57.1567 195.007 57.4929C194.837 57.8243 194.749 58.2244 194.745 58.6932ZM76.2841 81.2017L73.5142 81.3722C73.4669 81.1354 73.3651 80.9223 73.2088 80.733C73.0526 80.5388 72.8466 80.3849 72.5909 80.2713C72.34 80.1529 72.0393 80.0938 71.6889 80.0938C71.2202 80.0938 70.8248 80.1932 70.5028 80.392C70.1809 80.5862 70.0199 80.8466 70.0199 81.1733C70.0199 81.4337 70.1241 81.6539 70.3324 81.8338C70.5407 82.0137 70.8982 82.1581 71.4048 82.267L73.3793 82.6648C74.4399 82.8826 75.2306 83.233 75.7514 83.7159C76.2723 84.1989 76.5327 84.8333 76.5327 85.6193C76.5327 86.3343 76.322 86.9616 75.9006 87.5014C75.4839 88.0412 74.911 88.4626 74.1818 88.7656C73.4574 89.0639 72.6217 89.2131 71.6747 89.2131C70.2306 89.2131 69.08 88.9124 68.223 88.3111C67.3707 87.705 66.8712 86.8812 66.7244 85.8395L69.7003 85.6832C69.7902 86.1236 70.008 86.4598 70.3537 86.6918C70.6993 86.919 71.142 87.0327 71.6818 87.0327C72.2121 87.0327 72.6383 86.9309 72.9602 86.7273C73.2869 86.5189 73.4527 86.2514 73.4574 85.9247C73.4527 85.6501 73.3366 85.4252 73.1094 85.25C72.8821 85.0701 72.5317 84.9328 72.0582 84.8381L70.169 84.4616C69.1037 84.2486 68.3106 83.8793 67.7898 83.3537C67.2737 82.8281 67.0156 82.1581 67.0156 81.3438C67.0156 80.643 67.205 80.0393 67.5838 79.5327C67.9673 79.026 68.5047 78.6354 69.196 78.3608C69.892 78.0862 70.7064 77.9489 71.6392 77.9489C73.017 77.9489 74.1013 78.2401 74.892 78.8224C75.6875 79.4048 76.1515 80.1979 76.2841 81.2017ZM80.3058 93.0909C79.9222 93.0909 79.5624 93.0601 79.2262 92.9986C78.8948 92.9418 78.6201 92.8684 78.4023 92.7784L79.0842 90.5199C79.4393 90.6288 79.7589 90.688 80.043 90.6974C80.3318 90.7069 80.5804 90.6406 80.7887 90.4986C81.0018 90.3565 81.1746 90.1151 81.3072 89.7741L81.4847 89.3125L77.5714 78.0909H80.7532L83.0117 86.1023H83.1254L85.4052 78.0909H88.6083L84.3683 90.179C84.1647 90.7661 83.8877 91.2775 83.5373 91.7131C83.1916 92.1534 82.7537 92.492 82.2234 92.7287C81.6931 92.9702 81.0539 93.0909 80.3058 93.0909ZM99.2333 81.2017L96.4634 81.3722C96.4161 81.1354 96.3143 80.9223 96.158 80.733C96.0018 80.5388 95.7958 80.3849 95.5401 80.2713C95.2892 80.1529 94.9885 80.0938 94.6381 80.0938C94.1694 80.0938 93.774 80.1932 93.4521 80.392C93.1301 80.5862 92.9691 80.8466 92.9691 81.1733C92.9691 81.4337 93.0733 81.6539 93.2816 81.8338C93.4899 82.0137 93.8474 82.1581 94.354 82.267L96.3285 82.6648C97.3891 82.8826 98.1798 83.233 98.7006 83.7159C99.2215 84.1989 99.4819 84.8333 99.4819 85.6193C99.4819 86.3343 99.2712 86.9616 98.8498 87.5014C98.4331 88.0412 97.8602 88.4626 97.131 88.7656C96.4066 89.0639 95.5709 89.2131 94.6239 89.2131C93.1798 89.2131 92.0292 88.9124 91.1722 88.3111C90.32 87.705 89.8204 86.8812 89.6737 85.8395L92.6495 85.6832C92.7395 86.1236 92.9573 86.4598 93.3029 86.6918C93.6486 86.919 94.0913 87.0327 94.631 87.0327C95.1613 87.0327 95.5875 86.9309 95.9094 86.7273C96.2362 86.5189 96.4019 86.2514 96.4066 85.9247C96.4019 85.6501 96.2859 85.4252 96.0586 85.25C95.8313 85.0701 95.4809 84.9328 95.0075 84.8381L93.1183 84.4616C92.0529 84.2486 91.2598 83.8793 90.739 83.3537C90.2229 82.8281 89.9648 82.1581 89.9648 81.3438C89.9648 80.643 90.1542 80.0393 90.533 79.5327C90.9165 79.026 91.454 78.6354 92.1452 78.3608C92.8413 78.0862 93.6557 77.9489 94.5884 77.9489C95.9663 77.9489 97.0505 78.2401 97.8413 78.8224C98.6367 79.4048 99.1007 80.1979 99.2333 81.2017ZM107.19 78.0909V80.3636H100.62V78.0909H107.19ZM102.112 75.4773H105.137V85.6477C105.137 85.9271 105.18 86.1449 105.265 86.3011C105.35 86.4527 105.469 86.5592 105.62 86.6207C105.776 86.6823 105.956 86.7131 106.16 86.7131C106.302 86.7131 106.444 86.7012 106.586 86.6776C106.728 86.6491 106.837 86.6278 106.913 86.6136L107.388 88.8651C107.237 88.9124 107.024 88.9669 106.749 89.0284C106.475 89.0947 106.141 89.1349 105.748 89.1491C105.019 89.1776 104.379 89.0805 103.83 88.858C103.286 88.6354 102.862 88.2898 102.559 87.821C102.256 87.3523 102.107 86.7604 102.112 86.0455V75.4773ZM114.015 89.2131C112.893 89.2131 111.927 88.9858 111.117 88.5312C110.312 88.072 109.692 87.4233 109.256 86.5852C108.821 85.7424 108.603 84.7457 108.603 83.5952C108.603 82.473 108.821 81.4882 109.256 80.6406C109.692 79.7931 110.305 79.1326 111.096 78.6591C111.891 78.1856 112.824 77.9489 113.894 77.9489C114.614 77.9489 115.284 78.0649 115.904 78.2969C116.529 78.5241 117.074 78.8674 117.538 79.3267C118.006 79.786 118.371 80.3636 118.631 81.0597C118.892 81.7509 119.022 82.5606 119.022 83.4886V84.3196H109.81V82.4446H116.174C116.174 82.009 116.079 81.6231 115.89 81.2869C115.701 80.9508 115.438 80.688 115.102 80.4986C114.77 80.3045 114.384 80.2074 113.944 80.2074C113.485 80.2074 113.077 80.3139 112.722 80.527C112.372 80.7353 112.097 81.017 111.898 81.3722C111.7 81.7225 111.598 82.1132 111.593 82.544V84.3267C111.593 84.8665 111.692 85.3329 111.891 85.7259C112.095 86.1188 112.381 86.4219 112.751 86.6349C113.12 86.848 113.558 86.9545 114.065 86.9545C114.401 86.9545 114.709 86.9072 114.988 86.8125C115.267 86.7178 115.506 86.5758 115.705 86.3864C115.904 86.197 116.056 85.965 116.16 85.6903L118.958 85.875C118.816 86.5473 118.525 87.1345 118.085 87.6364C117.649 88.1335 117.085 88.5218 116.394 88.8011C115.708 89.0758 114.915 89.2131 114.015 89.2131ZM120.996 89V78.0909H123.88V80.0156H124.008C124.235 79.3764 124.614 78.8722 125.144 78.5028C125.674 78.1335 126.309 77.9489 127.048 77.9489C127.796 77.9489 128.433 78.1359 128.958 78.5099C129.484 78.8793 129.834 79.3812 130.009 80.0156H130.123C130.345 79.3906 130.748 78.8911 131.33 78.517C131.917 78.1383 132.611 77.9489 133.411 77.9489C134.429 77.9489 135.255 78.2732 135.89 78.9219C136.529 79.5658 136.849 80.4796 136.849 81.6634V89H133.83V82.2599C133.83 81.6539 133.669 81.1993 133.347 80.8963C133.025 80.5933 132.623 80.4418 132.14 80.4418C131.591 80.4418 131.162 80.617 130.854 80.9673C130.547 81.313 130.393 81.7699 130.393 82.3381V89H127.46V82.196C127.46 81.661 127.306 81.2348 126.998 80.9176C126.695 80.6004 126.295 80.4418 125.798 80.4418C125.461 80.4418 125.158 80.527 124.888 80.6974C124.623 80.8632 124.413 81.0975 124.256 81.4006C124.1 81.6989 124.022 82.0492 124.022 82.4517V89H120.996ZM149.734 78.0909V80.3636H143.001V78.0909H149.734ZM144.542 89V77.3026C144.542 76.5118 144.696 75.8561 145.004 75.3352C145.316 74.8144 145.743 74.4238 146.282 74.1634C146.822 73.9029 147.435 73.7727 148.122 73.7727C148.586 73.7727 149.01 73.8082 149.393 73.8793C149.781 73.9503 150.07 74.0142 150.26 74.071L149.72 76.3438C149.601 76.3059 149.455 76.2704 149.279 76.2372C149.109 76.2041 148.934 76.1875 148.754 76.1875C148.309 76.1875 147.999 76.2917 147.824 76.5C147.648 76.7036 147.561 76.9901 147.561 77.3594V89H144.542ZM156.121 89.2131C155.018 89.2131 154.063 88.9787 153.259 88.5099C152.458 88.0365 151.84 87.3783 151.405 86.5355C150.969 85.688 150.751 84.7055 150.751 83.5881C150.751 82.4612 150.969 81.4763 151.405 80.6335C151.84 79.786 152.458 79.1278 153.259 78.6591C154.063 78.1856 155.018 77.9489 156.121 77.9489C157.224 77.9489 158.176 78.1856 158.976 78.6591C159.781 79.1278 160.401 79.786 160.837 80.6335C161.272 81.4763 161.49 82.4612 161.49 83.5881C161.49 84.7055 161.272 85.688 160.837 86.5355C160.401 87.3783 159.781 88.0365 158.976 88.5099C158.176 88.9787 157.224 89.2131 156.121 89.2131ZM156.135 86.8693C156.637 86.8693 157.056 86.7273 157.392 86.4432C157.728 86.1544 157.982 85.7614 158.152 85.2642C158.327 84.767 158.415 84.2012 158.415 83.5668C158.415 82.9323 158.327 82.3665 158.152 81.8693C157.982 81.3722 157.728 80.9792 157.392 80.6903C157.056 80.4015 156.637 80.2571 156.135 80.2571C155.628 80.2571 155.202 80.4015 154.857 80.6903C154.516 80.9792 154.258 81.3722 154.082 81.8693C153.912 82.3665 153.827 82.9323 153.827 83.5668C153.827 84.2012 153.912 84.767 154.082 85.2642C154.258 85.7614 154.516 86.1544 154.857 86.4432C155.202 86.7273 155.628 86.8693 156.135 86.8693ZM163.457 89V78.0909H166.391V79.9943H166.504C166.703 79.3172 167.037 78.8059 167.506 78.4602C167.974 78.1098 168.514 77.9347 169.125 77.9347C169.277 77.9347 169.44 77.9441 169.615 77.9631C169.79 77.982 169.944 78.008 170.077 78.0412V80.7259C169.935 80.6832 169.738 80.6454 169.487 80.6122C169.236 80.5791 169.007 80.5625 168.798 80.5625C168.353 80.5625 167.955 80.6596 167.605 80.8537C167.259 81.0431 166.985 81.3082 166.781 81.6491C166.582 81.9901 166.483 82.383 166.483 82.8281V89H163.457ZM176.327 89V74.4545H185.957V76.9901H179.402V80.456H185.318V82.9915H179.402V89H176.327ZM192.097 89.2131C190.994 89.2131 190.04 88.9787 189.235 88.5099C188.435 88.0365 187.817 87.3783 187.381 86.5355C186.946 85.688 186.728 84.7055 186.728 83.5881C186.728 82.4612 186.946 81.4763 187.381 80.6335C187.817 79.786 188.435 79.1278 189.235 78.6591C190.04 78.1856 190.994 77.9489 192.097 77.9489C193.201 77.9489 194.152 78.1856 194.952 78.6591C195.757 79.1278 196.378 79.786 196.813 80.6335C197.249 81.4763 197.467 82.4612 197.467 83.5881C197.467 84.7055 197.249 85.688 196.813 86.5355C196.378 87.3783 195.757 88.0365 194.952 88.5099C194.152 88.9787 193.201 89.2131 192.097 89.2131ZM192.112 86.8693C192.613 86.8693 193.032 86.7273 193.369 86.4432C193.705 86.1544 193.958 85.7614 194.129 85.2642C194.304 84.767 194.391 84.2012 194.391 83.5668C194.391 82.9323 194.304 82.3665 194.129 81.8693C193.958 81.3722 193.705 80.9792 193.369 80.6903C193.032 80.4015 192.613 80.2571 192.112 80.2571C191.605 80.2571 191.179 80.4015 190.833 80.6903C190.492 80.9792 190.234 81.3722 190.059 81.8693C189.888 82.3665 189.803 82.9323 189.803 83.5668C189.803 84.2012 189.888 84.767 190.059 85.2642C190.234 85.7614 190.492 86.1544 190.833 86.4432C191.179 86.7273 191.605 86.8693 192.112 86.8693ZM199.434 89V78.0909H202.367V79.9943H202.481C202.68 79.3172 203.013 78.8059 203.482 78.4602C203.951 78.1098 204.491 77.9347 205.102 77.9347C205.253 77.9347 205.416 77.9441 205.592 77.9631C205.767 77.982 205.921 78.008 206.053 78.0412V80.7259C205.911 80.6832 205.715 80.6454 205.464 80.6122C205.213 80.5791 204.983 80.5625 204.775 80.5625C204.33 80.5625 203.932 80.6596 203.582 80.8537C203.236 81.0431 202.961 81.3082 202.758 81.6491C202.559 81.9901 202.46 82.383 202.46 82.8281V89H199.434ZM216.694 81.2017L213.924 81.3722C213.877 81.1354 213.775 80.9223 213.619 80.733C213.463 80.5388 213.257 80.3849 213.001 80.2713C212.75 80.1529 212.449 80.0938 212.099 80.0938C211.63 80.0938 211.235 80.1932 210.913 80.392C210.591 80.5862 210.43 80.8466 210.43 81.1733C210.43 81.4337 210.534 81.6539 210.743 81.8338C210.951 82.0137 211.308 82.1581 211.815 82.267L213.789 82.6648C214.85 82.8826 215.641 83.233 216.162 83.7159C216.682 84.1989 216.943 84.8333 216.943 85.6193C216.943 86.3343 216.732 86.9616 216.311 87.5014C215.894 88.0412 215.321 88.4626 214.592 88.7656C213.868 89.0639 213.032 89.2131 212.085 89.2131C210.641 89.2131 209.49 88.9124 208.633 88.3111C207.781 87.705 207.281 86.8812 207.135 85.8395L210.11 85.6832C210.2 86.1236 210.418 86.4598 210.764 86.6918C211.109 86.919 211.552 87.0327 212.092 87.0327C212.622 87.0327 213.048 86.9309 213.37 86.7273C213.697 86.5189 213.863 86.2514 213.868 85.9247C213.863 85.6501 213.747 85.4252 213.52 85.25C213.292 85.0701 212.942 84.9328 212.468 84.8381L210.579 84.4616C209.514 84.2486 208.721 83.8793 208.2 83.3537C207.684 82.8281 207.426 82.1581 207.426 81.3438C207.426 80.643 207.615 80.0393 207.994 79.5327C208.377 79.026 208.915 78.6354 209.606 78.3608C210.302 78.0862 211.117 77.9489 212.049 77.9489C213.427 77.9489 214.511 78.2401 215.302 78.8224C216.098 79.4048 216.562 80.1979 216.694 81.2017ZM218.848 89V78.0909H221.874V89H218.848ZM220.368 76.6847C219.918 76.6847 219.532 76.5355 219.21 76.2372C218.893 75.9342 218.734 75.572 218.734 75.1506C218.734 74.7339 218.893 74.3764 219.21 74.0781C219.532 73.7751 219.918 73.6236 220.368 73.6236C220.818 73.6236 221.201 73.7751 221.518 74.0781C221.84 74.3764 222.001 74.7339 222.001 75.1506C222.001 75.572 221.84 75.9342 221.518 76.2372C221.201 76.5355 220.818 76.6847 220.368 76.6847ZM229.226 89.2131C228.109 89.2131 227.148 88.9763 226.343 88.5028C225.542 88.0246 224.927 87.3617 224.496 86.5142C224.07 85.6667 223.857 84.6913 223.857 83.5881C223.857 82.4706 224.072 81.4905 224.503 80.6477C224.939 79.8002 225.557 79.1397 226.357 78.6662C227.157 78.188 228.109 77.9489 229.212 77.9489C230.164 77.9489 230.997 78.1217 231.712 78.4673C232.427 78.813 232.993 79.2983 233.409 79.9233C233.826 80.5483 234.056 81.2822 234.098 82.125H231.243C231.163 81.5805 230.95 81.1425 230.604 80.8111C230.263 80.4749 229.816 80.3068 229.262 80.3068C228.793 80.3068 228.383 80.4347 228.033 80.6903C227.687 80.9413 227.417 81.3082 227.223 81.7912C227.029 82.2741 226.932 82.8589 226.932 83.5455C226.932 84.2415 227.027 84.8333 227.216 85.321C227.41 85.8087 227.683 86.1804 228.033 86.4361C228.383 86.6918 228.793 86.8196 229.262 86.8196C229.607 86.8196 229.917 86.7486 230.192 86.6065C230.471 86.4645 230.701 86.2585 230.881 85.9886C231.066 85.714 231.186 85.3849 231.243 85.0014H234.098C234.051 85.8348 233.824 86.5687 233.417 87.2031C233.014 87.8329 232.458 88.3253 231.748 88.6804C231.037 89.0355 230.197 89.2131 229.226 89.2131ZM240.964 89.2131C239.861 89.2131 238.907 88.9787 238.102 88.5099C237.302 88.0365 236.684 87.3783 236.249 86.5355C235.813 85.688 235.595 84.7055 235.595 83.5881C235.595 82.4612 235.813 81.4763 236.249 80.6335C236.684 79.786 237.302 79.1278 238.102 78.6591C238.907 78.1856 239.861 77.9489 240.964 77.9489C242.068 77.9489 243.019 78.1856 243.82 78.6591C244.625 79.1278 245.245 79.786 245.68 80.6335C246.116 81.4763 246.334 82.4612 246.334 83.5881C246.334 84.7055 246.116 85.688 245.68 86.5355C245.245 87.3783 244.625 88.0365 243.82 88.5099C243.019 88.9787 242.068 89.2131 240.964 89.2131ZM240.979 86.8693C241.481 86.8693 241.9 86.7273 242.236 86.4432C242.572 86.1544 242.825 85.7614 242.996 85.2642C243.171 84.767 243.259 84.2012 243.259 83.5668C243.259 82.9323 243.171 82.3665 242.996 81.8693C242.825 81.3722 242.572 80.9792 242.236 80.6903C241.9 80.4015 241.481 80.2571 240.979 80.2571C240.472 80.2571 240.046 80.4015 239.7 80.6903C239.359 80.9792 239.101 81.3722 238.926 81.8693C238.756 82.3665 238.67 82.9323 238.67 83.5668C238.67 84.2012 238.756 84.767 238.926 85.2642C239.101 85.7614 239.359 86.1544 239.7 86.4432C240.046 86.7273 240.472 86.8693 240.979 86.8693Z" fill="#ACACAC"/>
<path d="M375.719 57.1971L366.156 66.7606C366.022 66.8945 365.852 66.9857 365.666 67.0226C365.481 67.0596 365.288 67.0407 365.113 66.9682C364.939 66.8958 364.789 66.7731 364.684 66.6157C364.579 66.4583 364.523 66.2732 364.523 66.084V61.3297C357.697 61.7171 353.017 66.1437 351.703 67.546C351.497 67.7663 351.226 67.9159 350.93 67.9736C350.634 68.0312 350.327 67.994 350.053 67.8671C349.779 67.7402 349.552 67.5302 349.405 67.267C349.257 67.0037 349.197 66.7006 349.231 66.4008C349.675 62.5443 351.787 58.8349 355.18 55.9563C357.997 53.5654 361.422 52.0484 364.523 51.783V46.9571C364.523 46.7678 364.579 46.5828 364.684 46.4254C364.789 46.268 364.939 46.1453 365.113 46.0728C365.288 46.0004 365.481 45.9815 365.666 46.0184C365.852 46.0554 366.022 46.1466 366.156 46.2805L375.719 55.8439C375.808 55.9327 375.879 56.0382 375.927 56.1543C375.975 56.2704 376 56.3949 376 56.5205C376 56.6462 375.975 56.7707 375.927 56.8868C375.879 57.0029 375.808 57.1083 375.719 57.1971Z" fill="#E2E8F0"/>
<path d="M66 98H376" stroke="#F2F2F2"/>
<rect x="66" y="114" width="137" height="36" rx="15" fill="#E2E8F0"/>
<path d="M92 132V138.222C92 138.694 91.8127 139.146 91.4793 139.479C91.1459 139.813 90.6937 140 90.2222 140H77.7778C77.3063 140 76.8541 139.813 76.5207 139.479C76.1873 139.146 76 138.694 76 138.222V132H92ZM87.5556 124C87.7913 124 88.0174 124.094 88.1841 124.26C88.3508 124.427 88.4444 124.653 88.4444 124.889V125.778H90.2222C90.6937 125.778 91.1459 125.965 91.4793 126.298C91.8127 126.632 92 127.084 92 127.556V130.222H76V127.556C76 127.084 76.1873 126.632 76.5207 126.298C76.8541 125.965 77.3063 125.778 77.7778 125.778H79.5556V124.889C79.5556 124.653 79.6492 124.427 79.8159 124.26C79.9826 124.094 80.2087 124 80.4444 124C80.6802 124 80.9063 124.094 81.073 124.26C81.2397 124.427 81.3333 124.653 81.3333 124.889V125.778H86.6667V124.889C86.6667 124.653 86.7603 124.427 86.927 124.26C87.0937 124.094 87.3198 124 87.5556 124Z" fill="#1C3C84"/>
<path d="M99.8267 139H97.4972L102.732 124.455H105.267L110.501 139H108.172L104.06 127.097H103.946L99.8267 139ZM100.217 133.304H107.774V135.151H100.217V133.304ZM119.342 134.476V128.091H121.473V139H119.385V137.111H119.271C119.02 137.693 118.618 138.179 118.064 138.567C117.514 138.95 116.83 139.142 116.011 139.142C115.31 139.142 114.69 138.988 114.15 138.68C113.615 138.368 113.194 137.906 112.886 137.295C112.583 136.685 112.431 135.929 112.431 135.03V128.091H114.555V134.774C114.555 135.518 114.761 136.109 115.173 136.55C115.585 136.99 116.12 137.21 116.778 137.21C117.176 137.21 117.571 137.111 117.964 136.912C118.362 136.713 118.691 136.412 118.951 136.01C119.217 135.607 119.347 135.096 119.342 134.476ZM128.9 143.318C128.033 143.318 127.288 143.205 126.663 142.977C126.042 142.75 125.536 142.449 125.143 142.075C124.75 141.701 124.456 141.292 124.262 140.847L126.087 140.094C126.215 140.302 126.386 140.522 126.599 140.754C126.817 140.991 127.11 141.192 127.479 141.358C127.853 141.524 128.334 141.607 128.921 141.607C129.726 141.607 130.391 141.41 130.917 141.017C131.442 140.629 131.705 140.009 131.705 139.156V137.011H131.57C131.442 137.243 131.258 137.501 131.016 137.786C130.78 138.07 130.453 138.316 130.036 138.524C129.62 138.732 129.077 138.837 128.41 138.837C127.548 138.837 126.772 138.635 126.08 138.233C125.394 137.826 124.849 137.227 124.447 136.436C124.049 135.641 123.85 134.663 123.85 133.503C123.85 132.343 124.047 131.348 124.44 130.52C124.837 129.691 125.382 129.057 126.073 128.616C126.764 128.171 127.548 127.949 128.424 127.949C129.101 127.949 129.648 128.062 130.065 128.29C130.481 128.512 130.806 128.773 131.038 129.071C131.274 129.369 131.457 129.632 131.585 129.859H131.741V128.091H133.822V139.241C133.822 140.179 133.604 140.948 133.168 141.55C132.733 142.151 132.143 142.596 131.4 142.885C130.661 143.174 129.828 143.318 128.9 143.318ZM128.879 137.075C129.489 137.075 130.005 136.933 130.427 136.649C130.853 136.36 131.175 135.948 131.393 135.413C131.615 134.874 131.727 134.227 131.727 133.474C131.727 132.741 131.618 132.094 131.4 131.536C131.182 130.977 130.862 130.541 130.441 130.229C130.02 129.911 129.499 129.753 128.879 129.753C128.239 129.753 127.707 129.919 127.281 130.25C126.854 130.577 126.532 131.022 126.315 131.585C126.102 132.149 125.995 132.778 125.995 133.474C125.995 134.189 126.104 134.817 126.322 135.357C126.54 135.896 126.862 136.318 127.288 136.621C127.719 136.924 128.249 137.075 128.879 137.075ZM143.58 134.476V128.091H145.711V139H143.623V137.111H143.509C143.258 137.693 142.856 138.179 142.302 138.567C141.753 138.95 141.068 139.142 140.249 139.142C139.549 139.142 138.928 138.988 138.388 138.68C137.853 138.368 137.432 137.906 137.124 137.295C136.821 136.685 136.67 135.929 136.67 135.03V128.091H138.793V134.774C138.793 135.518 138.999 136.109 139.411 136.55C139.823 136.99 140.358 137.21 141.016 137.21C141.414 137.21 141.809 137.111 142.202 136.912C142.6 136.713 142.929 136.412 143.19 136.01C143.455 135.607 143.585 135.096 143.58 134.476ZM156.739 130.754L154.814 131.095C154.734 130.849 154.606 130.615 154.431 130.392C154.26 130.17 154.028 129.987 153.735 129.845C153.441 129.703 153.074 129.632 152.634 129.632C152.033 129.632 151.531 129.767 151.128 130.037C150.726 130.302 150.525 130.645 150.525 131.067C150.525 131.431 150.659 131.725 150.929 131.947C151.199 132.17 151.635 132.352 152.236 132.494L153.969 132.892C154.973 133.124 155.721 133.482 156.213 133.964C156.706 134.447 156.952 135.075 156.952 135.847C156.952 136.5 156.763 137.082 156.384 137.594C156.01 138.1 155.487 138.498 154.814 138.787C154.147 139.076 153.373 139.22 152.492 139.22C151.27 139.22 150.274 138.96 149.502 138.439C148.73 137.913 148.257 137.168 148.081 136.202L150.134 135.889C150.262 136.424 150.525 136.829 150.922 137.104C151.32 137.374 151.838 137.509 152.478 137.509C153.174 137.509 153.73 137.364 154.147 137.075C154.563 136.782 154.772 136.424 154.772 136.003C154.772 135.662 154.644 135.375 154.388 135.143C154.137 134.911 153.751 134.736 153.23 134.618L151.384 134.213C150.366 133.981 149.613 133.612 149.125 133.105C148.642 132.598 148.401 131.957 148.401 131.18C148.401 130.536 148.581 129.973 148.941 129.49C149.301 129.007 149.798 128.631 150.432 128.361C151.067 128.086 151.793 127.949 152.613 127.949C153.792 127.949 154.72 128.205 155.397 128.716C156.074 129.223 156.521 129.902 156.739 130.754ZM164.379 128.091V129.795H158.42V128.091H164.379ZM160.018 125.477H162.142V135.797C162.142 136.209 162.204 136.519 162.327 136.727C162.45 136.931 162.608 137.071 162.803 137.146C163.001 137.217 163.217 137.253 163.449 137.253C163.619 137.253 163.768 137.241 163.896 137.217C164.024 137.194 164.124 137.175 164.195 137.161L164.578 138.915C164.455 138.962 164.28 139.009 164.053 139.057C163.825 139.109 163.541 139.137 163.2 139.142C162.642 139.152 162.121 139.052 161.638 138.844C161.155 138.635 160.764 138.313 160.466 137.878C160.168 137.442 160.018 136.895 160.018 136.237V125.477ZM177.511 124.455V139H175.31V126.656H175.224L171.744 128.929V126.827L175.374 124.455H177.511ZM181.446 139V137.409L186.368 132.31C186.893 131.756 187.327 131.27 187.668 130.854C188.013 130.432 188.271 130.032 188.442 129.653C188.612 129.275 188.697 128.872 188.697 128.446C188.697 127.963 188.584 127.546 188.357 127.196C188.129 126.841 187.819 126.569 187.426 126.379C187.033 126.185 186.59 126.088 186.098 126.088C185.577 126.088 185.123 126.195 184.734 126.408C184.346 126.621 184.048 126.921 183.839 127.31C183.631 127.698 183.527 128.152 183.527 128.673H181.432C181.432 127.788 181.635 127.014 182.043 126.351C182.45 125.688 183.009 125.174 183.719 124.81C184.429 124.44 185.236 124.256 186.141 124.256C187.054 124.256 187.859 124.438 188.555 124.803C189.256 125.162 189.803 125.655 190.196 126.28C190.589 126.9 190.786 127.601 190.786 128.382C190.786 128.922 190.684 129.45 190.48 129.966C190.281 130.482 189.933 131.057 189.436 131.692C188.939 132.321 188.248 133.086 187.362 133.986L184.472 137.011V137.118H191.02V139H181.446Z" fill="#1C3C84"/>
<rect x="207" y="114" width="64" height="36" rx="15" fill="#E2E8F0"/>
<path d="M226.141 136.273V135.506C226.141 134.923 226.264 134.388 226.51 133.901C226.761 133.408 227.123 133.015 227.597 132.722C228.075 132.423 228.657 132.274 229.344 132.274C230.04 132.274 230.625 132.421 231.098 132.714C231.576 133.008 231.936 133.401 232.178 133.893C232.424 134.381 232.547 134.919 232.547 135.506V136.273C232.547 136.855 232.424 137.393 232.178 137.885C231.931 138.373 231.569 138.763 231.091 139.057C230.613 139.355 230.03 139.504 229.344 139.504C228.648 139.504 228.063 139.355 227.589 139.057C227.116 138.763 226.756 138.373 226.51 137.885C226.264 137.393 226.141 136.855 226.141 136.273ZM228.207 135.506V136.273C228.207 136.609 228.288 136.926 228.449 137.224C228.615 137.523 228.913 137.672 229.344 137.672C229.775 137.672 230.068 137.525 230.224 137.232C230.385 136.938 230.466 136.618 230.466 136.273V135.506C230.466 135.16 230.39 134.838 230.239 134.54C230.087 134.241 229.789 134.092 229.344 134.092C228.918 134.092 228.622 134.241 228.456 134.54C228.29 134.838 228.207 135.16 228.207 135.506ZM218.676 127.949V127.182C218.676 126.595 218.802 126.057 219.053 125.57C219.304 125.077 219.666 124.684 220.139 124.391C220.617 124.097 221.195 123.95 221.872 123.95C222.573 123.95 223.16 124.097 223.634 124.391C224.107 124.684 224.467 125.077 224.713 125.57C224.959 126.057 225.082 126.595 225.082 127.182V127.949C225.082 128.536 224.957 129.073 224.706 129.561C224.46 130.049 224.098 130.439 223.619 130.733C223.146 131.022 222.563 131.166 221.872 131.166C221.181 131.166 220.596 131.019 220.118 130.726C219.644 130.428 219.285 130.037 219.038 129.554C218.797 129.066 218.676 128.531 218.676 127.949ZM220.757 127.182V127.949C220.757 128.295 220.838 128.614 220.999 128.908C221.164 129.201 221.455 129.348 221.872 129.348C222.308 129.348 222.604 129.201 222.76 128.908C222.921 128.614 223.001 128.295 223.001 127.949V127.182C223.001 126.836 222.926 126.514 222.774 126.216C222.623 125.918 222.322 125.768 221.872 125.768C221.451 125.768 221.16 125.92 220.999 126.223C220.838 126.526 220.757 126.846 220.757 127.182ZM219.614 139L229.614 124.455H231.474L221.474 139H219.614ZM240.679 139.199C239.675 139.199 238.78 139.014 237.994 138.645C237.213 138.276 236.593 137.767 236.134 137.118C235.674 136.469 235.435 135.726 235.416 134.888H238.399C238.432 135.451 238.669 135.908 239.109 136.259C239.55 136.609 240.073 136.784 240.679 136.784C241.162 136.784 241.588 136.678 241.957 136.464C242.331 136.247 242.623 135.946 242.831 135.562C243.044 135.174 243.151 134.729 243.151 134.227C243.151 133.716 243.042 133.266 242.824 132.878C242.611 132.49 242.315 132.187 241.936 131.969C241.557 131.751 241.124 131.64 240.636 131.635C240.21 131.635 239.796 131.723 239.393 131.898C238.996 132.073 238.686 132.312 238.463 132.615L235.729 132.125L236.418 124.455H245.31V126.969H238.953L238.577 130.612H238.662C238.918 130.252 239.304 129.954 239.82 129.717C240.336 129.481 240.913 129.362 241.553 129.362C242.429 129.362 243.21 129.568 243.896 129.98C244.583 130.392 245.125 130.958 245.523 131.678C245.92 132.393 246.117 133.216 246.112 134.149C246.117 135.129 245.89 136 245.43 136.763C244.976 137.52 244.339 138.117 243.52 138.553C242.705 138.983 241.759 139.199 240.679 139.199ZM253.96 139.32C252.739 139.315 251.688 139.014 250.807 138.418C249.931 137.821 249.256 136.957 248.783 135.825C248.314 134.694 248.082 133.332 248.087 131.741C248.087 130.155 248.321 128.804 248.79 127.686C249.263 126.569 249.938 125.719 250.814 125.136C251.695 124.549 252.743 124.256 253.96 124.256C255.177 124.256 256.223 124.549 257.099 125.136C257.98 125.723 258.657 126.576 259.131 127.693C259.604 128.806 259.839 130.155 259.834 131.741C259.834 133.337 259.597 134.701 259.124 135.832C258.655 136.964 257.982 137.828 257.107 138.425C256.231 139.021 255.182 139.32 253.96 139.32ZM253.96 136.77C254.794 136.77 255.459 136.351 255.956 135.513C256.453 134.675 256.699 133.418 256.695 131.741C256.695 130.638 256.581 129.72 256.354 128.986C256.131 128.252 255.814 127.7 255.402 127.331C254.995 126.962 254.514 126.777 253.96 126.777C253.132 126.777 252.469 127.191 251.972 128.02C251.474 128.848 251.223 130.089 251.219 131.741C251.219 132.859 251.33 133.792 251.553 134.54C251.78 135.283 252.099 135.842 252.511 136.216C252.923 136.585 253.406 136.77 253.96 136.77Z" fill="#1C3C84"/>
<path d="M69.3083 173.617H79.2331M66 167H72.6165M69.3083 167V185.195C69.3083 185.634 69.4825 186.055 69.7928 186.365C70.103 186.675 70.5237 186.85 70.9624 186.85H79.2331" stroke="#1C3C84" stroke-width="3" stroke-linecap="round" stroke-linejoin="round"/>
<ellipse cx="80.4738" cy="173.368" rx="2.89474" ry="2.89474" fill="#1C3C84"/>
<ellipse cx="80.4738" cy="186.105" rx="2.89474" ry="2.89474" fill="#1C3C84"/>
<path d="M93.9738 185.199C92.88 185.199 91.907 185.021 91.0547 184.666C90.2072 184.306 89.5419 183.816 89.059 183.196C88.576 182.576 88.3346 181.873 88.3346 181.087C88.3346 180.481 88.4719 179.924 88.7465 179.418C89.0258 178.906 89.4046 178.482 89.8829 178.146C90.3611 177.805 90.8961 177.588 91.488 177.493V177.393C90.7115 177.237 90.0817 176.861 89.5988 176.264C89.1158 175.663 88.8743 174.964 88.8743 174.169C88.8743 173.416 89.0945 172.746 89.5348 172.159C89.9752 171.567 90.5789 171.103 91.3459 170.767C92.1177 170.426 92.9937 170.256 93.9738 170.256C94.9539 170.256 95.8275 170.426 96.5945 170.767C97.3663 171.108 97.9723 171.574 98.4127 172.166C98.853 172.753 99.0756 173.421 99.0803 174.169C99.0756 174.969 98.8294 175.668 98.3417 176.264C97.854 176.861 97.229 177.237 96.4667 177.393V177.493C97.0491 177.588 97.577 177.805 98.0505 178.146C98.5287 178.482 98.9075 178.906 99.1868 179.418C99.4709 179.924 99.6153 180.481 99.6201 181.087C99.6153 181.873 99.3715 182.576 98.8885 183.196C98.4056 183.816 97.738 184.306 96.8857 184.666C96.0382 185.021 95.0675 185.199 93.9738 185.199ZM93.9738 182.94C94.4615 182.94 94.8876 182.853 95.2522 182.678C95.6168 182.498 95.9008 182.251 96.1044 181.939C96.3128 181.622 96.4169 181.257 96.4169 180.845C96.4169 180.424 96.3104 180.052 96.0973 179.73C95.8843 179.403 95.5955 179.148 95.2309 178.963C94.8663 178.774 94.4473 178.679 93.9738 178.679C93.505 178.679 93.086 178.774 92.7167 178.963C92.3473 179.148 92.0562 179.403 91.8431 179.73C91.6348 180.052 91.5306 180.424 91.5306 180.845C91.5306 181.257 91.6324 181.622 91.836 181.939C92.0396 182.251 92.326 182.498 92.6954 182.678C93.0647 182.853 93.4908 182.94 93.9738 182.94ZM93.9738 176.442C94.381 176.442 94.7432 176.359 95.0604 176.193C95.3776 176.027 95.6262 175.798 95.8062 175.504C95.9861 175.211 96.076 174.872 96.076 174.489C96.076 174.11 95.9861 173.778 95.8062 173.494C95.6262 173.205 95.38 172.981 95.0675 172.82C94.755 172.654 94.3904 172.571 93.9738 172.571C93.5618 172.571 93.1973 172.654 92.88 172.82C92.5628 172.981 92.3142 173.205 92.1343 173.494C91.9591 173.778 91.8715 174.11 91.8715 174.489C91.8715 174.872 91.9615 175.211 92.1414 175.504C92.3213 175.798 92.5699 176.027 92.8871 176.193C93.2044 176.359 93.5666 176.442 93.9738 176.442Z" fill="#1C3C84"/>
<path fill-rule="evenodd" clip-rule="evenodd" d="M117.48 171.889C117.48 170.592 117.995 169.349 118.912 168.432C119.829 167.515 121.072 167 122.369 167C123.665 167 124.909 167.515 125.826 168.432C126.742 169.349 127.258 170.592 127.258 171.889C127.258 173.186 126.742 174.429 125.826 175.346C124.909 176.263 123.665 176.778 122.369 176.778C121.072 176.778 119.829 176.263 118.912 175.346C117.995 174.429 117.48 173.186 117.48 171.889ZM117.48 179.222C115.859 179.222 114.305 179.866 113.159 181.012C112.012 182.158 111.369 183.713 111.369 185.333C111.369 186.306 111.755 187.238 112.443 187.926C113.13 188.614 114.063 189 115.035 189H129.702C130.674 189 131.607 188.614 132.295 187.926C132.982 187.238 133.369 186.306 133.369 185.333C133.369 183.713 132.725 182.158 131.579 181.012C130.433 179.866 128.878 179.222 127.258 179.222H117.48Z" fill="#1C3C84"/>
<path d="M138.327 182.443V180.021L144.4 170.455H146.488V173.807H145.252L141.424 179.865V179.979H150.053V182.443H138.327ZM145.309 185V181.705L145.366 180.632V170.455H148.249V185H145.309Z" fill="#1C3C84"/>
<path d="M376 169.637V182.839C375.999 182.964 375.972 183.088 375.921 183.202C375.869 183.316 375.794 183.417 375.7 183.499C374.042 184.955 372.456 185.479 370.944 185.479C368.891 185.479 366.974 184.518 365.19 183.626C362.308 182.179 359.803 180.926 356.895 183.254V188.12C356.895 188.353 356.803 188.577 356.64 188.742C356.478 188.907 356.257 189 356.026 189C355.796 189 355.575 188.907 355.412 188.742C355.249 188.577 355.158 188.353 355.158 188.12V169.637C355.159 169.512 355.186 169.388 355.238 169.274C355.29 169.16 355.365 169.059 355.459 168.977C359.367 165.547 362.874 167.304 365.965 168.854C368.944 170.348 371.527 171.639 374.563 168.977C374.688 168.867 374.842 168.795 375.007 168.771C375.171 168.747 375.339 168.771 375.49 168.84C375.641 168.91 375.77 169.022 375.86 169.163C375.951 169.304 375.999 169.469 376 169.637Z" fill="#36C5F0"/>
</g>
<defs>
<filter id="filter0_d_988_5176" x="0" y="0" width="442" height="282" filterUnits="userSpaceOnUse" color-interpolation-filters="sRGB">
<feFlood flood-opacity="0" result="BackgroundImageFix"/>
<feColorMatrix in="SourceAlpha" type="matrix" values="0 0 0 0 0 0 0 0 0 0 0 0 0 0 0 0 0 0 127 0" result="hardAlpha"/>
<feOffset dy="20"/>
<feGaussianBlur stdDeviation="25"/>
<feComposite in2="hardAlpha" operator="out"/>
<feColorMatrix type="matrix" values="0 0 0 0 0.2 0 0 0 0 0.2 0 0 0 0 0.2 0 0 0 0.2 0"/>
<feBlend mode="normal" in2="BackgroundImageFix" result="effect1_dropShadow_988_5176"/>
<feBlend mode="normal" in="SourceGraphic" in2="effect1_dropShadow_988_5176" result="shape"/>
</filter>
</defs>
</svg>
