<svg width="19" height="18" viewBox="0 0 19 18" fill="none" xmlns="http://www.w3.org/2000/svg">
<path fill-rule="evenodd" clip-rule="evenodd" d="M5.69922 4C5.69922 2.93913 6.12065 1.92172 6.87079 1.17157C7.62094 0.421427 8.63835 0 9.69922 0C10.7601 0 11.7775 0.421427 12.5276 1.17157C13.2778 1.92172 13.6992 2.93913 13.6992 4C13.6992 5.06087 13.2778 6.07828 12.5276 6.82843C11.7775 7.57857 10.7601 8 9.69922 8C8.63835 8 7.62094 7.57857 6.87079 6.82843C6.12065 6.07828 5.69922 5.06087 5.69922 4ZM5.69922 10C4.37314 10 3.10137 10.5268 2.16368 11.4645C1.226 12.4021 0.699219 13.6739 0.699219 15C0.699219 15.7956 1.01529 16.5587 1.5779 17.1213C2.14051 17.6839 2.90357 18 3.69922 18H15.6992C16.4949 18 17.2579 17.6839 17.8205 17.1213C18.3831 16.5587 18.6992 15.7956 18.6992 15C18.6992 13.6739 18.1724 12.4021 17.2348 11.4645C16.2971 10.5268 15.0253 10 13.6992 10H5.69922Z" fill="#36C5F0"/>
</svg>
