<svg width="15" height="16" viewBox="0 0 15 16" fill="none" xmlns="http://www.w3.org/2000/svg">
<path d="M15 8C15 8.23869 14.9052 8.46761 14.7364 8.6364C14.5676 8.80518 14.3387 8.9 14.1 8.9H8.4V14.6C8.4 14.8387 8.30518 15.0676 8.1364 15.2364C7.96761 15.4052 7.73869 15.5 7.5 15.5C7.26131 15.5 7.03239 15.4052 6.8636 15.2364C6.69482 15.0676 6.6 14.8387 6.6 14.6V8.9H0.9C0.661305 8.9 0.432387 8.80518 0.263604 8.6364C0.0948212 8.46761 0 8.23869 0 8C0 7.76131 0.0948212 7.53239 0.263604 7.3636C0.432387 7.19482 0.661305 7.1 0.9 7.1H6.6V1.4C6.6 1.16131 6.69482 0.932387 6.8636 0.763604C7.03239 0.594821 7.26131 0.5 7.5 0.5C7.73869 0.5 7.96761 0.594821 8.1364 0.763604C8.30518 0.932387 8.4 1.16131 8.4 1.4V7.1H14.1C14.3387 7.1 14.5676 7.19482 14.7364 7.3636C14.9052 7.53239 15 7.76131 15 8Z" fill="white"/>
</svg>
