<svg width="20" height="21" viewBox="0 0 20 21" fill="none" xmlns="http://www.w3.org/2000/svg">
<path fill-rule="evenodd" clip-rule="evenodd" d="M10 0.500878C4.477 0.500878 1.65574e-06 4.97788 1.65574e-06 10.5009C-0.000846144 11.9743 0.323896 13.4296 0.951002 14.7629L0.0210016 19.2999C-0.0121094 19.4619 -0.00453626 19.6295 0.0430431 19.7879C0.0906225 19.9462 0.176723 20.0903 0.293638 20.2072C0.410553 20.3242 0.554634 20.4103 0.712983 20.4578C0.871332 20.5054 1.03901 20.513 1.201 20.4799L5.738 19.5499C7.032 20.1599 8.478 20.4999 10 20.4999C15.523 20.4999 20 16.0239 20 10.4999C20 4.97788 15.523 0.499878 10 0.499878" fill="#1C3C84"/>
</svg>
