<svg width="18" height="18" viewBox="0 0 18 18" fill="none" xmlns="http://www.w3.org/2000/svg">
<path d="M16.5002 16.5001L12.881 12.8809M12.881 12.8809C13.5001 12.2618 13.9912 11.5269 14.3262 10.718C14.6612 9.90918 14.8337 9.04225 14.8337 8.16675C14.8337 7.29124 14.6612 6.42432 14.3262 5.61546C13.9912 4.8066 13.5001 4.07165 12.881 3.45258C12.2619 2.83351 11.527 2.34243 10.7181 2.00739C9.90927 1.67235 9.04234 1.49991 8.16684 1.49991C7.29134 1.49991 6.42441 1.67235 5.61555 2.00739C4.80669 2.34243 4.07174 2.83351 3.45267 3.45258C2.2024 4.70285 1.5 6.39859 1.5 8.16675C1.5 9.9349 2.2024 11.6306 3.45267 12.8809C4.70295 14.1312 6.39868 14.8336 8.16684 14.8336C9.93499 14.8336 11.6307 14.1312 12.881 12.8809Z" stroke="white" stroke-width="1.5" stroke-linecap="round" stroke-linejoin="round"/>
</svg>
