<svg width="25" height="25" viewBox="0 0 25 25" fill="none" xmlns="http://www.w3.org/2000/svg">
<path d="M10.0305 16.2327L9.56839 16.4237L10.0305 16.2327ZM9.80511 15.7806L9.41 16.087L9.80511 15.7806ZM15.9683 15.7806L16.3634 16.087L15.9683 15.7806ZM18.3867 10.5469C18.3867 12.3475 17.5219 13.9461 16.1829 14.9502L16.7828 15.7502C18.3629 14.5654 19.3867 12.6756 19.3867 10.5469H18.3867ZM12.8867 5.04688C15.9243 5.04688 18.3867 7.50931 18.3867 10.5469H19.3867C19.3867 6.95702 16.4766 4.04688 12.8867 4.04688V5.04688ZM7.38672 10.5469C7.38672 7.50931 9.84915 5.04688 12.8867 5.04688V4.04688C9.29687 4.04688 6.38672 6.95702 6.38672 10.5469H7.38672ZM9.59055 14.9502C8.25152 13.9461 7.38672 12.3475 7.38672 10.5469H6.38672C6.38672 12.6756 7.41058 14.5654 8.99062 15.7502L9.59055 14.9502ZM11.3841 20.3004C11.3535 18.8342 11.0499 17.3904 10.4926 16.0418L9.56839 16.4237C10.0784 17.658 10.3563 18.9794 10.3844 20.3213L11.3841 20.3004ZM14.452 20.2052C13.4666 20.6979 12.3068 20.6979 11.3215 20.2052L10.8743 21.0997C12.1411 21.7331 13.6323 21.7331 14.8992 21.0997L14.452 20.2052ZM15.2808 16.0418C14.7236 17.3904 14.4199 18.8342 14.3893 20.3004L15.3891 20.3213C15.4171 18.9794 15.695 17.658 16.2051 16.4237L15.2808 16.0418ZM14.8992 21.0997C15.1999 20.9493 15.3823 20.6456 15.3891 20.3213L14.3893 20.3004C14.39 20.2653 14.4101 20.2262 14.452 20.2052L14.8992 21.0997ZM10.3844 20.3213C10.3911 20.6456 10.5736 20.9493 10.8743 21.0997L11.3215 20.2052C11.3633 20.2262 11.3834 20.2653 11.3841 20.3004L10.3844 20.3213ZM8.99062 15.7502C9.30917 15.9891 9.37977 16.048 9.41 16.087L10.2002 15.4742C10.0654 15.3003 9.84798 15.1432 9.59055 14.9502L8.99062 15.7502ZM10.4926 16.0418C10.4058 15.8317 10.3328 15.6452 10.2002 15.4742L9.41 16.087C9.44246 16.1289 9.46471 16.1728 9.56839 16.4237L10.4926 16.0418ZM16.1829 14.9502C15.9255 15.1432 15.7081 15.3003 15.5732 15.4742L16.3634 16.087C16.3937 16.048 16.4643 15.9891 16.7828 15.7502L16.1829 14.9502ZM16.2051 16.4237C16.3087 16.1728 16.331 16.1289 16.3634 16.087L15.5732 15.4742C15.4406 15.6452 15.3676 15.8317 15.2808 16.0418L16.2051 16.4237Z" fill="rgba(54, 197, 240, 1)"/>
<path d="M15.3867 17.0469V17.0469C13.7819 17.6888 11.9916 17.6888 10.3867 17.0469V17.0469" stroke="rgba(54, 197, 240, 1)"/>
<path d="M11.8867 14.5469V10.2969C11.8867 9.60652 11.3271 9.04688 10.6367 9.04688V9.04688C9.94636 9.04688 9.38672 9.60652 9.38672 10.2969V10.2969C9.38672 10.9872 9.94636 11.5469 10.6367 11.5469H15.1367C15.8271 11.5469 16.3867 10.9872 16.3867 10.2969V10.2969C16.3867 9.60652 15.8271 9.04688 15.1367 9.04688V9.04688C14.4464 9.04688 13.8867 9.60652 13.8867 10.2969V14.5469" stroke="rgba(54, 197, 240, 1)" stroke-linecap="round"/>
</svg>
