<svg width="21" height="20" viewBox="0 0 21 20" fill="none" xmlns="http://www.w3.org/2000/svg">
<path d="M19.1298 10.861C19.3008 10.448 19.3008 9.923 19.3008 8.875C19.3008 7.827 19.3008 7.302 19.1298 6.889C19.0167 6.61593 18.8509 6.36782 18.642 6.15883C18.433 5.94984 18.1848 5.78407 17.9118 5.671C17.4988 5.5 16.9738 5.5 15.9258 5.5H9.40078C8.14078 5.5 7.51078 5.5 7.02978 5.745C6.60604 5.96078 6.26156 6.30526 6.04578 6.729C5.80078 7.209 5.80078 7.839 5.80078 9.1V15.625C5.80078 16.673 5.80078 17.198 5.97178 17.611C6.20078 18.162 6.63878 18.601 7.18978 18.829C7.60278 19 8.12778 19 9.17578 19C10.2238 19 10.7488 19 11.1618 18.829M19.1298 10.861C19.0167 11.1341 18.8509 11.3822 18.642 11.5912C18.433 11.8002 18.1848 11.9659 17.9118 12.079C17.4988 12.25 16.9738 12.25 15.9258 12.25C14.8778 12.25 14.3528 12.25 13.9398 12.421C13.6667 12.5341 13.4186 12.6998 13.2096 12.9088C13.0006 13.1178 12.8349 13.3659 12.7218 13.639C12.5508 14.052 12.5508 14.577 12.5508 15.625C12.5508 16.673 12.5508 17.198 12.3798 17.611C12.2667 17.8841 12.1009 18.1322 11.892 18.3412C11.683 18.5502 11.4348 18.7159 11.1618 18.829M19.1298 10.861C18.5918 12.7159 17.6023 14.4084 16.2498 15.7871C14.8973 17.1658 13.224 18.1876 11.3798 18.761L11.1618 18.829M14.8008 5.5V4.6C14.8008 3.34 14.8008 2.71 14.5558 2.229C14.3403 1.80541 13.9961 1.46095 13.5728 1.245C13.0908 1 12.4608 1 11.2008 1H4.90078C3.64078 1 3.01078 1 2.52978 1.245C2.10604 1.46078 1.76156 1.80526 1.54578 2.229C1.30078 2.709 1.30078 3.339 1.30078 4.6V10.9C1.30078 12.16 1.30078 12.79 1.54578 13.271C1.76178 13.695 2.10578 14.039 2.52978 14.255C3.00978 14.5 3.64078 14.5 4.90178 14.5H5.80078" stroke="#6D6D6D" stroke-width="1.5" stroke-linecap="round" stroke-linejoin="round"/>
</svg>
