<svg width="19" height="19" viewBox="0 0 19 19" fill="none" xmlns="http://www.w3.org/2000/svg">
<path d="M18.1504 9.66016C18.1504 9.94659 18.0366 10.2213 17.8341 10.4238C17.6315 10.6264 17.3568 10.7402 17.0704 10.7402H10.2304V17.5802C10.2304 17.8666 10.1166 18.1413 9.91407 18.3438C9.71153 18.5464 9.43682 18.6602 9.15039 18.6602C8.86396 18.6602 8.58925 18.5464 8.38671 18.3438C8.18418 18.1413 8.07039 17.8666 8.07039 17.5802V10.7402H1.23039C0.943957 10.7402 0.669255 10.6264 0.466715 10.4238C0.264176 10.2213 0.150391 9.94659 0.150391 9.66016C0.150391 9.37372 0.264176 9.09902 0.466715 8.89648C0.669255 8.69394 0.943957 8.58016 1.23039 8.58016H8.07039V1.74016C8.07039 1.45372 8.18418 1.17902 8.38671 0.976481C8.58925 0.773942 8.86396 0.660156 9.15039 0.660156C9.43682 0.660156 9.71153 0.773942 9.91407 0.976481C10.1166 1.17902 10.2304 1.45372 10.2304 1.74016V8.58016H17.0704C17.3568 8.58016 17.6315 8.69394 17.8341 8.89648C18.0366 9.09902 18.1504 9.37372 18.1504 9.66016Z" fill="#1C3C84"/>
</svg>
